*
*
G04 PADS 9.5 Build Number: 522968 generated Gerber (RS-274-X) file*
G04 PC Version=2.1*
*
%IN "PCBv2.pcb"*%
*
%MOIN*%
*
%FSLAX35Y35*%
*
*
*
*
G04 PC Standard Apertures*
*
*
G04 Thermal Relief Aperture macro.*
%AMTER*
1,1,$1,0,0*
1,0,$1-$2,0,0*
21,0,$3,$4,0,0,45*
21,0,$3,$4,0,0,135*
%
*
*
G04 Annular Aperture macro.*
%AMANN*
1,1,$1,0,0*
1,0,$2,0,0*
%
*
*
G04 Odd Aperture macro.*
%AMODD*
1,1,$1,0,0*
1,0,$1-0.005,0,0*
%
*
*
G04 PC Custom Aperture Macros*
*
*
*
*
*
*
G04 PC Aperture Table*
*
%ADD010C,0.001*%
%ADD011R,0.06X0.06*%
%ADD012C,0.06*%
%ADD018C,0.07*%
%ADD019C,0.19*%
%ADD022C,0.13*%
%ADD027C,0.085*%
%ADD029C,0.015*%
%ADD031C,0.055*%
*
*
*
*
G04 PC Circuitry*
G04 Layer Name PCBv2.pcb - circuitry*
%LPD*%
*
*
G04 PC Custom Flashes*
G04 Layer Name PCBv2.pcb - flashes*
%LPD*%
*
*
G04 PC Circuitry*
G04 Layer Name PCBv2.pcb - circuitry*
%LPD*%
*
G54D10*
G54D11*
G01X2238500Y1563750D03*
Y1513750D03*
X1768500Y1603750D03*
X1828500Y1513750D03*
X1858500Y1603750D03*
G54D12*
X2238500Y1573750D03*
Y1523750D03*
X1998500Y1563750D03*
Y1561781D03*
Y1559813D03*
Y1557844D03*
Y1555876D03*
Y1553907D03*
Y1551939D03*
Y1549970D03*
Y1548002D03*
Y1546033D03*
Y1544065D03*
Y1542096D03*
Y1540128D03*
Y1538159D03*
Y1536191D03*
Y1534222D03*
X2005500Y1528750D03*
X2007469D03*
X2009437D03*
X2011406D03*
X2013374D03*
X2015343D03*
X2017311D03*
X2019280D03*
X2021248D03*
X2023217D03*
X2025185D03*
X2027154D03*
X2029122D03*
X2031091D03*
X2033059D03*
X2035028D03*
X2042594Y1534222D03*
Y1536191D03*
Y1538159D03*
Y1540128D03*
Y1542096D03*
Y1544065D03*
Y1546033D03*
Y1548002D03*
Y1549970D03*
Y1551939D03*
Y1553907D03*
Y1555876D03*
Y1557844D03*
Y1559813D03*
Y1561781D03*
Y1563750D03*
X2035028Y1572844D03*
X2033059D03*
X2031091D03*
X2029122D03*
X2027154D03*
X2025185D03*
X2023217D03*
X2021248D03*
X2019280D03*
X2017311D03*
X2015343D03*
X2013374D03*
X2011406D03*
X2009437D03*
X2007469D03*
X2005500D03*
X1778500Y1603750D03*
X1788500D03*
X1798500D03*
X1808500D03*
X1818500D03*
X1828500D03*
X1838500D03*
Y1633750D03*
X1828500D03*
X1818500D03*
X1808500D03*
X1798500D03*
X1788500D03*
X1778500D03*
X1768500D03*
X1998500Y1683750D03*
X2018500D03*
X2118500D03*
X2138500D03*
X2158500D03*
X2178500D03*
X1828500Y1560650D03*
X1875400D03*
Y1513750D03*
X2078500Y1683750D03*
X2098500D03*
X1868500Y1603750D03*
X1878500D03*
X1888500D03*
X1898500D03*
X1908500D03*
X1918500D03*
Y1633750D03*
X1908500D03*
X1898500D03*
X1888500D03*
X1878500D03*
X1868500D03*
X1858500D03*
X2038500Y1683750D03*
X2058500D03*
X1958500D03*
X1978500D03*
X1878500D03*
X1898500D03*
X2198500D03*
X2218500D03*
X1918500Y1543750D03*
Y1525522D03*
Y1561978D03*
X1909500Y1552750D03*
X1927500D03*
X1908500Y1533750D03*
X1928500D03*
X1949500Y1543750D03*
Y1525522D03*
X1940500Y1552750D03*
X1958500D03*
X1939500Y1533750D03*
X1959500D03*
X1949500Y1561978D03*
X2068500Y1503750D03*
X2088500D03*
X1918500Y1683750D03*
X1938500D03*
X2098500Y1603750D03*
Y1613750D03*
G54D18*
X1798500Y1563750D03*
X1788500Y1573750D03*
X1778500Y1563750D03*
X2148500Y1507750D03*
Y1539750D03*
X2178500Y1507750D03*
Y1539750D03*
X2118500Y1507750D03*
Y1539750D03*
G54D19*
X1788500Y1498750D03*
G54D22*
X1828500Y1653750D03*
X1858500D03*
X1958500Y1603750D03*
X2018500D03*
Y1623750D03*
X1958500D03*
G54D27*
X2148500Y1550050D03*
X2178500D03*
X2118500D03*
G54D29*
X1993500Y1491250D02*
Y1513220D01*
X1992750Y1513970*
X1822750Y1568466D02*
X1823500Y1569216D01*
Y1578750*
X1778500Y1563750D02*
X1759250Y1583000D01*
Y1637781*
X1828500Y1513750D02*
Y1535309D01*
X1822750Y1541059*
Y1568466*
X1875400Y1513750D02*
X1838500Y1550650D01*
Y1603750*
X1992750Y1513970D02*
Y1572974D01*
X2008500Y1588724*
Y1668750*
X2129500Y1528411D02*
Y1577898D01*
X2133500Y1581898*
Y1601250*
X2136000Y1541250D02*
Y1578898D01*
X2139000Y1581898*
X2133500Y1508750D02*
Y1524411D01*
X2129500Y1528411*
X2088500Y1503750D02*
Y1543875D01*
X2093500Y1548875*
Y1588750*
X2232750Y1546730D02*
Y1636266D01*
X2233500Y1637016*
Y1701250*
X2185650Y1523739D02*
Y1579100D01*
X2171000Y1593750*
X2163500Y1498750D02*
Y1556250D01*
X2158500Y1561250*
Y1618750*
X2171000Y1501250D02*
X2172081Y1510169D01*
X2185650Y1523739*
X2238500Y1523750D02*
Y1540980D01*
X2232750Y1546730*
X1759250Y1637781D02*
X1763500Y1642031D01*
Y1646250*
X1762750Y1636211D02*
X1771000Y1644461D01*
Y1693750*
X1826000Y1586250D02*
X1816000D01*
X1798500Y1603750*
X1828500Y1633750D02*
X1834788Y1640038D01*
Y1645316*
X1859972Y1670500*
X1914177*
X1947927Y1704250*
X2098000*
X1828500Y1603750D02*
X1838500Y1613750D01*
Y1633750*
X1818500Y1603750D02*
X1828500Y1613750D01*
Y1633750*
X1768500Y1603750D02*
Y1616859D01*
X1762750Y1622609*
Y1636211*
X1844250Y1614200D02*
Y1638766D01*
X1843500Y1639516*
Y1646250*
X1852750Y1624984D02*
Y1638141D01*
X1858500Y1643891*
Y1653750*
X1853500Y1613750D02*
Y1624234D01*
X1852750Y1624984*
X1838500Y1603750D02*
Y1608450D01*
X1844250Y1614200*
X1924250Y1642516D02*
X1923500Y1643266D01*
Y1653750*
X1948500Y1613750D02*
Y1635741D01*
X1953500Y1640741*
Y1653750*
X1976000Y1648750D02*
Y1664875D01*
X1978500Y1667375*
Y1683750*
X1993500Y1586250D02*
Y1632375D01*
X1998500Y1637375*
Y1683750*
X1918500Y1603750D02*
Y1616859D01*
X1924250Y1622609*
Y1642516*
X2046000Y1648750D02*
Y1676250D01*
X2038500Y1683750*
X2031000Y1581250D02*
Y1671250D01*
X2018500Y1683750*
X2138150Y1609551D02*
Y1644901D01*
X2138500Y1645251*
Y1666250*
X2139000Y1581898D02*
Y1608701D01*
X2138150Y1609551*
X2123500Y1621250D02*
Y1646250D01*
X2126000Y1648750*
Y1673750*
X2151000Y1573750D02*
Y1671250D01*
X2138500Y1683750*
X2078500Y1638750D02*
Y1652159D01*
X2048500Y1682159*
Y1688750*
X2038500Y1698750*
X2133500Y1601250D02*
Y1634411D01*
X2132250Y1635661*
Y1675589*
X2131000Y1676839*
Y1681250*
X2216000Y1613750D02*
Y1647984D01*
X2211000Y1652984*
Y1708750*
X1883500Y1691250D02*
X1878550Y1696200D01*
X1876050*
X1871000Y1701250*
X1898500Y1683750D02*
X1892212Y1690038D01*
Y1695902*
X1889314Y1698800*
X1883450*
X1878500Y1703750*
X1923500Y1653750D02*
Y1662500D01*
X1928500Y1667500*
Y1676250*
X2118500Y1683750D02*
X2098000Y1704250D01*
G54D31*
X1993500Y1491250D03*
X2136000Y1541250D03*
X2133500Y1508750D03*
X2163500Y1498750D03*
X2171000Y1501250D03*
X1823500Y1578750D03*
X1763500Y1646250D03*
X1826000Y1586250D03*
X1853500Y1613750D03*
X1843500Y1646250D03*
X1948500Y1613750D03*
X1976000Y1648750D03*
X1993500Y1586250D03*
X2046000Y1648750D03*
X2031000Y1581250D03*
X2093500Y1588750D03*
X2123500Y1621250D03*
X2151000Y1573750D03*
X2078500Y1638750D03*
X2133500Y1601250D03*
X2158500Y1618750D03*
X2216000Y1613750D03*
X2171000Y1593750D03*
X1771000Y1693750D03*
X1878500Y1703750D03*
X1883500Y1691250D03*
X1871000Y1701250D03*
X1953500Y1653750D03*
X1928500Y1676250D03*
X1923500Y1653750D03*
X2008500Y1668750D03*
X2038500Y1698750D03*
X2138500Y1666250D03*
X2126000Y1673750D03*
X2131000Y1681250D03*
X2233500Y1701250D03*
X2211000Y1708750D03*
X0Y0D02*
M02*
