%
T1C.035F0S0
X191Y201
X192Y201
X193Y201
X194Y201
X195Y201
X191Y204
X192Y204
X195Y204
X194Y204
X193Y204
X197Y204
X196Y204
X198Y204
X2Y204
X197Y201
X198Y201
X2Y201
X196Y201
X201Y201
X202Y201
X203Y201
X204Y201
X205Y201
X202Y204
X201Y204
X205Y204
X204Y204
X203Y204
X202Y209
X204Y209
X206Y209
X21Y209
X208Y209
X206Y204
X206Y201
X212Y209
X214Y209
X216Y209
X218Y209
X22Y209
X222Y209
X224Y209
X226Y209
X228Y209
X23Y209
X232Y209
X234Y209
X236Y209
X238Y198
X238Y197
X238Y193
X238Y192
T2C.037F0S0
X197Y192
X197Y19669
X1965Y1985
X19675Y19925
X1905Y20525
X19125Y21
X202Y211
X20125Y21075
X2025Y20975
X1985Y20525
X1995Y202
X20169Y19669
X20169Y192
X209Y202
X2065Y206
X2095Y206
X207Y20825
X215Y2075
X21175Y2055
X2135Y19925
X21725Y19875
X2135Y18975
X221Y191
X223Y191
X2235Y1995
X224Y201
X224Y202
X222Y2045
X21875Y2055
X218Y2105
X22725Y20875
X22675Y208
X228Y20725
X2265Y20275
X23Y2025
X2275Y20075
X22925Y198
X22775Y19475
X2275Y1915
X2305Y1905
X23125Y19075
X23125Y2
X23575Y202
X2375Y21075
X23525Y2115
T3C.04F0S0
X192Y197
X194Y197
X193Y198
T4C.05F0S0
X226Y1914
X226Y1946
X229Y1946
X232Y1946
X232Y1914
X229Y1914
T5C.06F0S0
X21Y201
X21Y203
X216Y203
X216Y201
T6C.062F0S0
X197Y206
X2Y206
T7C.085F0S0
X226Y19563
X229Y19563
X232Y19563
T8C.15F0S0
X193Y1905
M30
