*
*
G04 PADS 9.5 Build Number: 522968 generated Gerber (RS-274-X) file*
G04 PC Version=2.1*
*
%IN "PCBv2.pcb"*%
*
%MOIN*%
*
%FSLAX35Y35*%
*
*
*
*
G04 PC Standard Apertures*
*
*
G04 Thermal Relief Aperture macro.*
%AMTER*
1,1,$1,0,0*
1,0,$1-$2,0,0*
21,0,$3,$4,0,0,45*
21,0,$3,$4,0,0,135*
%
*
*
G04 Annular Aperture macro.*
%AMANN*
1,1,$1,0,0*
1,0,$2,0,0*
%
*
*
G04 Odd Aperture macro.*
%AMODD*
1,1,$1,0,0*
1,0,$1-0.005,0,0*
%
*
*
G04 PC Custom Aperture Macros*
*
*
*
*
*
*
G04 PC Aperture Table*
*
%ADD010C,0.001*%
%ADD030C,0.01*%
%ADD049C,0.005*%
%ADD050C,0.00787*%
*
*
*
*
G04 PC Circuitry*
G04 Layer Name PCBv2.pcb - circuitry*
%LPD*%
*
*
G04 PC Custom Flashes*
G04 Layer Name PCBv2.pcb - flashes*
%LPD*%
*
*
G04 PC Circuitry*
G04 Layer Name PCBv2.pcb - circuitry*
%LPD*%
*
G54D10*
G54D30*
G01X2146000Y1940000D02*
X2179000D01*
Y1973000*
X2146000*
Y1940000*
X2149000Y1971000D02*
G75*
G03X2149000I-1000J0D01*
G01X2272000Y2010000D02*
X2279000D01*
Y2022000*
X2272000*
Y2010000*
X2269000Y2024000D02*
G03X2269000I-1000J0D01*
G01X2284800Y2055400D02*
Y2048000D01*
X2295200*
Y2055400*
X2284800Y2064600D02*
Y2070500D01*
X2286300Y2072000*
X2293700*
X2295200Y2070500*
Y2064600*
X2354800Y2055400D02*
Y2048000D01*
X2365200*
Y2055400*
X2354800Y2064600D02*
Y2070500D01*
X2356300Y2072000*
X2363700*
X2365200Y2070500*
Y2064600*
X1905000Y2015000D02*
X1985000D01*
Y2035000*
X1905000*
Y2015000*
X2135500Y2085500D02*
Y2094500D01*
X2164500*
Y2085500*
X2135500*
X2255500D02*
Y2094500D01*
X2284500*
Y2085500*
X2255500*
X2314800Y2055400D02*
Y2048000D01*
X2325200*
Y2055400*
X2314800Y2064600D02*
Y2070500D01*
X2316300Y2072000*
X2323700*
X2325200Y2070500*
Y2064600*
X1955400Y2095200D02*
X1948000D01*
Y2084800*
X1955400*
X1964600Y2095200D02*
X1970500D01*
X1972000Y2093700*
Y2086300*
X1970500Y2084800*
X1964600*
X1924600D02*
X1932000D01*
Y2095200*
X1924600*
X1915400Y2084800D02*
X1909500D01*
X1908000Y2086300*
Y2093700*
X1909500Y2095200*
X1915400*
X2389000Y2023500D02*
G03X2371000I-9000J-3205D01*
G01Y2016500D02*
G03X2389000I9000J3205D01*
G01X2364945Y2030425D02*
Y2024800D01*
X2362900Y2027613D02*
X2366991D01*
X2295500Y2085500D02*
Y2094500D01*
X2324500*
Y2085500*
X2295500*
X1920000Y1962500D02*
Y1955000D01*
X1950000Y1920000D02*
X1910000D01*
X1950000Y1955000D02*
X1910000D01*
Y1895000*
X1950000*
Y1955000*
X1940000Y1962500D02*
Y1955000D01*
X1930000Y1972500D02*
Y1955000D01*
X2047000Y2064000D02*
X2044500D01*
Y2059000*
X2053000Y2064000D02*
X2055500D01*
Y2059000*
X2049500Y2055000D02*
X2050500D01*
X2215500Y2085500D02*
Y2094500D01*
X2244500*
Y2085500*
X2215500*
X1995000Y2015000D02*
X2065000D01*
Y2035000*
X1995000*
Y2015000*
X2175500Y2085500D02*
Y2094500D01*
X2204500*
Y2085500*
X2175500*
X1985400Y2095200D02*
X1978000D01*
Y2084800*
X1985400*
X1994600Y2095200D02*
X2000500D01*
X2002000Y2093700*
Y2086300*
X2000500Y2084800*
X1994600*
X2095500Y2085500D02*
Y2094500D01*
X2124500*
Y2085500*
X2095500*
X2104800Y2055400D02*
Y2048000D01*
X2115200*
Y2055400*
X2104800Y2064600D02*
Y2070500D01*
X2106300Y2072000*
X2113700*
X2115200Y2070500*
Y2064600*
X2144800Y2055400D02*
Y2048000D01*
X2155200*
Y2055400*
X2144800Y2064600D02*
Y2070500D01*
X2146300Y2072000*
X2153700*
X2155200Y2070500*
Y2064600*
X2174800Y2055400D02*
Y2048000D01*
X2185200*
Y2055400*
X2174800Y2064600D02*
Y2070500D01*
X2176300Y2072000*
X2183700*
X2185200Y2070500*
Y2064600*
X2214800Y2055400D02*
Y2048000D01*
X2225200*
Y2055400*
X2214800Y2064600D02*
Y2070500D01*
X2216300Y2072000*
X2223700*
X2225200Y2070500*
Y2064600*
X2015500Y2085500D02*
Y2094500D01*
X2044500*
Y2085500*
X2015500*
X2335500D02*
Y2094500D01*
X2364500*
Y2085500*
X2335500*
X2230000Y1920000D02*
Y1912500D01*
X2200000Y1920000D02*
X2240000D01*
Y1960000*
X2200000*
Y1920000*
X2210000D02*
Y1912500D01*
X2349000Y2023500D02*
G03X2331000I-9000J-3205D01*
G01Y2016500D02*
G03X2349000I9000J3205D01*
G01X2324945Y2030425D02*
Y2024800D01*
X2322900Y2027613D02*
X2326991D01*
X2309000Y2023500D02*
G03X2291000I-9000J-3205D01*
G01Y2016500D02*
G03X2309000I9000J3205D01*
G01X2284945Y2030425D02*
Y2024800D01*
X2282900Y2027613D02*
X2286991D01*
X2244800Y2055400D02*
Y2048000D01*
X2255200*
Y2055400*
X2244800Y2064600D02*
Y2070500D01*
X2246300Y2072000*
X2253700*
X2255200Y2070500*
Y2064600*
X2055500Y2085500D02*
Y2094500D01*
X2084500*
Y2085500*
X2055500*
X2075400Y2065200D02*
X2068000D01*
Y2054800*
X2075400*
X2084600Y2065200D02*
X2090500D01*
X2092000Y2063700*
Y2056300*
X2090500Y2054800*
X2084600*
X1940000Y2063000D02*
Y2057000D01*
X1946500Y2053250D02*
X1955000D01*
Y2066750*
X1946500*
X1949000Y2064950D02*
Y2055000D01*
X1927545Y2056125D02*
Y2050500D01*
X1925500Y2053313D02*
X1929591D01*
X1920000Y2057000D02*
Y2063000D01*
X1913500Y2066750D02*
X1905000D01*
Y2053250*
X1913500*
X1911000Y2055050D02*
Y2065000D01*
X1932455Y2063875D02*
Y2069500D01*
X1934500Y2066687D02*
X1930409D01*
X2393437Y1971591D02*
X2400000D01*
X2393437Y1970000D02*
Y1973182D01*
Y1975227D02*
X2400000Y1978409D01*
X2393437D02*
X2400000Y1975227D01*
X2394687Y1980455D02*
X2394375Y1980909D01*
X2393437Y1981591*
X2393437D02*
X2400000D01*
X2391437Y1918000D02*
X2398000D01*
X2391437D02*
Y1920045D01*
X2391437D02*
X2391750Y1920727D01*
X2392062Y1920955*
X2392062D02*
X2392687Y1921182D01*
X2392687D02*
X2393312D01*
X2393312D02*
X2393937Y1920955D01*
X2393937D02*
X2394250Y1920727D01*
X2394562Y1920045*
X2394562D02*
Y1918000D01*
Y1919591D02*
X2398000Y1921182D01*
X2391437Y1923227D02*
X2398000Y1926409D01*
X2391437D02*
X2398000Y1923227D01*
X2392687Y1928455D02*
X2392375Y1928909D01*
X2391437Y1929591*
X2391437D02*
X2398000D01*
X2267837Y2053000D02*
X2274400D01*
X2267837D02*
Y2055045D01*
X2267837D02*
X2268150Y2055727D01*
X2268462Y2055955*
X2268462D02*
X2269087Y2056182D01*
X2269087D02*
X2269712D01*
X2269712D02*
X2270337Y2055955D01*
X2270337D02*
X2270650Y2055727D01*
X2270962Y2055045*
X2270962D02*
Y2053000D01*
Y2054591D02*
X2274400Y2056182D01*
X2269087Y2058227D02*
X2268775Y2058682D01*
X2267837Y2059364*
X2267837D02*
X2274400D01*
X2337837Y2053000D02*
X2344400D01*
X2337837D02*
Y2055045D01*
X2337837D02*
X2338150Y2055727D01*
X2338462Y2055955*
X2338462D02*
X2339087Y2056182D01*
X2339087D02*
X2339712D01*
X2339712D02*
X2340337Y2055955D01*
X2340337D02*
X2340650Y2055727D01*
X2340962Y2055045*
X2340962D02*
Y2053000D01*
Y2054591D02*
X2344400Y2056182D01*
X2339400Y2058455D02*
X2339087D01*
X2339087D02*
X2338462Y2058682D01*
X2338462D02*
X2338150Y2058909D01*
X2337837Y2059364*
X2337837D02*
Y2060273D01*
X2337837D02*
X2338150Y2060727D01*
X2338462Y2060955*
X2338462D02*
X2339087Y2061182D01*
X2339087D02*
X2339712D01*
X2339712D02*
X2340337Y2060955D01*
X2340337D02*
X2341275Y2060500D01*
X2344400Y2058227*
Y2061409*
X1935000Y2034063D02*
Y2029375D01*
X1935227Y2028438*
X1935227D02*
X1935682Y2027813D01*
X1935682D02*
X1936364Y2027500D01*
X1936818*
X1937500Y2027813*
X1937500D02*
X1937955Y2028438D01*
X1937955D02*
X1938182Y2029375D01*
Y2034063*
X1940682D02*
X1943182D01*
X1943182D02*
X1941818Y2031563D01*
X1941818D02*
X1942500D01*
X1942500D02*
X1942955Y2031250D01*
X1943182Y2030938*
X1943182D02*
X1943409Y2030000D01*
Y2029375*
X1943182Y2028438*
X1943182D02*
X1942727Y2027813D01*
X1942727D02*
X1942045Y2027500D01*
X1941364*
X1940682Y2027813*
X1940682D02*
X1940455Y2028125D01*
X1940227Y2028750*
X2146909Y2082500D02*
X2146682Y2083125D01*
X2146227Y2083750*
X2145773Y2084063*
X2145773D02*
X2144864D01*
X2144864D02*
X2144409Y2083750D01*
X2143955Y2083125*
X2143727Y2082500*
X2143500Y2081563*
X2143500D02*
Y2080000D01*
X2143727Y2079063*
X2143727D02*
X2143955Y2078438D01*
X2143955D02*
X2144409Y2077813D01*
X2144409D02*
X2144864Y2077500D01*
X2145773*
X2146227Y2077813*
X2146227D02*
X2146682Y2078438D01*
X2146682D02*
X2146909Y2079063D01*
X2148955Y2082813D02*
X2149409Y2083125D01*
X2150091Y2084063*
X2150091D02*
Y2077500D01*
X2266909Y2082500D02*
X2266682Y2083125D01*
X2266227Y2083750*
X2265773Y2084063*
X2265773D02*
X2264864D01*
X2264864D02*
X2264409Y2083750D01*
X2263955Y2083125*
X2263727Y2082500*
X2263500Y2081563*
X2263500D02*
Y2080000D01*
X2263727Y2079063*
X2263727D02*
X2263955Y2078438D01*
X2263955D02*
X2264409Y2077813D01*
X2264409D02*
X2264864Y2077500D01*
X2265773*
X2266227Y2077813*
X2266227D02*
X2266682Y2078438D01*
X2266682D02*
X2266909Y2079063D01*
X2269182Y2082500D02*
Y2082813D01*
X2269182D02*
X2269409Y2083438D01*
X2269409D02*
X2269636Y2083750D01*
X2270091Y2084063*
X2270091D02*
X2271000D01*
X2271000D02*
X2271455Y2083750D01*
X2271682Y2083438*
X2271682D02*
X2271909Y2082813D01*
X2271909D02*
Y2082188D01*
X2271909D02*
X2271682Y2081563D01*
X2271682D02*
X2271227Y2080625D01*
X2268955Y2077500*
X2272136*
X2297837Y2053000D02*
X2304400D01*
X2297837D02*
Y2055045D01*
X2297837D02*
X2298150Y2055727D01*
X2298462Y2055955*
X2298462D02*
X2299087Y2056182D01*
X2299087D02*
X2299712D01*
X2299712D02*
X2300337Y2055955D01*
X2300337D02*
X2300650Y2055727D01*
X2300962Y2055045*
X2300962D02*
Y2053000D01*
Y2054591D02*
X2304400Y2056182D01*
X2297837Y2058682D02*
Y2061182D01*
X2297837D02*
X2300337Y2059818D01*
X2300337D02*
Y2060500D01*
X2300337D02*
X2300650Y2060955D01*
X2300962Y2061182*
X2300962D02*
X2301900Y2061409D01*
X2302525*
X2303462Y2061182*
X2303462D02*
X2304087Y2060727D01*
X2304087D02*
X2304400Y2060045D01*
Y2059364*
X2304087Y2058682*
X2304087D02*
X2303775Y2058455D01*
X2303150Y2058227*
X1960000Y2106563D02*
Y2100000D01*
Y2106563D02*
X1962045D01*
X1962045D02*
X1962727Y2106250D01*
X1962955Y2105938*
X1962955D02*
X1963182Y2105313D01*
X1963182D02*
Y2104688D01*
X1963182D02*
X1962955Y2104063D01*
X1962955D02*
X1962727Y2103750D01*
X1962045Y2103438*
X1962045D02*
X1960000D01*
X1961591D02*
X1963182Y2100000D01*
X1967500Y2106563D02*
X1965227Y2102188D01*
X1965227D02*
X1968636D01*
X1967500Y2106563D02*
Y2100000D01*
X1927000Y2067837D02*
Y2074400D01*
Y2067837D02*
X1924955D01*
X1924955D02*
X1924273Y2068150D01*
X1924045Y2068462*
X1924045D02*
X1923818Y2069087D01*
X1923818D02*
Y2069712D01*
X1923818D02*
X1924045Y2070337D01*
X1924045D02*
X1924273Y2070650D01*
X1924955Y2070962*
X1924955D02*
X1927000D01*
X1925409D02*
X1923818Y2074400D01*
X1918818Y2067837D02*
X1921091D01*
X1921091D02*
X1921318Y2070650D01*
X1921091Y2070337*
X1921091D02*
X1920409Y2070025D01*
X1919727*
X1919045Y2070337*
X1919045D02*
X1918591Y2070962D01*
X1918591D02*
X1918364Y2071900D01*
X1918591Y2072525*
X1918818Y2073462*
X1918818D02*
X1919273Y2074087D01*
X1919273D02*
X1919955Y2074400D01*
X1920636*
X1921318Y2074087*
X1921318D02*
X1921545Y2073775D01*
X1921773Y2073150*
X2376809Y2044300D02*
X2376582Y2044925D01*
X2376127Y2045550*
X2375673Y2045863*
X2375673D02*
X2374764D01*
X2374764D02*
X2374309Y2045550D01*
X2373855Y2044925*
X2373627Y2044300*
X2373400Y2043363*
X2373400D02*
Y2041800D01*
X2373627Y2040863*
X2373627D02*
X2373855Y2040238D01*
X2373855D02*
X2374309Y2039613D01*
X2374309D02*
X2374764Y2039300D01*
X2375673*
X2376127Y2039613*
X2376127D02*
X2376582Y2040238D01*
X2376582D02*
X2376809Y2040863D01*
X2379309Y2045863D02*
X2381809D01*
X2381809D02*
X2380445Y2043363D01*
X2380445D02*
X2381127D01*
X2381127D02*
X2381582Y2043050D01*
X2381809Y2042738*
X2381809D02*
X2382036Y2041800D01*
Y2041175*
X2381809Y2040238*
X2381809D02*
X2381355Y2039613D01*
X2381355D02*
X2380673Y2039300D01*
X2379991*
X2379309Y2039613*
X2379309D02*
X2379082Y2039925D01*
X2378855Y2040550*
X2306909Y2082500D02*
X2306682Y2083125D01*
X2306227Y2083750*
X2305773Y2084063*
X2305773D02*
X2304864D01*
X2304864D02*
X2304409Y2083750D01*
X2303955Y2083125*
X2303727Y2082500*
X2303500Y2081563*
X2303500D02*
Y2080000D01*
X2303727Y2079063*
X2303727D02*
X2303955Y2078438D01*
X2303955D02*
X2304409Y2077813D01*
X2304409D02*
X2304864Y2077500D01*
X2305773*
X2306227Y2077813*
X2306227D02*
X2306682Y2078438D01*
X2306682D02*
X2306909Y2079063D01*
X2311227Y2084063D02*
X2308955Y2079688D01*
X2308955D02*
X2312364D01*
X2311227Y2084063D02*
Y2077500D01*
X1953437Y1941591D02*
X1960000D01*
X1953437Y1940000D02*
Y1943182D01*
X1954687Y1945227D02*
X1954375Y1945682D01*
X1953437Y1946364*
X1953437D02*
X1960000D01*
X1937500Y1886563D02*
Y1881875D01*
X1937727Y1880938*
X1937727D02*
X1938182Y1880313D01*
X1938182D02*
X1938864Y1880000D01*
X1939318*
X1940000Y1880313*
X1940000D02*
X1940455Y1880938D01*
X1940455D02*
X1940682Y1881875D01*
Y1886563*
X1945000D02*
X1942727Y1882188D01*
X1942727D02*
X1946136D01*
X1945000Y1886563D02*
Y1880000D01*
X2045364Y2087463D02*
X2044909Y2087150D01*
X2044455Y2086525*
X2044227Y2085900*
X2044000Y2084963*
X2044000D02*
Y2083400D01*
X2044227Y2082463*
X2044227D02*
X2044455Y2081838D01*
X2044455D02*
X2044909Y2081213D01*
X2044909D02*
X2045364Y2080900D01*
X2046273*
X2046727Y2081213*
X2046727D02*
X2047182Y2081838D01*
X2047182D02*
X2047409Y2082463D01*
X2047409D02*
X2047636Y2083400D01*
Y2084963*
X2047636D02*
X2047409Y2085900D01*
X2047182Y2086525*
X2046727Y2087150*
X2046273Y2087463*
X2046273D02*
X2045364D01*
X2046045Y2082150D02*
X2047409Y2080275D01*
X2049909Y2085900D02*
Y2086213D01*
X2049909D02*
X2050136Y2086838D01*
X2050136D02*
X2050364Y2087150D01*
X2050818Y2087463*
X2050818D02*
X2051727D01*
X2051727D02*
X2052182Y2087150D01*
X2052409Y2086838*
X2052409D02*
X2052636Y2086213D01*
X2052636D02*
Y2085588D01*
X2052636D02*
X2052409Y2084963D01*
X2052409D02*
X2051955Y2084025D01*
X2049682Y2080900*
X2052864*
X2226909Y2082500D02*
X2226682Y2083125D01*
X2226227Y2083750*
X2225773Y2084063*
X2225773D02*
X2224864D01*
X2224864D02*
X2224409Y2083750D01*
X2223955Y2083125*
X2223727Y2082500*
X2223500Y2081563*
X2223500D02*
Y2080000D01*
X2223727Y2079063*
X2223727D02*
X2223955Y2078438D01*
X2223955D02*
X2224409Y2077813D01*
X2224409D02*
X2224864Y2077500D01*
X2225773*
X2226227Y2077813*
X2226227D02*
X2226682Y2078438D01*
X2226682D02*
X2226909Y2079063D01*
X2231909Y2084063D02*
X2229636D01*
X2229636D02*
X2229409Y2081250D01*
X2229636Y2081563*
X2229636D02*
X2230318Y2081875D01*
X2231000*
X2231682Y2081563*
X2231682D02*
X2232136Y2080938D01*
X2232136D02*
X2232364Y2080000D01*
X2232136Y2079375*
X2231909Y2078438*
X2231909D02*
X2231455Y2077813D01*
X2231455D02*
X2230773Y2077500D01*
X2230091*
X2229409Y2077813*
X2229409D02*
X2229182Y2078125D01*
X2228955Y2078750*
X1980273Y2058563D02*
Y2053563D01*
X1980273D02*
X1980045Y2052625D01*
X1979818Y2052313*
X1979818D02*
X1979364Y2052000D01*
X1978909*
X1978455Y2052313*
X1978455D02*
X1978227Y2052625D01*
X1978000Y2053563*
X1978000D02*
Y2054188D01*
X1982545Y2057000D02*
Y2057313D01*
X1982545D02*
X1982773Y2057938D01*
X1982773D02*
X1983000Y2058250D01*
X1983455Y2058563*
X1983455D02*
X1984364D01*
X1984364D02*
X1984818Y2058250D01*
X1985045Y2057938*
X1985045D02*
X1985273Y2057313D01*
X1985273D02*
Y2056688D01*
X1985273D02*
X1985045Y2056063D01*
X1985045D02*
X1984591Y2055125D01*
X1982318Y2052000*
X1985500*
X2022500Y2034063D02*
Y2029375D01*
X2022727Y2028438*
X2022727D02*
X2023182Y2027813D01*
X2023182D02*
X2023864Y2027500D01*
X2024318*
X2025000Y2027813*
X2025000D02*
X2025455Y2028438D01*
X2025455D02*
X2025682Y2029375D01*
Y2034063*
X2030682D02*
X2028409D01*
X2028409D02*
X2028182Y2031250D01*
X2028409Y2031563*
X2028409D02*
X2029091Y2031875D01*
X2029773*
X2030455Y2031563*
X2030455D02*
X2030909Y2030938D01*
X2030909D02*
X2031136Y2030000D01*
X2030909Y2029375*
X2030682Y2028438*
X2030682D02*
X2030227Y2027813D01*
X2030227D02*
X2029545Y2027500D01*
X2028864*
X2028182Y2027813*
X2028182D02*
X2027955Y2028125D01*
X2027727Y2028750*
X2024091Y2054863D02*
Y2048300D01*
X2022500Y2054863D02*
X2025682D01*
X2027727D02*
Y2048300D01*
X2030455*
X2032500Y2054863D02*
X2034318Y2048300D01*
X2036136Y2054863D02*
X2034318Y2048300D01*
X2038182Y2053613D02*
X2038636Y2053925D01*
X2039318Y2054863*
X2039318D02*
Y2048300D01*
X2186909Y2082500D02*
X2186682Y2083125D01*
X2186227Y2083750*
X2185773Y2084063*
X2185773D02*
X2184864D01*
X2184864D02*
X2184409Y2083750D01*
X2183955Y2083125*
X2183727Y2082500*
X2183500Y2081563*
X2183500D02*
Y2080000D01*
X2183727Y2079063*
X2183727D02*
X2183955Y2078438D01*
X2183955D02*
X2184409Y2077813D01*
X2184409D02*
X2184864Y2077500D01*
X2185773*
X2186227Y2077813*
X2186227D02*
X2186682Y2078438D01*
X2186682D02*
X2186909Y2079063D01*
X2192136Y2084063D02*
X2189864Y2077500D01*
X2188955Y2084063D02*
X2192136D01*
X1990000Y2106563D02*
Y2100000D01*
Y2106563D02*
X1992045D01*
X1992045D02*
X1992727Y2106250D01*
X1992955Y2105938*
X1992955D02*
X1993182Y2105313D01*
X1993182D02*
Y2104688D01*
X1993182D02*
X1992955Y2104063D01*
X1992955D02*
X1992727Y2103750D01*
X1992045Y2103438*
X1992045D02*
X1990000D01*
X1991591D02*
X1993182Y2100000D01*
X1997955Y2105625D02*
X1997727Y2106250D01*
X1997045Y2106563*
X1997045D02*
X1996591D01*
X1996591D02*
X1995909Y2106250D01*
X1995455Y2105313*
X1995455D02*
X1995227Y2103750D01*
Y2102188*
X1995227D02*
X1995455Y2100938D01*
X1995455D02*
X1995909Y2100313D01*
X1995909D02*
X1996591Y2100000D01*
X1996818*
X1997500Y2100313*
X1997500D02*
X1997955Y2100938D01*
X1997955D02*
X1998182Y2101875D01*
Y2102188*
X1998182D02*
X1997955Y2103125D01*
X1997500Y2103750*
X1996818Y2104063*
X1996818D02*
X1996591D01*
X1996591D02*
X1995909Y2103750D01*
X1995455Y2103125*
X1995227Y2102188*
X2106909Y2082500D02*
X2106682Y2083125D01*
X2106227Y2083750*
X2105773Y2084063*
X2105773D02*
X2104864D01*
X2104864D02*
X2104409Y2083750D01*
X2103955Y2083125*
X2103727Y2082500*
X2103500Y2081563*
X2103500D02*
Y2080000D01*
X2103727Y2079063*
X2103727D02*
X2103955Y2078438D01*
X2103955D02*
X2104409Y2077813D01*
X2104409D02*
X2104864Y2077500D01*
X2105773*
X2106227Y2077813*
X2106227D02*
X2106682Y2078438D01*
X2106682D02*
X2106909Y2079063D01*
X2111909Y2081875D02*
X2111682Y2080938D01*
X2111682D02*
X2111227Y2080313D01*
X2111227D02*
X2110545Y2080000D01*
X2110318*
X2109636Y2080313*
X2109636D02*
X2109182Y2080938D01*
X2109182D02*
X2108955Y2081875D01*
Y2082188*
X2108955D02*
X2109182Y2083125D01*
X2109636Y2083750*
X2110318Y2084063*
X2110318D02*
X2110545D01*
X2110545D02*
X2111227Y2083750D01*
X2111682Y2083125*
X2111909Y2081875*
Y2080313*
X2111909D02*
X2111682Y2078750D01*
X2111227Y2077813*
X2111227D02*
X2110545Y2077500D01*
X2110091*
X2109409Y2077813*
X2109409D02*
X2109182Y2078438D01*
X2087837Y2053000D02*
X2094400D01*
X2087837D02*
Y2055045D01*
X2087837D02*
X2088150Y2055727D01*
X2088462Y2055955*
X2088462D02*
X2089087Y2056182D01*
X2089087D02*
X2089712D01*
X2089712D02*
X2090337Y2055955D01*
X2090337D02*
X2090650Y2055727D01*
X2090962Y2055045*
X2090962D02*
Y2053000D01*
Y2054591D02*
X2094400Y2056182D01*
X2087837Y2061409D02*
X2094400Y2059136D01*
X2087837Y2058227D02*
Y2061409D01*
X2127837Y2053000D02*
X2134400D01*
X2127837D02*
Y2055045D01*
X2127837D02*
X2128150Y2055727D01*
X2128462Y2055955*
X2128462D02*
X2129087Y2056182D01*
X2129087D02*
X2129712D01*
X2129712D02*
X2130337Y2055955D01*
X2130337D02*
X2130650Y2055727D01*
X2130962Y2055045*
X2130962D02*
Y2053000D01*
Y2054591D02*
X2134400Y2056182D01*
X2127837Y2059364D02*
X2128150Y2058682D01*
X2128775Y2058455*
X2129400*
X2130025Y2058682*
X2130337Y2059136*
X2130337D02*
X2130650Y2060045D01*
X2130962Y2060727*
X2130962D02*
X2131587Y2061182D01*
X2131587D02*
X2132212Y2061409D01*
X2132212D02*
X2133150D01*
X2133775Y2061182*
X2134087Y2060955*
X2134087D02*
X2134400Y2060273D01*
Y2059364*
X2134087Y2058682*
X2134087D02*
X2133775Y2058455D01*
X2133150Y2058227*
X2132212*
X2132212D02*
X2131587Y2058455D01*
X2131587D02*
X2130962Y2058909D01*
X2130962D02*
X2130650Y2059591D01*
X2130337Y2060500*
X2130337D02*
X2130025Y2060955D01*
X2129400Y2061182*
X2128775*
X2128150Y2060955*
X2127837Y2060273*
X2127837D02*
Y2059364D01*
X2157837Y2053000D02*
X2164400D01*
X2157837D02*
Y2055045D01*
X2157837D02*
X2158150Y2055727D01*
X2158462Y2055955*
X2158462D02*
X2159087Y2056182D01*
X2159087D02*
X2159712D01*
X2159712D02*
X2160337Y2055955D01*
X2160337D02*
X2160650Y2055727D01*
X2160962Y2055045*
X2160962D02*
Y2053000D01*
Y2054591D02*
X2164400Y2056182D01*
X2160025Y2061182D02*
X2160962Y2060955D01*
X2160962D02*
X2161587Y2060500D01*
X2161587D02*
X2161900Y2059818D01*
Y2059591*
X2161587Y2058909*
X2161587D02*
X2160962Y2058455D01*
X2160962D02*
X2160025Y2058227D01*
X2159712*
X2159712D02*
X2158775Y2058455D01*
X2158150Y2058909*
X2157837Y2059591*
X2157837D02*
Y2059818D01*
X2157837D02*
X2158150Y2060500D01*
X2158775Y2060955*
X2160025Y2061182*
X2161587*
X2161587D02*
X2163150Y2060955D01*
X2164087Y2060500*
X2164087D02*
X2164400Y2059818D01*
Y2059364*
X2164087Y2058682*
X2164087D02*
X2163462Y2058455D01*
X2197837Y2053000D02*
X2204400D01*
X2197837D02*
Y2055045D01*
X2197837D02*
X2198150Y2055727D01*
X2198462Y2055955*
X2198462D02*
X2199087Y2056182D01*
X2199087D02*
X2199712D01*
X2199712D02*
X2200337Y2055955D01*
X2200337D02*
X2200650Y2055727D01*
X2200962Y2055045*
X2200962D02*
Y2053000D01*
Y2054591D02*
X2204400Y2056182D01*
X2199087Y2058227D02*
X2198775Y2058682D01*
X2197837Y2059364*
X2197837D02*
X2204400D01*
X2197837Y2062773D02*
X2198150Y2062091D01*
X2199087Y2061636*
X2199087D02*
X2200650Y2061409D01*
X2201587*
X2201587D02*
X2203150Y2061636D01*
X2204087Y2062091*
X2204087D02*
X2204400Y2062773D01*
Y2063227*
X2204087Y2063909*
X2204087D02*
X2203150Y2064364D01*
X2201587Y2064591*
X2201587D02*
X2200650D01*
X2199087Y2064364*
X2199087D02*
X2198150Y2063909D01*
X2197837Y2063227*
X2197837D02*
Y2062773D01*
X2026909Y2082500D02*
X2026682Y2083125D01*
X2026227Y2083750*
X2025773Y2084063*
X2025773D02*
X2024864D01*
X2024864D02*
X2024409Y2083750D01*
X2023955Y2083125*
X2023727Y2082500*
X2023500Y2081563*
X2023500D02*
Y2080000D01*
X2023727Y2079063*
X2023727D02*
X2023955Y2078438D01*
X2023955D02*
X2024409Y2077813D01*
X2024409D02*
X2024864Y2077500D01*
X2025773*
X2026227Y2077813*
X2026227D02*
X2026682Y2078438D01*
X2026682D02*
X2026909Y2079063D01*
X2028955Y2082813D02*
X2029409Y2083125D01*
X2030091Y2084063*
X2030091D02*
Y2077500D01*
X2033500Y2084063D02*
X2032818Y2083750D01*
X2032364Y2082813*
X2032364D02*
X2032136Y2081250D01*
Y2080313*
X2032136D02*
X2032364Y2078750D01*
X2032818Y2077813*
X2032818D02*
X2033500Y2077500D01*
X2033955*
X2034636Y2077813*
X2034636D02*
X2035091Y2078750D01*
X2035318Y2080313*
X2035318D02*
Y2081250D01*
X2035091Y2082813*
X2035091D02*
X2034636Y2083750D01*
X2033955Y2084063*
X2033955D02*
X2033500D01*
X2346909Y2082500D02*
X2346682Y2083125D01*
X2346227Y2083750*
X2345773Y2084063*
X2345773D02*
X2344864D01*
X2344864D02*
X2344409Y2083750D01*
X2343955Y2083125*
X2343727Y2082500*
X2343500Y2081563*
X2343500D02*
Y2080000D01*
X2343727Y2079063*
X2343727D02*
X2343955Y2078438D01*
X2343955D02*
X2344409Y2077813D01*
X2344409D02*
X2344864Y2077500D01*
X2345773*
X2346227Y2077813*
X2346227D02*
X2346682Y2078438D01*
X2346682D02*
X2346909Y2079063D01*
X2348955Y2082813D02*
X2349409Y2083125D01*
X2350091Y2084063*
X2350091D02*
Y2077500D01*
X2352136Y2082813D02*
X2352591Y2083125D01*
X2353273Y2084063*
X2353273D02*
Y2077500D01*
X2210000Y1946563D02*
X2211818Y1943438D01*
X2211818D02*
Y1940000D01*
X2213636Y1946563D02*
X2211818Y1943438D01*
X2215682Y1945313D02*
X2216136Y1945625D01*
X2216818Y1946563*
X2216818D02*
Y1940000D01*
X2336809Y2044300D02*
X2336582Y2044925D01*
X2336127Y2045550*
X2335673Y2045863*
X2335673D02*
X2334764D01*
X2334764D02*
X2334309Y2045550D01*
X2333855Y2044925*
X2333627Y2044300*
X2333400Y2043363*
X2333400D02*
Y2041800D01*
X2333627Y2040863*
X2333627D02*
X2333855Y2040238D01*
X2333855D02*
X2334309Y2039613D01*
X2334309D02*
X2334764Y2039300D01*
X2335673*
X2336127Y2039613*
X2336127D02*
X2336582Y2040238D01*
X2336582D02*
X2336809Y2040863D01*
X2338855Y2044613D02*
X2339309Y2044925D01*
X2339991Y2045863*
X2339991D02*
Y2039300D01*
X2342264Y2044300D02*
Y2044613D01*
X2342264D02*
X2342491Y2045238D01*
X2342491D02*
X2342718Y2045550D01*
X2343173Y2045863*
X2343173D02*
X2344082D01*
X2344082D02*
X2344536Y2045550D01*
X2344764Y2045238*
X2344764D02*
X2344991Y2044613D01*
X2344991D02*
Y2043988D01*
X2344991D02*
X2344764Y2043363D01*
X2344764D02*
X2344309Y2042425D01*
X2342036Y2039300*
X2345218*
X2296809Y2044300D02*
X2296582Y2044925D01*
X2296127Y2045550*
X2295673Y2045863*
X2295673D02*
X2294764D01*
X2294764D02*
X2294309Y2045550D01*
X2293855Y2044925*
X2293627Y2044300*
X2293400Y2043363*
X2293400D02*
Y2041800D01*
X2293627Y2040863*
X2293627D02*
X2293855Y2040238D01*
X2293855D02*
X2294309Y2039613D01*
X2294309D02*
X2294764Y2039300D01*
X2295673*
X2296127Y2039613*
X2296127D02*
X2296582Y2040238D01*
X2296582D02*
X2296809Y2040863D01*
X2298855Y2044613D02*
X2299309Y2044925D01*
X2299991Y2045863*
X2299991D02*
Y2039300D01*
X2302491Y2045863D02*
X2304991D01*
X2304991D02*
X2303627Y2043363D01*
X2303627D02*
X2304309D01*
X2304309D02*
X2304764Y2043050D01*
X2304991Y2042738*
X2304991D02*
X2305218Y2041800D01*
Y2041175*
X2304991Y2040238*
X2304991D02*
X2304536Y2039613D01*
X2304536D02*
X2303855Y2039300D01*
X2303173*
X2302491Y2039613*
X2302491D02*
X2302264Y2039925D01*
X2302036Y2040550*
X2284773Y1909063D02*
Y1904063D01*
X2284773D02*
X2284545Y1903125D01*
X2284318Y1902813*
X2284318D02*
X2283864Y1902500D01*
X2283409*
X2282955Y1902813*
X2282955D02*
X2282727Y1903125D01*
X2282500Y1904063*
X2282500D02*
Y1904688D01*
X2286818Y1907813D02*
X2287273Y1908125D01*
X2287955Y1909063*
X2287955D02*
Y1902500D01*
X2227837Y2053000D02*
X2234400D01*
X2227837D02*
Y2055045D01*
X2227837D02*
X2228150Y2055727D01*
X2228462Y2055955*
X2228462D02*
X2229087Y2056182D01*
X2229087D02*
X2229712D01*
X2229712D02*
X2230337Y2055955D01*
X2230337D02*
X2230650Y2055727D01*
X2230962Y2055045*
X2230962D02*
Y2053000D01*
Y2054591D02*
X2234400Y2056182D01*
X2229087Y2058227D02*
X2228775Y2058682D01*
X2227837Y2059364*
X2227837D02*
X2234400D01*
X2229087Y2061409D02*
X2228775Y2061864D01*
X2227837Y2062545*
X2227837D02*
X2234400D01*
X2066909Y2082500D02*
X2066682Y2083125D01*
X2066227Y2083750*
X2065773Y2084063*
X2065773D02*
X2064864D01*
X2064864D02*
X2064409Y2083750D01*
X2063955Y2083125*
X2063727Y2082500*
X2063500Y2081563*
X2063500D02*
Y2080000D01*
X2063727Y2079063*
X2063727D02*
X2063955Y2078438D01*
X2063955D02*
X2064409Y2077813D01*
X2064409D02*
X2064864Y2077500D01*
X2065773*
X2066227Y2077813*
X2066227D02*
X2066682Y2078438D01*
X2066682D02*
X2066909Y2079063D01*
X2068955Y2082813D02*
X2069409Y2083125D01*
X2070091Y2084063*
X2070091D02*
Y2077500D01*
X2074409Y2084063D02*
X2072136Y2079688D01*
X2072136D02*
X2075545D01*
X2074409Y2084063D02*
Y2077500D01*
X2255000Y2021563D02*
Y2015000D01*
Y2021563D02*
X2256591D01*
X2256591D02*
X2257273Y2021250D01*
X2257727Y2020625*
X2257955Y2020000*
X2258182Y2019063*
X2258182D02*
Y2017500D01*
X2257955Y2016563*
X2257955D02*
X2257727Y2015938D01*
X2257727D02*
X2257273Y2015313D01*
X2257273D02*
X2256591Y2015000D01*
X2255000*
X2260682Y2021563D02*
X2263182D01*
X2263182D02*
X2261818Y2019063D01*
X2261818D02*
X2262500D01*
X2262500D02*
X2262955Y2018750D01*
X2263182Y2018438*
X2263182D02*
X2263409Y2017500D01*
Y2016875*
X2263182Y2015938*
X2263182D02*
X2262727Y2015313D01*
X2262727D02*
X2262045Y2015000D01*
X2261364*
X2260682Y2015313*
X2260682D02*
X2260455Y2015625D01*
X2260227Y2016250*
X2073000Y2082163D02*
Y2075600D01*
Y2082163D02*
X2075045D01*
X2075045D02*
X2075727Y2081850D01*
X2075955Y2081538*
X2075955D02*
X2076182Y2080913D01*
X2076182D02*
Y2080288D01*
X2076182D02*
X2075955Y2079663D01*
X2075955D02*
X2075727Y2079350D01*
X2075045Y2079038*
X2075045D02*
X2073000D01*
X2074591D02*
X2076182Y2075600D01*
X2078227Y2080913D02*
X2078682Y2081225D01*
X2079364Y2082163*
X2079364D02*
Y2075600D01*
X2081636Y2080600D02*
Y2080913D01*
X2081636D02*
X2081864Y2081538D01*
X2081864D02*
X2082091Y2081850D01*
X2082545Y2082163*
X2082545D02*
X2083455D01*
X2083455D02*
X2083909Y2081850D01*
X2084136Y2081538*
X2084136D02*
X2084364Y2080913D01*
X2084364D02*
Y2080288D01*
X2084364D02*
X2084136Y2079663D01*
X2084136D02*
X2083682Y2078725D01*
X2081409Y2075600*
X2084591*
X2125000Y2036563D02*
Y2030000D01*
Y2036563D02*
X2127955D01*
X2125000Y2033438D02*
X2126818D01*
X2130227Y2035000D02*
Y2035313D01*
X2130227D02*
X2130455Y2035938D01*
X2130455D02*
X2130682Y2036250D01*
X2131136Y2036563*
X2131136D02*
X2132045D01*
X2132045D02*
X2132500Y2036250D01*
X2132727Y2035938*
X2132727D02*
X2132955Y2035313D01*
X2132955D02*
Y2034688D01*
X2132955D02*
X2132727Y2034063D01*
X2132727D02*
X2132273Y2033125D01*
X2130000Y2030000*
X2133182*
X1937109Y2088000D02*
X1936882Y2088625D01*
X1936427Y2089250*
X1935973Y2089563*
X1935973D02*
X1935064D01*
X1935064D02*
X1934609Y2089250D01*
X1934155Y2088625*
X1933927Y2088000*
X1933700Y2087063*
X1933700D02*
Y2085500D01*
X1933927Y2084563*
X1933927D02*
X1934155Y2083938D01*
X1934155D02*
X1934609Y2083313D01*
X1934609D02*
X1935064Y2083000D01*
X1935973*
X1936427Y2083313*
X1936427D02*
X1936882Y2083938D01*
X1936882D02*
X1937109Y2084563D01*
X1939155Y2088313D02*
X1939609Y2088625D01*
X1940291Y2089563*
X1940291D02*
Y2083000D01*
X1945064Y2088625D02*
X1944836Y2089250D01*
X1944155Y2089563*
X1944155D02*
X1943700D01*
X1943700D02*
X1943018Y2089250D01*
X1942564Y2088313*
X1942564D02*
X1942336Y2086750D01*
Y2085188*
X1942336D02*
X1942564Y2083938D01*
X1942564D02*
X1943018Y2083313D01*
X1943018D02*
X1943700Y2083000D01*
X1943927*
X1944609Y2083313*
X1944609D02*
X1945064Y2083938D01*
X1945064D02*
X1945291Y2084875D01*
Y2085188*
X1945291D02*
X1945064Y2086125D01*
X1944609Y2086750*
X1943927Y2087063*
X1943927D02*
X1943700D01*
X1943700D02*
X1943018Y2086750D01*
X1942564Y2086125*
X1942336Y2085188*
X1922891Y2032000D02*
X1923118Y2031375D01*
X1923573Y2030750*
X1924027Y2030437*
X1924027D02*
X1924936D01*
X1924936D02*
X1925391Y2030750D01*
X1925845Y2031375*
X1926073Y2032000*
X1926300Y2032937*
X1926300D02*
Y2034500D01*
X1926073Y2035437*
X1926073D02*
X1925845Y2036062D01*
X1925845D02*
X1925391Y2036687D01*
X1925391D02*
X1924936Y2037000D01*
X1924027*
X1923573Y2036687*
X1923573D02*
X1923118Y2036062D01*
X1923118D02*
X1922891Y2035437D01*
X1920845Y2031687D02*
X1920391Y2031375D01*
X1919709Y2030437*
X1919709D02*
Y2037000D01*
X1914482Y2030437D02*
X1916755Y2037000D01*
X1917664Y2030437D02*
X1914482D01*
X2314773Y1909063D02*
Y1904063D01*
X2314773D02*
X2314545Y1903125D01*
X2314318Y1902813*
X2314318D02*
X2313864Y1902500D01*
X2313409*
X2312955Y1902813*
X2312955D02*
X2312727Y1903125D01*
X2312500Y1904063*
X2312500D02*
Y1904688D01*
X2319091Y1909063D02*
X2316818Y1904688D01*
X2316818D02*
X2320227D01*
X2319091Y1909063D02*
Y1902500D01*
X2254773Y1909063D02*
Y1904063D01*
X2254773D02*
X2254545Y1903125D01*
X2254318Y1902813*
X2254318D02*
X2253864Y1902500D01*
X2253409*
X2252955Y1902813*
X2252955D02*
X2252727Y1903125D01*
X2252500Y1904063*
X2252500D02*
Y1904688D01*
X2259773Y1909063D02*
X2257500D01*
X2257500D02*
X2257273Y1906250D01*
X2257500Y1906563*
X2257500D02*
X2258182Y1906875D01*
X2258864*
X2259545Y1906563*
X2259545D02*
X2260000Y1905938D01*
X2260000D02*
X2260227Y1905000D01*
X2260000Y1904375*
X2259773Y1903438*
X2259773D02*
X2259318Y1902813D01*
X2259318D02*
X2258636Y1902500D01*
X2257955*
X2257273Y1902813*
X2257273D02*
X2257045Y1903125D01*
X2256818Y1903750*
X2399250Y1969591D02*
X2405812D01*
X2399250Y1968000D02*
Y1971182D01*
Y1973227D02*
X2405812Y1976409D01*
X2399250D02*
X2405812Y1973227D01*
X2399250Y1919591D02*
X2405812D01*
X2399250Y1918000D02*
Y1921182D01*
Y1923227D02*
X2405812Y1926409D01*
X2399250D02*
X2405812Y1923227D01*
X2275650Y2053000D02*
X2282212D01*
X2275650D02*
Y2055045D01*
X2275962Y2055727*
X2275962D02*
X2276275Y2055955D01*
X2276900Y2056182*
X2277525*
X2278150Y2055955*
X2278462Y2055727*
X2278462D02*
X2278775Y2055045D01*
Y2053000*
Y2054591D02*
X2282212Y2056182D01*
X2275650Y2058227D02*
X2282212D01*
X2275650D02*
Y2061182D01*
X2278775Y2058227D02*
Y2060045D01*
X2282212Y2058227D02*
Y2061182D01*
X2276587Y2066409D02*
X2275962Y2065955D01*
X2275962D02*
X2275650Y2065273D01*
Y2064364*
X2275962Y2063682*
X2275962D02*
X2276587Y2063227D01*
X2276587D02*
X2277212D01*
X2277212D02*
X2277837Y2063455D01*
X2277837D02*
X2278150Y2063682D01*
X2278462Y2064136*
X2278462D02*
X2279087Y2065500D01*
X2279087D02*
X2279400Y2065955D01*
X2279712Y2066182*
X2279712D02*
X2280337Y2066409D01*
X2280337D02*
X2281275D01*
X2281900Y2065955*
X2282212Y2065273*
X2282212D02*
Y2064364D01*
X2282212D02*
X2281900Y2063682D01*
X2281275Y2063227*
X2279400Y2068455D02*
Y2072545D01*
X2275650Y2074591D02*
X2282212D01*
X2275650D02*
X2282212Y2076409D01*
X2275650Y2078227D02*
X2282212Y2076409D01*
X2275650Y2078227D02*
X2282212D01*
X2275650Y2080273D02*
X2282212D01*
X2282212D02*
Y2083000D01*
X2275650Y2085045D02*
X2282212D01*
X2282212D02*
Y2087773D01*
X2275650Y2090273D02*
Y2092773D01*
X2278150Y2091409*
Y2092091*
X2278462Y2092545*
X2278462D02*
X2278775Y2092773D01*
X2279712Y2093000*
X2279712D02*
X2280337D01*
X2280337D02*
X2281275Y2092773D01*
X2281900Y2092318*
X2282212Y2091636*
X2282212D02*
Y2090955D01*
X2282212D02*
X2281900Y2090273D01*
X2281587Y2090045*
X2281587D02*
X2280962Y2089818D01*
X2275650Y2097318D02*
X2280025Y2095045D01*
Y2098455*
X2275650Y2097318D02*
X2282212D01*
X2345650Y2053000D02*
X2352212D01*
X2345650D02*
Y2055045D01*
X2345962Y2055727*
X2345962D02*
X2346275Y2055955D01*
X2346900Y2056182*
X2347525*
X2348150Y2055955*
X2348462Y2055727*
X2348462D02*
X2348775Y2055045D01*
Y2053000*
Y2054591D02*
X2352212Y2056182D01*
X2345650Y2058227D02*
X2352212D01*
X2345650D02*
Y2061182D01*
X2348775Y2058227D02*
Y2060045D01*
X2352212Y2058227D02*
Y2061182D01*
X2346587Y2066409D02*
X2345962Y2065955D01*
X2345962D02*
X2345650Y2065273D01*
Y2064364*
X2345962Y2063682*
X2345962D02*
X2346587Y2063227D01*
X2346587D02*
X2347212D01*
X2347212D02*
X2347837Y2063455D01*
X2347837D02*
X2348150Y2063682D01*
X2348462Y2064136*
X2348462D02*
X2349087Y2065500D01*
X2349087D02*
X2349400Y2065955D01*
X2349712Y2066182*
X2349712D02*
X2350337Y2066409D01*
X2350337D02*
X2351275D01*
X2351900Y2065955*
X2352212Y2065273*
X2352212D02*
Y2064364D01*
X2352212D02*
X2351900Y2063682D01*
X2351275Y2063227*
X2349400Y2068455D02*
Y2072545D01*
X2345650Y2074591D02*
X2352212D01*
X2345650D02*
X2352212Y2076409D01*
X2345650Y2078227D02*
X2352212Y2076409D01*
X2345650Y2078227D02*
X2352212D01*
X2345650Y2080273D02*
X2352212D01*
X2352212D02*
Y2083000D01*
X2345650Y2085045D02*
X2352212D01*
X2352212D02*
Y2087773D01*
X2345650Y2090273D02*
Y2092773D01*
X2348150Y2091409*
Y2092091*
X2348462Y2092545*
X2348462D02*
X2348775Y2092773D01*
X2349712Y2093000*
X2349712D02*
X2350337D01*
X2350337D02*
X2351275Y2092773D01*
X2351900Y2092318*
X2352212Y2091636*
X2352212D02*
Y2090955D01*
X2352212D02*
X2351900Y2090273D01*
X2351587Y2090045*
X2351587D02*
X2350962Y2089818D01*
X2345650Y2097318D02*
X2350025Y2095045D01*
Y2098455*
X2345650Y2097318D02*
X2352212D01*
X1938409Y2024688D02*
X1938182Y2025313D01*
X1938182D02*
X1937727Y2025938D01*
X1937727D02*
X1937273Y2026250D01*
X1936364*
X1935909Y2025938*
X1935909D02*
X1935455Y2025313D01*
X1935455D02*
X1935227Y2024688D01*
X1935227D02*
X1935000Y2023750D01*
Y2022188*
X1935000D02*
X1935227Y2021250D01*
X1935455Y2020625*
X1935909Y2020000*
X1936364Y2019688*
X1936364D02*
X1937273D01*
X1937273D02*
X1937727Y2020000D01*
X1938182Y2020625*
X1938409Y2021250*
X1940455Y2026250D02*
Y2019688D01*
Y2026250D02*
X1942045D01*
X1942727Y2025938*
X1942727D02*
X1943182Y2025313D01*
X1943182D02*
X1943409Y2024688D01*
X1943409D02*
X1943636Y2023750D01*
Y2022188*
X1943636D02*
X1943409Y2021250D01*
X1943182Y2020625*
X1942727Y2020000*
X1942045Y2019688*
X1942045D02*
X1940455D01*
X1947955Y2026250D02*
X1945682Y2021875D01*
X1949091*
X1947955Y2026250D02*
Y2019688D01*
X1952500Y2026250D02*
X1951818Y2025938D01*
X1951818D02*
X1951364Y2025000D01*
X1951136Y2023438*
X1951136D02*
Y2022500D01*
X1951364Y2020938*
X1951364D02*
X1951818Y2020000D01*
X1952500Y2019688*
X1952500D02*
X1952955D01*
X1952955D02*
X1953636Y2020000D01*
X1954091Y2020938*
X1954091D02*
X1954318Y2022500D01*
Y2023438*
X1954318D02*
X1954091Y2025000D01*
X1953636Y2025938*
X1953636D02*
X1952955Y2026250D01*
X1952500*
X1958636D02*
X1956364Y2021875D01*
X1959773*
X1958636Y2026250D02*
Y2019688D01*
X1964773Y2024063D02*
X1964545Y2023125D01*
X1964091Y2022500*
X1963409Y2022188*
X1963409D02*
X1963182D01*
X1963182D02*
X1962500Y2022500D01*
X1962045Y2023125*
X1961818Y2024063*
X1961818D02*
Y2024375D01*
X1962045Y2025313*
X1962045D02*
X1962500Y2025938D01*
X1962500D02*
X1963182Y2026250D01*
X1963409*
X1964091Y2025938*
X1964091D02*
X1964545Y2025313D01*
X1964545D02*
X1964773Y2024063D01*
X1964773D02*
Y2022500D01*
X1964545Y2020938*
X1964545D02*
X1964091Y2020000D01*
X1963409Y2019688*
X1963409D02*
X1962955D01*
X1962955D02*
X1962273Y2020000D01*
X1962045Y2020625*
X2146909Y2074688D02*
X2146682Y2075313D01*
X2146682D02*
X2146227Y2075938D01*
X2146227D02*
X2145773Y2076250D01*
X2144864*
X2144409Y2075938*
X2144409D02*
X2143955Y2075313D01*
X2143955D02*
X2143727Y2074688D01*
X2143727D02*
X2143500Y2073750D01*
Y2072188*
X2143500D02*
X2143727Y2071250D01*
X2143955Y2070625*
X2144409Y2070000*
X2144864Y2069688*
X2144864D02*
X2145773D01*
X2145773D02*
X2146227Y2070000D01*
X2146682Y2070625*
X2146909Y2071250*
X2150773Y2076250D02*
X2148955Y2069688D01*
X2150773Y2076250D02*
X2152591Y2069688D01*
X2149636Y2071875D02*
X2151909D01*
X2154636Y2076250D02*
Y2069688D01*
Y2076250D02*
X2156682D01*
X2157364Y2075938*
X2157364D02*
X2157591Y2075625D01*
X2157818Y2075000*
Y2074063*
X2157818D02*
X2157591Y2073438D01*
X2157591D02*
X2157364Y2073125D01*
X2156682Y2072813*
X2156682D02*
X2154636D01*
X2159864Y2072500D02*
X2163955D01*
X2169409Y2074688D02*
X2169182Y2075313D01*
X2169182D02*
X2168727Y2075938D01*
X2168727D02*
X2168273Y2076250D01*
X2167364*
X2166909Y2075938*
X2166909D02*
X2166455Y2075313D01*
X2166455D02*
X2166227Y2074688D01*
X2166227D02*
X2166000Y2073750D01*
Y2072188*
X2166000D02*
X2166227Y2071250D01*
X2166455Y2070625*
X2166909Y2070000*
X2167364Y2069688*
X2167364D02*
X2168273D01*
X2168273D02*
X2168727Y2070000D01*
X2169182Y2070625*
X2169409Y2071250*
X2174864Y2074688D02*
X2174636Y2075313D01*
X2174636D02*
X2174182Y2075938D01*
X2174182D02*
X2173727Y2076250D01*
X2172818*
X2172364Y2075938*
X2172364D02*
X2171909Y2075313D01*
X2171909D02*
X2171682Y2074688D01*
X2171682D02*
X2171455Y2073750D01*
Y2072188*
X2171455D02*
X2171682Y2071250D01*
X2171909Y2070625*
X2172364Y2070000*
X2172818Y2069688*
X2172818D02*
X2173727D01*
X2173727D02*
X2174182Y2070000D01*
X2174636Y2070625*
X2174864Y2071250*
X2178273Y2076250D02*
X2177591Y2075938D01*
X2177591D02*
X2177136Y2075000D01*
X2176909Y2073438*
X2176909D02*
Y2072500D01*
X2177136Y2070938*
X2177136D02*
X2177591Y2070000D01*
X2178273Y2069688*
X2178273D02*
X2178727D01*
X2178727D02*
X2179409Y2070000D01*
X2179864Y2070938*
X2179864D02*
X2180091Y2072500D01*
Y2073438*
X2180091D02*
X2179864Y2075000D01*
X2179409Y2075938*
X2179409D02*
X2178727Y2076250D01*
X2178273*
X2184864Y2075313D02*
X2184636Y2075938D01*
X2184636D02*
X2183955Y2076250D01*
X2183500*
X2182818Y2075938*
X2182818D02*
X2182364Y2075000D01*
X2182136Y2073438*
X2182136D02*
Y2071875D01*
X2182364Y2070625*
X2182818Y2070000*
X2183500Y2069688*
X2183500D02*
X2183727D01*
X2183727D02*
X2184409Y2070000D01*
X2184864Y2070625*
X2185091Y2071563*
X2185091D02*
Y2071875D01*
X2184864Y2072813*
X2184864D02*
X2184409Y2073438D01*
X2184409D02*
X2183727Y2073750D01*
X2183500*
X2182818Y2073438*
X2182818D02*
X2182364Y2072813D01*
X2182364D02*
X2182136Y2071875D01*
X2266909Y2074688D02*
X2266682Y2075313D01*
X2266682D02*
X2266227Y2075938D01*
X2266227D02*
X2265773Y2076250D01*
X2264864*
X2264409Y2075938*
X2264409D02*
X2263955Y2075313D01*
X2263955D02*
X2263727Y2074688D01*
X2263727D02*
X2263500Y2073750D01*
Y2072188*
X2263500D02*
X2263727Y2071250D01*
X2263955Y2070625*
X2264409Y2070000*
X2264864Y2069688*
X2264864D02*
X2265773D01*
X2265773D02*
X2266227Y2070000D01*
X2266682Y2070625*
X2266909Y2071250*
X2270773Y2076250D02*
X2268955Y2069688D01*
X2270773Y2076250D02*
X2272591Y2069688D01*
X2269636Y2071875D02*
X2271909D01*
X2274636Y2076250D02*
Y2069688D01*
Y2076250D02*
X2276682D01*
X2277364Y2075938*
X2277364D02*
X2277591Y2075625D01*
X2277818Y2075000*
Y2074063*
X2277818D02*
X2277591Y2073438D01*
X2277591D02*
X2277364Y2073125D01*
X2276682Y2072813*
X2276682D02*
X2274636D01*
X2279864Y2072500D02*
X2283955D01*
X2289409Y2074688D02*
X2289182Y2075313D01*
X2289182D02*
X2288727Y2075938D01*
X2288727D02*
X2288273Y2076250D01*
X2287364*
X2286909Y2075938*
X2286909D02*
X2286455Y2075313D01*
X2286455D02*
X2286227Y2074688D01*
X2286227D02*
X2286000Y2073750D01*
Y2072188*
X2286000D02*
X2286227Y2071250D01*
X2286455Y2070625*
X2286909Y2070000*
X2287364Y2069688*
X2287364D02*
X2288273D01*
X2288273D02*
X2288727Y2070000D01*
X2289182Y2070625*
X2289409Y2071250*
X2294864Y2074688D02*
X2294636Y2075313D01*
X2294636D02*
X2294182Y2075938D01*
X2294182D02*
X2293727Y2076250D01*
X2292818*
X2292364Y2075938*
X2292364D02*
X2291909Y2075313D01*
X2291909D02*
X2291682Y2074688D01*
X2291682D02*
X2291455Y2073750D01*
Y2072188*
X2291455D02*
X2291682Y2071250D01*
X2291909Y2070625*
X2292364Y2070000*
X2292818Y2069688*
X2292818D02*
X2293727D01*
X2293727D02*
X2294182Y2070000D01*
X2294636Y2070625*
X2294864Y2071250*
X2298273Y2076250D02*
X2297591Y2075938D01*
X2297591D02*
X2297136Y2075000D01*
X2296909Y2073438*
X2296909D02*
Y2072500D01*
X2297136Y2070938*
X2297136D02*
X2297591Y2070000D01*
X2298273Y2069688*
X2298273D02*
X2298727D01*
X2298727D02*
X2299409Y2070000D01*
X2299864Y2070938*
X2299864D02*
X2300091Y2072500D01*
Y2073438*
X2300091D02*
X2299864Y2075000D01*
X2299409Y2075938*
X2299409D02*
X2298727Y2076250D01*
X2298273*
X2304864Y2075313D02*
X2304636Y2075938D01*
X2304636D02*
X2303955Y2076250D01*
X2303500*
X2302818Y2075938*
X2302818D02*
X2302364Y2075000D01*
X2302136Y2073438*
X2302136D02*
Y2071875D01*
X2302364Y2070625*
X2302818Y2070000*
X2303500Y2069688*
X2303500D02*
X2303727D01*
X2303727D02*
X2304409Y2070000D01*
X2304864Y2070625*
X2305091Y2071563*
X2305091D02*
Y2071875D01*
X2304864Y2072813*
X2304864D02*
X2304409Y2073438D01*
X2304409D02*
X2303727Y2073750D01*
X2303500*
X2302818Y2073438*
X2302818D02*
X2302364Y2072813D01*
X2302364D02*
X2302136Y2071875D01*
X2305650Y2053000D02*
X2312212D01*
X2305650D02*
Y2055045D01*
X2305962Y2055727*
X2305962D02*
X2306275Y2055955D01*
X2306900Y2056182*
X2307525*
X2308150Y2055955*
X2308462Y2055727*
X2308462D02*
X2308775Y2055045D01*
Y2053000*
Y2054591D02*
X2312212Y2056182D01*
X2305650Y2058227D02*
X2312212D01*
X2305650D02*
Y2061182D01*
X2308775Y2058227D02*
Y2060045D01*
X2312212Y2058227D02*
Y2061182D01*
X2306587Y2066409D02*
X2305962Y2065955D01*
X2305962D02*
X2305650Y2065273D01*
Y2064364*
X2305962Y2063682*
X2305962D02*
X2306587Y2063227D01*
X2306587D02*
X2307212D01*
X2307212D02*
X2307837Y2063455D01*
X2307837D02*
X2308150Y2063682D01*
X2308462Y2064136*
X2308462D02*
X2309087Y2065500D01*
X2309087D02*
X2309400Y2065955D01*
X2309712Y2066182*
X2309712D02*
X2310337Y2066409D01*
X2310337D02*
X2311275D01*
X2311900Y2065955*
X2312212Y2065273*
X2312212D02*
Y2064364D01*
X2312212D02*
X2311900Y2063682D01*
X2311275Y2063227*
X2309400Y2068455D02*
Y2072545D01*
X2305650Y2074591D02*
X2312212D01*
X2305650D02*
X2312212Y2076409D01*
X2305650Y2078227D02*
X2312212Y2076409D01*
X2305650Y2078227D02*
X2312212D01*
X2305650Y2080273D02*
X2312212D01*
X2312212D02*
Y2083000D01*
X2305650Y2085045D02*
X2312212D01*
X2312212D02*
Y2087773D01*
X2305650Y2090273D02*
Y2092773D01*
X2308150Y2091409*
Y2092091*
X2308462Y2092545*
X2308462D02*
X2308775Y2092773D01*
X2309712Y2093000*
X2309712D02*
X2310337D01*
X2310337D02*
X2311275Y2092773D01*
X2311900Y2092318*
X2312212Y2091636*
X2312212D02*
Y2090955D01*
X2312212D02*
X2311900Y2090273D01*
X2311587Y2090045*
X2311587D02*
X2310962Y2089818D01*
X2305650Y2097318D02*
X2310025Y2095045D01*
Y2098455*
X2305650Y2097318D02*
X2312212D01*
X1953000Y2104350D02*
Y2097788D01*
Y2104350D02*
X1955045D01*
X1955727Y2104038*
X1955727D02*
X1955955Y2103725D01*
X1956182Y2103100*
Y2102475*
X1955955Y2101850*
X1955727Y2101538*
X1955727D02*
X1955045Y2101225D01*
X1953000*
X1954591D02*
X1956182Y2097788D01*
X1958227Y2104350D02*
Y2097788D01*
Y2104350D02*
X1961182D01*
X1958227Y2101225D02*
X1960045D01*
X1958227Y2097788D02*
X1961182D01*
X1966409Y2103413D02*
X1965955Y2104038D01*
X1965955D02*
X1965273Y2104350D01*
X1964364*
X1963682Y2104038*
X1963682D02*
X1963227Y2103413D01*
X1963227D02*
Y2102788D01*
X1963227D02*
X1963455Y2102163D01*
X1963455D02*
X1963682Y2101850D01*
X1964136Y2101538*
X1964136D02*
X1965500Y2100913D01*
X1965500D02*
X1965955Y2100600D01*
X1966182Y2100288*
X1966182D02*
X1966409Y2099663D01*
X1966409D02*
Y2098725D01*
X1965955Y2098100*
X1965273Y2097788*
X1965273D02*
X1964364D01*
X1964364D02*
X1963682Y2098100D01*
X1963227Y2098725*
X1968455Y2100600D02*
X1972545D01*
X1974591Y2104350D02*
Y2097788D01*
Y2104350D02*
X1976409Y2097788D01*
X1978227Y2104350D02*
X1976409Y2097788D01*
X1978227Y2104350D02*
Y2097788D01*
X1980273Y2104350D02*
Y2097788D01*
X1980273D02*
X1983000D01*
X1985045Y2104350D02*
Y2097788D01*
X1985045D02*
X1987773D01*
X1990273Y2104350D02*
X1992773D01*
X1991409Y2101850*
X1992091*
X1992545Y2101538*
X1992545D02*
X1992773Y2101225D01*
X1993000Y2100288*
X1993000D02*
Y2099663D01*
X1993000D02*
X1992773Y2098725D01*
X1992318Y2098100*
X1991636Y2097788*
X1991636D02*
X1990955D01*
X1990955D02*
X1990273Y2098100D01*
X1990045Y2098413*
X1990045D02*
X1989818Y2099038D01*
X1997318Y2104350D02*
X1995045Y2099975D01*
X1998455*
X1997318Y2104350D02*
Y2097788D01*
X1927000Y2075650D02*
Y2082212D01*
Y2075650D02*
X1924955D01*
X1924273Y2075962*
X1924273D02*
X1924045Y2076275D01*
X1923818Y2076900*
Y2077525*
X1924045Y2078150*
X1924273Y2078462*
X1924273D02*
X1924955Y2078775D01*
X1927000*
X1925409D02*
X1923818Y2082212D01*
X1921773Y2075650D02*
Y2082212D01*
Y2075650D02*
X1918818D01*
X1921773Y2078775D02*
X1919955D01*
X1921773Y2082212D02*
X1918818D01*
X1913591Y2076587D02*
X1914045Y2075962D01*
X1914045D02*
X1914727Y2075650D01*
X1915636*
X1916318Y2075962*
X1916318D02*
X1916773Y2076587D01*
X1916773D02*
Y2077212D01*
X1916773D02*
X1916545Y2077837D01*
X1916545D02*
X1916318Y2078150D01*
X1915864Y2078462*
X1915864D02*
X1914500Y2079087D01*
X1914500D02*
X1914045Y2079400D01*
X1913818Y2079712*
X1913818D02*
X1913591Y2080337D01*
X1913591D02*
Y2081275D01*
X1914045Y2081900*
X1914727Y2082212*
X1914727D02*
X1915636D01*
X1915636D02*
X1916318Y2081900D01*
X1916773Y2081275*
X1911545Y2079400D02*
X1907455D01*
X1905409Y2075650D02*
Y2082212D01*
Y2075650D02*
X1903591Y2082212D01*
X1901773Y2075650D02*
X1903591Y2082212D01*
X1901773Y2075650D02*
Y2082212D01*
X1899727Y2075650D02*
Y2082212D01*
X1899727D02*
X1897000D01*
X1894955Y2075650D02*
Y2082212D01*
X1894955D02*
X1892227D01*
X1889727Y2075650D02*
X1887227D01*
X1888591Y2078150*
X1887909*
X1887455Y2078462*
X1887455D02*
X1887227Y2078775D01*
X1887000Y2079712*
X1887000D02*
Y2080337D01*
X1887000D02*
X1887227Y2081275D01*
X1887682Y2081900*
X1888364Y2082212*
X1888364D02*
X1889045D01*
X1889045D02*
X1889727Y2081900D01*
X1889955Y2081587*
X1889955D02*
X1890182Y2080962D01*
X1882682Y2075650D02*
X1884955Y2080025D01*
X1881545*
X1882682Y2075650D02*
Y2082212D01*
X2376809Y2036488D02*
X2376582Y2037113D01*
X2376582D02*
X2376127Y2037738D01*
X2376127D02*
X2375673Y2038050D01*
X2374764*
X2374309Y2037738*
X2374309D02*
X2373855Y2037113D01*
X2373855D02*
X2373627Y2036488D01*
X2373627D02*
X2373400Y2035550D01*
Y2033988*
X2373400D02*
X2373627Y2033050D01*
X2373855Y2032425*
X2374309Y2031800*
X2374764Y2031488*
X2374764D02*
X2375673D01*
X2375673D02*
X2376127Y2031800D01*
X2376582Y2032425*
X2376809Y2033050*
X2380673Y2038050D02*
X2378855Y2031488D01*
X2380673Y2038050D02*
X2382491Y2031488D01*
X2379536Y2033675D02*
X2381809D01*
X2384536Y2038050D02*
Y2031488D01*
Y2038050D02*
X2386582D01*
X2387264Y2037738*
X2387264D02*
X2387491Y2037425D01*
X2387718Y2036800*
Y2035863*
X2387718D02*
X2387491Y2035238D01*
X2387491D02*
X2387264Y2034925D01*
X2386582Y2034613*
X2386582D02*
X2384536D01*
X2389764Y2034300D02*
X2393855D01*
X2397718Y2038050D02*
X2395900Y2031488D01*
X2397718Y2038050D02*
X2399536Y2031488D01*
X2396582Y2033675D02*
X2398855D01*
X2401582Y2038050D02*
Y2031488D01*
Y2038050D02*
X2404536D01*
X2401582Y2034925D02*
X2403400D01*
X2401582Y2031488D02*
X2404536D01*
X2409536Y2038050D02*
X2407264D01*
X2407036Y2035238*
X2407036D02*
X2407264Y2035550D01*
X2407945Y2035863*
X2407945D02*
X2408627D01*
X2408627D02*
X2409309Y2035550D01*
X2409764Y2034925*
X2409991Y2033988*
X2409991D02*
X2409764Y2033363D01*
X2409764D02*
X2409536Y2032425D01*
X2409082Y2031800*
X2408400Y2031488*
X2408400D02*
X2407718D01*
X2407718D02*
X2407036Y2031800D01*
X2406809Y2032113*
X2406809D02*
X2406582Y2032738D01*
X2306909Y2074688D02*
X2306682Y2075313D01*
X2306682D02*
X2306227Y2075938D01*
X2306227D02*
X2305773Y2076250D01*
X2304864*
X2304409Y2075938*
X2304409D02*
X2303955Y2075313D01*
X2303955D02*
X2303727Y2074688D01*
X2303727D02*
X2303500Y2073750D01*
Y2072188*
X2303500D02*
X2303727Y2071250D01*
X2303955Y2070625*
X2304409Y2070000*
X2304864Y2069688*
X2304864D02*
X2305773D01*
X2305773D02*
X2306227Y2070000D01*
X2306682Y2070625*
X2306909Y2071250*
X2310773Y2076250D02*
X2308955Y2069688D01*
X2310773Y2076250D02*
X2312591Y2069688D01*
X2309636Y2071875D02*
X2311909D01*
X2314636Y2076250D02*
Y2069688D01*
Y2076250D02*
X2316682D01*
X2317364Y2075938*
X2317364D02*
X2317591Y2075625D01*
X2317818Y2075000*
Y2074063*
X2317818D02*
X2317591Y2073438D01*
X2317591D02*
X2317364Y2073125D01*
X2316682Y2072813*
X2316682D02*
X2314636D01*
X2319864Y2072500D02*
X2323955D01*
X2329409Y2074688D02*
X2329182Y2075313D01*
X2329182D02*
X2328727Y2075938D01*
X2328727D02*
X2328273Y2076250D01*
X2327364*
X2326909Y2075938*
X2326909D02*
X2326455Y2075313D01*
X2326455D02*
X2326227Y2074688D01*
X2326227D02*
X2326000Y2073750D01*
Y2072188*
X2326000D02*
X2326227Y2071250D01*
X2326455Y2070625*
X2326909Y2070000*
X2327364Y2069688*
X2327364D02*
X2328273D01*
X2328273D02*
X2328727Y2070000D01*
X2329182Y2070625*
X2329409Y2071250*
X2334864Y2074688D02*
X2334636Y2075313D01*
X2334636D02*
X2334182Y2075938D01*
X2334182D02*
X2333727Y2076250D01*
X2332818*
X2332364Y2075938*
X2332364D02*
X2331909Y2075313D01*
X2331909D02*
X2331682Y2074688D01*
X2331682D02*
X2331455Y2073750D01*
Y2072188*
X2331455D02*
X2331682Y2071250D01*
X2331909Y2070625*
X2332364Y2070000*
X2332818Y2069688*
X2332818D02*
X2333727D01*
X2333727D02*
X2334182Y2070000D01*
X2334636Y2070625*
X2334864Y2071250*
X2338273Y2076250D02*
X2337591Y2075938D01*
X2337591D02*
X2337136Y2075000D01*
X2336909Y2073438*
X2336909D02*
Y2072500D01*
X2337136Y2070938*
X2337136D02*
X2337591Y2070000D01*
X2338273Y2069688*
X2338273D02*
X2338727D01*
X2338727D02*
X2339409Y2070000D01*
X2339864Y2070938*
X2339864D02*
X2340091Y2072500D01*
Y2073438*
X2340091D02*
X2339864Y2075000D01*
X2339409Y2075938*
X2339409D02*
X2338727Y2076250D01*
X2338273*
X2344864Y2075313D02*
X2344636Y2075938D01*
X2344636D02*
X2343955Y2076250D01*
X2343500*
X2342818Y2075938*
X2342818D02*
X2342364Y2075000D01*
X2342136Y2073438*
X2342136D02*
Y2071875D01*
X2342364Y2070625*
X2342818Y2070000*
X2343500Y2069688*
X2343500D02*
X2343727D01*
X2343727D02*
X2344409Y2070000D01*
X2344864Y2070625*
X2345091Y2071563*
X2345091D02*
Y2071875D01*
X2344864Y2072813*
X2344864D02*
X2344409Y2073438D01*
X2344409D02*
X2343727Y2073750D01*
X2343500*
X2342818Y2073438*
X2342818D02*
X2342364Y2072813D01*
X2342364D02*
X2342136Y2071875D01*
X1961250Y1940000D02*
X1967812Y1943182D01*
X1961250D02*
X1967812Y1940000D01*
X1961250Y1945227D02*
X1967812D01*
X1961250D02*
Y1948182D01*
X1964375Y1945227D02*
Y1947045D01*
X1961250Y1950227D02*
X1967812D01*
X1961250D02*
Y1952273D01*
X1961562Y1952955*
X1961562D02*
X1961875Y1953182D01*
X1962500Y1953409*
X1963125*
X1963750Y1953182*
X1964062Y1952955*
X1964062D02*
X1964375Y1952273D01*
Y1950227*
Y1951818D02*
X1967812Y1953409D01*
X1965000Y1955455D02*
Y1959545D01*
X1961250Y1963182D02*
X1967812D01*
X1961250Y1961591D02*
Y1964773D01*
Y1968636D02*
X1967812Y1966818D01*
X1961250Y1968636D02*
X1967812Y1970455D01*
X1965625Y1967500D02*
Y1969773D01*
X1965000Y1972500D02*
Y1976591D01*
X1962500Y1978636D02*
X1962187Y1979091D01*
X1962187D02*
X1961250Y1979773D01*
X1967812*
X1961250Y1983182D02*
X1961562Y1982500D01*
X1961562D02*
X1962500Y1982045D01*
X1964062Y1981818*
X1964062D02*
X1965000D01*
X1966562Y1982045*
X1966562D02*
X1967500Y1982500D01*
X1967812Y1983182*
X1967812D02*
Y1983636D01*
X1967812D02*
X1967500Y1984318D01*
X1966562Y1984773*
X1966562D02*
X1965000Y1985000D01*
X1964062*
X1964062D02*
X1962500Y1984773D01*
X1961562Y1984318*
X1961562D02*
X1961250Y1983636D01*
Y1983182*
X1965000Y1987045D02*
Y1991136D01*
X1961250Y1994545D02*
X1961562Y1993864D01*
X1961562D02*
X1962500Y1993409D01*
X1964062Y1993182*
X1964062D02*
X1965000D01*
X1966562Y1993409*
X1966562D02*
X1967500Y1993864D01*
X1967812Y1994545*
X1967812D02*
Y1995000D01*
X1967812D02*
X1967500Y1995682D01*
X1966562Y1996136*
X1966562D02*
X1965000Y1996364D01*
X1964062*
X1964062D02*
X1962500Y1996136D01*
X1961562Y1995682*
X1961562D02*
X1961250Y1995000D01*
Y1994545*
Y1999545D02*
X1961562Y1998864D01*
X1961562D02*
X1962187Y1998636D01*
X1962187D02*
X1962812D01*
X1962812D02*
X1963437Y1998864D01*
X1963437D02*
X1963750Y1999318D01*
X1964062Y2000227*
X1964062D02*
X1964375Y2000909D01*
X1965000Y2001364*
X1965625Y2001591*
X1966562*
X1966562D02*
X1967187Y2001364D01*
X1967187D02*
X1967500Y2001136D01*
X1967812Y2000455*
X1967812D02*
Y1999545D01*
X1967812D02*
X1967500Y1998864D01*
X1967187Y1998636*
X1967187D02*
X1966562Y1998409D01*
X1966562D02*
X1965625D01*
X1965000Y1998636*
X1964375Y1999091*
X1964062Y1999773*
X1964062D02*
X1963750Y2000682D01*
X1963437Y2001136*
X1963437D02*
X1962812Y2001364D01*
X1962812D02*
X1962187D01*
X1962187D02*
X1961562Y2001136D01*
X1961562D02*
X1961250Y2000455D01*
Y1999545*
X1937500Y1881250D02*
Y1887812D01*
X1937500D02*
X1934773D01*
X1932727Y1881250D02*
Y1887812D01*
Y1881250D02*
X1930909Y1887812D01*
X1929091Y1881250D02*
X1930909Y1887812D01*
X1929091Y1881250D02*
Y1887812D01*
X1926591Y1881250D02*
X1924091D01*
X1925455Y1883750*
X1924773*
X1924318Y1884062*
X1924318D02*
X1924091Y1884375D01*
X1923864Y1885312*
X1923864D02*
Y1885937D01*
X1923864D02*
X1924091Y1886875D01*
X1924545Y1887500*
X1925227Y1887812*
X1925227D02*
X1925909D01*
X1925909D02*
X1926591Y1887500D01*
X1926818Y1887187*
X1926818D02*
X1927045Y1886562D01*
X1921591Y1882812D02*
Y1882500D01*
X1921364Y1881875*
X1921136Y1881562*
X1921136D02*
X1920682Y1881250D01*
X1919773*
X1919318Y1881562*
X1919318D02*
X1919091Y1881875D01*
X1918864Y1882500*
Y1883125*
X1919091Y1883750*
X1919545Y1884687*
X1919545D02*
X1921818Y1887812D01*
X1921818D02*
X1918636D01*
X1916136Y1881250D02*
X1913636D01*
X1915000Y1883750*
X1914318*
X1913864Y1884062*
X1913864D02*
X1913636Y1884375D01*
X1913409Y1885312*
X1913409D02*
Y1885937D01*
X1913409D02*
X1913636Y1886875D01*
X1914091Y1887500*
X1914773Y1887812*
X1914773D02*
X1915455D01*
X1915455D02*
X1916136Y1887500D01*
X1916364Y1887187*
X1916364D02*
X1916591Y1886562D01*
X1909773Y1881250D02*
Y1887812D01*
X1911364Y1881250D02*
X1908182D01*
X2044000Y2079650D02*
Y2073088D01*
Y2079650D02*
X2045818Y2073088D01*
X2047636Y2079650D02*
X2045818Y2073088D01*
X2047636Y2079650D02*
Y2073088D01*
X2049682Y2079650D02*
Y2073088D01*
Y2079650D02*
X2051500Y2073088D01*
X2053318Y2079650D02*
X2051500Y2073088D01*
X2053318Y2079650D02*
Y2073088D01*
X2055364Y2079650D02*
Y2073088D01*
Y2079650D02*
X2057409D01*
X2058091Y2079338*
X2058091D02*
X2058318Y2079025D01*
X2058545Y2078400*
Y2077775*
X2058318Y2077150*
X2058091Y2076838*
X2058091D02*
X2057409Y2076525D01*
X2055364D02*
X2057409D01*
X2058091Y2076213*
X2058091D02*
X2058318Y2075900D01*
X2058545Y2075275*
Y2074338*
X2058545D02*
X2058318Y2073713D01*
X2058318D02*
X2058091Y2073400D01*
X2057409Y2073088*
X2057409D02*
X2055364D01*
X2062182Y2079650D02*
Y2073088D01*
X2060591Y2079650D02*
X2063773D01*
X2066273D02*
X2068773D01*
X2067409Y2077150*
X2068091*
X2068545Y2076838*
X2068545D02*
X2068773Y2076525D01*
X2069000Y2075588*
X2069000D02*
Y2074963D01*
X2069000D02*
X2068773Y2074025D01*
X2068318Y2073400*
X2067636Y2073088*
X2067636D02*
X2066955D01*
X2066955D02*
X2066273Y2073400D01*
X2066045Y2073713*
X2066045D02*
X2065818Y2074338D01*
X2074000Y2077463D02*
X2073773Y2076525D01*
X2073318Y2075900*
X2072636Y2075588*
X2072636D02*
X2072409D01*
X2072409D02*
X2071727Y2075900D01*
X2071273Y2076525*
X2071045Y2077463*
X2071045D02*
Y2077775D01*
X2071273Y2078713*
X2071273D02*
X2071727Y2079338D01*
X2071727D02*
X2072409Y2079650D01*
X2072636*
X2073318Y2079338*
X2073318D02*
X2073773Y2078713D01*
X2073773D02*
X2074000Y2077463D01*
X2074000D02*
Y2075900D01*
X2073773Y2074338*
X2073773D02*
X2073318Y2073400D01*
X2072636Y2073088*
X2072636D02*
X2072182D01*
X2072182D02*
X2071500Y2073400D01*
X2071273Y2074025*
X2077409Y2079650D02*
X2076727Y2079338D01*
X2076727D02*
X2076273Y2078400D01*
X2076045Y2076838*
X2076045D02*
Y2075900D01*
X2076273Y2074338*
X2076273D02*
X2076727Y2073400D01*
X2077409Y2073088*
X2077409D02*
X2077864D01*
X2077864D02*
X2078545Y2073400D01*
X2079000Y2074338*
X2079000D02*
X2079227Y2075900D01*
Y2076838*
X2079227D02*
X2079000Y2078400D01*
X2078545Y2079338*
X2078545D02*
X2077864Y2079650D01*
X2077409*
X2083545D02*
X2081273Y2075275D01*
X2084682*
X2083545Y2079650D02*
Y2073088D01*
X2086727Y2079650D02*
Y2073088D01*
X2086727D02*
X2089455D01*
X2093091Y2079650D02*
Y2073088D01*
X2091500Y2079650D02*
X2094682D01*
X2096727Y2078400D02*
X2097182Y2078713D01*
X2097182D02*
X2097864Y2079650D01*
Y2073088*
X2226909Y2074688D02*
X2226682Y2075313D01*
X2226682D02*
X2226227Y2075938D01*
X2226227D02*
X2225773Y2076250D01*
X2224864*
X2224409Y2075938*
X2224409D02*
X2223955Y2075313D01*
X2223955D02*
X2223727Y2074688D01*
X2223727D02*
X2223500Y2073750D01*
Y2072188*
X2223500D02*
X2223727Y2071250D01*
X2223955Y2070625*
X2224409Y2070000*
X2224864Y2069688*
X2224864D02*
X2225773D01*
X2225773D02*
X2226227Y2070000D01*
X2226682Y2070625*
X2226909Y2071250*
X2230773Y2076250D02*
X2228955Y2069688D01*
X2230773Y2076250D02*
X2232591Y2069688D01*
X2229636Y2071875D02*
X2231909D01*
X2234636Y2076250D02*
Y2069688D01*
Y2076250D02*
X2236682D01*
X2237364Y2075938*
X2237364D02*
X2237591Y2075625D01*
X2237818Y2075000*
Y2074063*
X2237818D02*
X2237591Y2073438D01*
X2237591D02*
X2237364Y2073125D01*
X2236682Y2072813*
X2236682D02*
X2234636D01*
X2239864Y2072500D02*
X2243955D01*
X2249409Y2074688D02*
X2249182Y2075313D01*
X2249182D02*
X2248727Y2075938D01*
X2248727D02*
X2248273Y2076250D01*
X2247364*
X2246909Y2075938*
X2246909D02*
X2246455Y2075313D01*
X2246455D02*
X2246227Y2074688D01*
X2246227D02*
X2246000Y2073750D01*
Y2072188*
X2246000D02*
X2246227Y2071250D01*
X2246455Y2070625*
X2246909Y2070000*
X2247364Y2069688*
X2247364D02*
X2248273D01*
X2248273D02*
X2248727Y2070000D01*
X2249182Y2070625*
X2249409Y2071250*
X2254864Y2074688D02*
X2254636Y2075313D01*
X2254636D02*
X2254182Y2075938D01*
X2254182D02*
X2253727Y2076250D01*
X2252818*
X2252364Y2075938*
X2252364D02*
X2251909Y2075313D01*
X2251909D02*
X2251682Y2074688D01*
X2251682D02*
X2251455Y2073750D01*
Y2072188*
X2251455D02*
X2251682Y2071250D01*
X2251909Y2070625*
X2252364Y2070000*
X2252818Y2069688*
X2252818D02*
X2253727D01*
X2253727D02*
X2254182Y2070000D01*
X2254636Y2070625*
X2254864Y2071250*
X2258273Y2076250D02*
X2257591Y2075938D01*
X2257591D02*
X2257136Y2075000D01*
X2256909Y2073438*
X2256909D02*
Y2072500D01*
X2257136Y2070938*
X2257136D02*
X2257591Y2070000D01*
X2258273Y2069688*
X2258273D02*
X2258727D01*
X2258727D02*
X2259409Y2070000D01*
X2259864Y2070938*
X2259864D02*
X2260091Y2072500D01*
Y2073438*
X2260091D02*
X2259864Y2075000D01*
X2259409Y2075938*
X2259409D02*
X2258727Y2076250D01*
X2258273*
X2264864Y2075313D02*
X2264636Y2075938D01*
X2264636D02*
X2263955Y2076250D01*
X2263500*
X2262818Y2075938*
X2262818D02*
X2262364Y2075000D01*
X2262136Y2073438*
X2262136D02*
Y2071875D01*
X2262364Y2070625*
X2262818Y2070000*
X2263500Y2069688*
X2263500D02*
X2263727D01*
X2263727D02*
X2264409Y2070000D01*
X2264864Y2070625*
X2265091Y2071563*
X2265091D02*
Y2071875D01*
X2264864Y2072813*
X2264864D02*
X2264409Y2073438D01*
X2264409D02*
X2263727Y2073750D01*
X2263500*
X2262818Y2073438*
X2262818D02*
X2262364Y2072813D01*
X2262364D02*
X2262136Y2071875D01*
X1981182Y2049813D02*
X1980727Y2050438D01*
X1980727D02*
X1980045Y2050750D01*
X1979136*
X1978455Y2050438*
X1978455D02*
X1978000Y2049813D01*
X1978000D02*
Y2049188D01*
X1978000D02*
X1978227Y2048563D01*
X1978227D02*
X1978455Y2048250D01*
X1978909Y2047938*
X1978909D02*
X1980273Y2047313D01*
X1980273D02*
X1980727Y2047000D01*
X1980955Y2046688*
X1980955D02*
X1981182Y2046063D01*
X1981182D02*
Y2045125D01*
X1980727Y2044500*
X1980045Y2044188*
X1980045D02*
X1979136D01*
X1979136D02*
X1978455Y2044500D01*
X1978000Y2045125*
X1983227Y2050750D02*
X1984364Y2044188D01*
X1985500Y2050750D02*
X1984364Y2044188D01*
X1985500Y2050750D02*
X1986636Y2044188D01*
X1987773Y2050750D02*
X1986636Y2044188D01*
X1989818Y2050750D02*
Y2044188D01*
X1993455Y2050750D02*
Y2044188D01*
X1991864Y2050750D02*
X1995045D01*
X2000500Y2049188D02*
X2000273Y2049813D01*
X2000273D02*
X1999818Y2050438D01*
X1999818D02*
X1999364Y2050750D01*
X1998455*
X1998000Y2050438*
X1998000D02*
X1997545Y2049813D01*
X1997545D02*
X1997318Y2049188D01*
X1997318D02*
X1997091Y2048250D01*
Y2046688*
X1997091D02*
X1997318Y2045750D01*
X1997545Y2045125*
X1998000Y2044500*
X1998455Y2044188*
X1998455D02*
X1999364D01*
X1999364D02*
X1999818Y2044500D01*
X2000273Y2045125*
X2000500Y2045750*
X2002545Y2050750D02*
Y2044188D01*
X2005727Y2050750D02*
Y2044188D01*
X2002545Y2047625D02*
X2005727D01*
X2007773Y2047000D02*
X2011864D01*
X2017091Y2049813D02*
X2016636Y2050438D01*
X2016636D02*
X2015955Y2050750D01*
X2015045*
X2014364Y2050438*
X2014364D02*
X2013909Y2049813D01*
X2013909D02*
Y2049188D01*
X2013909D02*
X2014136Y2048563D01*
X2014136D02*
X2014364Y2048250D01*
X2014818Y2047938*
X2014818D02*
X2016182Y2047313D01*
X2016182D02*
X2016636Y2047000D01*
X2016864Y2046688*
X2016864D02*
X2017091Y2046063D01*
X2017091D02*
Y2045125D01*
X2016636Y2044500*
X2015955Y2044188*
X2015955D02*
X2015045D01*
X2015045D02*
X2014364Y2044500D01*
X2013909Y2045125*
X2020727Y2050750D02*
Y2044188D01*
X2019136Y2050750D02*
X2022318D01*
X2022500Y2026250D02*
Y2019688D01*
Y2026250D02*
X2024091D01*
X2024773Y2025938*
X2024773D02*
X2025227Y2025313D01*
X2025227D02*
X2025455Y2024688D01*
X2025455D02*
X2025682Y2023750D01*
Y2022188*
X2025682D02*
X2025455Y2021250D01*
X2025227Y2020625*
X2024773Y2020000*
X2024091Y2019688*
X2024091D02*
X2022500D01*
X2027727Y2026250D02*
Y2019688D01*
Y2026250D02*
X2029773D01*
X2030455Y2025938*
X2030455D02*
X2030682Y2025625D01*
X2030909Y2025000*
Y2024375*
X2030682Y2023750*
X2030455Y2023438*
X2030455D02*
X2029773Y2023125D01*
X2027727*
X2029318D02*
X2030909Y2019688D01*
X2032955Y2026250D02*
Y2019688D01*
X2035000Y2026250D02*
X2036818Y2019688D01*
X2038636Y2026250D02*
X2036818Y2019688D01*
X2040682Y2026250D02*
Y2019688D01*
Y2026250D02*
X2043636D01*
X2040682Y2023125D02*
X2042500D01*
X2040682Y2019688D02*
X2043636D01*
X2045682Y2026250D02*
Y2019688D01*
Y2026250D02*
X2047727D01*
X2048409Y2025938*
X2048409D02*
X2048636Y2025625D01*
X2048864Y2025000*
Y2024375*
X2048636Y2023750*
X2048409Y2023438*
X2048409D02*
X2047727Y2023125D01*
X2045682*
X2047273D02*
X2048864Y2019688D01*
X2050909Y2022500D02*
X2055000D01*
X2057045Y2026250D02*
Y2019688D01*
Y2026250D02*
X2060000D01*
X2057045Y2023125D02*
X2058864D01*
X2062045Y2026250D02*
Y2019688D01*
Y2026250D02*
X2065000D01*
X2062045Y2023125D02*
X2063864D01*
X2062045Y2019688D02*
X2065000D01*
X2068636Y2026250D02*
Y2019688D01*
X2067045Y2026250D02*
X2070227D01*
X2024091Y2047050D02*
Y2040488D01*
X2022500Y2047050D02*
X2025682D01*
X2027727D02*
Y2040488D01*
X2027727D02*
X2030455D01*
X2032500Y2047050D02*
X2034318Y2040488D01*
X2036136Y2047050D02*
X2034318Y2040488D01*
X2038409Y2045488D02*
Y2045800D01*
X2038636Y2046425*
X2038864Y2046738*
X2038864D02*
X2039318Y2047050D01*
X2040227*
X2040682Y2046738*
X2040682D02*
X2040909Y2046425D01*
X2041136Y2045800*
Y2045175*
X2040909Y2044550*
X2040455Y2043613*
X2040455D02*
X2038182Y2040488D01*
X2038182D02*
X2041364D01*
X2046591Y2047050D02*
X2044318Y2040488D01*
X2043409Y2047050D02*
X2046591D01*
X2051818D02*
X2049545Y2040488D01*
X2048636Y2047050D02*
X2051818D01*
X2053864Y2045800D02*
X2054318Y2046113D01*
X2054318D02*
X2055000Y2047050D01*
Y2040488*
X2186909Y2074688D02*
X2186682Y2075313D01*
X2186682D02*
X2186227Y2075938D01*
X2186227D02*
X2185773Y2076250D01*
X2184864*
X2184409Y2075938*
X2184409D02*
X2183955Y2075313D01*
X2183955D02*
X2183727Y2074688D01*
X2183727D02*
X2183500Y2073750D01*
Y2072188*
X2183500D02*
X2183727Y2071250D01*
X2183955Y2070625*
X2184409Y2070000*
X2184864Y2069688*
X2184864D02*
X2185773D01*
X2185773D02*
X2186227Y2070000D01*
X2186682Y2070625*
X2186909Y2071250*
X2190773Y2076250D02*
X2188955Y2069688D01*
X2190773Y2076250D02*
X2192591Y2069688D01*
X2189636Y2071875D02*
X2191909D01*
X2194636Y2076250D02*
Y2069688D01*
Y2076250D02*
X2196682D01*
X2197364Y2075938*
X2197364D02*
X2197591Y2075625D01*
X2197818Y2075000*
Y2074063*
X2197818D02*
X2197591Y2073438D01*
X2197591D02*
X2197364Y2073125D01*
X2196682Y2072813*
X2196682D02*
X2194636D01*
X2199864Y2072500D02*
X2203955D01*
X2209409Y2074688D02*
X2209182Y2075313D01*
X2209182D02*
X2208727Y2075938D01*
X2208727D02*
X2208273Y2076250D01*
X2207364*
X2206909Y2075938*
X2206909D02*
X2206455Y2075313D01*
X2206455D02*
X2206227Y2074688D01*
X2206227D02*
X2206000Y2073750D01*
Y2072188*
X2206000D02*
X2206227Y2071250D01*
X2206455Y2070625*
X2206909Y2070000*
X2207364Y2069688*
X2207364D02*
X2208273D01*
X2208273D02*
X2208727Y2070000D01*
X2209182Y2070625*
X2209409Y2071250*
X2214864Y2074688D02*
X2214636Y2075313D01*
X2214636D02*
X2214182Y2075938D01*
X2214182D02*
X2213727Y2076250D01*
X2212818*
X2212364Y2075938*
X2212364D02*
X2211909Y2075313D01*
X2211909D02*
X2211682Y2074688D01*
X2211682D02*
X2211455Y2073750D01*
Y2072188*
X2211455D02*
X2211682Y2071250D01*
X2211909Y2070625*
X2212364Y2070000*
X2212818Y2069688*
X2212818D02*
X2213727D01*
X2213727D02*
X2214182Y2070000D01*
X2214636Y2070625*
X2214864Y2071250*
X2218273Y2076250D02*
X2217591Y2075938D01*
X2217591D02*
X2217136Y2075000D01*
X2216909Y2073438*
X2216909D02*
Y2072500D01*
X2217136Y2070938*
X2217136D02*
X2217591Y2070000D01*
X2218273Y2069688*
X2218273D02*
X2218727D01*
X2218727D02*
X2219409Y2070000D01*
X2219864Y2070938*
X2219864D02*
X2220091Y2072500D01*
Y2073438*
X2220091D02*
X2219864Y2075000D01*
X2219409Y2075938*
X2219409D02*
X2218727Y2076250D01*
X2218273*
X2224864Y2075313D02*
X2224636Y2075938D01*
X2224636D02*
X2223955Y2076250D01*
X2223500*
X2222818Y2075938*
X2222818D02*
X2222364Y2075000D01*
X2222136Y2073438*
X2222136D02*
Y2071875D01*
X2222364Y2070625*
X2222818Y2070000*
X2223500Y2069688*
X2223500D02*
X2223727D01*
X2223727D02*
X2224409Y2070000D01*
X2224864Y2070625*
X2225091Y2071563*
X2225091D02*
Y2071875D01*
X2224864Y2072813*
X2224864D02*
X2224409Y2073438D01*
X2224409D02*
X2223727Y2073750D01*
X2223500*
X2222818Y2073438*
X2222818D02*
X2222364Y2072813D01*
X2222364D02*
X2222136Y2071875D01*
X1983000Y2104350D02*
Y2097788D01*
Y2104350D02*
X1985045D01*
X1985727Y2104038*
X1985727D02*
X1985955Y2103725D01*
X1986182Y2103100*
Y2102475*
X1985955Y2101850*
X1985727Y2101538*
X1985727D02*
X1985045Y2101225D01*
X1983000*
X1984591D02*
X1986182Y2097788D01*
X1988227Y2104350D02*
Y2097788D01*
Y2104350D02*
X1991182D01*
X1988227Y2101225D02*
X1990045D01*
X1988227Y2097788D02*
X1991182D01*
X1996409Y2103413D02*
X1995955Y2104038D01*
X1995955D02*
X1995273Y2104350D01*
X1994364*
X1993682Y2104038*
X1993682D02*
X1993227Y2103413D01*
X1993227D02*
Y2102788D01*
X1993227D02*
X1993455Y2102163D01*
X1993455D02*
X1993682Y2101850D01*
X1994136Y2101538*
X1994136D02*
X1995500Y2100913D01*
X1995500D02*
X1995955Y2100600D01*
X1996182Y2100288*
X1996182D02*
X1996409Y2099663D01*
X1996409D02*
Y2098725D01*
X1995955Y2098100*
X1995273Y2097788*
X1995273D02*
X1994364D01*
X1994364D02*
X1993682Y2098100D01*
X1993227Y2098725*
X1998455Y2100600D02*
X2002545D01*
X2004591Y2104350D02*
Y2097788D01*
Y2104350D02*
X2006409Y2097788D01*
X2008227Y2104350D02*
X2006409Y2097788D01*
X2008227Y2104350D02*
Y2097788D01*
X2010273Y2104350D02*
Y2097788D01*
X2010273D02*
X2013000D01*
X2015045Y2104350D02*
Y2097788D01*
X2015045D02*
X2017773D01*
X2020273Y2104350D02*
X2022773D01*
X2021409Y2101850*
X2022091*
X2022545Y2101538*
X2022545D02*
X2022773Y2101225D01*
X2023000Y2100288*
X2023000D02*
Y2099663D01*
X2023000D02*
X2022773Y2098725D01*
X2022318Y2098100*
X2021636Y2097788*
X2021636D02*
X2020955D01*
X2020955D02*
X2020273Y2098100D01*
X2020045Y2098413*
X2020045D02*
X2019818Y2099038D01*
X2027318Y2104350D02*
X2025045Y2099975D01*
X2028455*
X2027318Y2104350D02*
Y2097788D01*
X2106909Y2074688D02*
X2106682Y2075313D01*
X2106682D02*
X2106227Y2075938D01*
X2106227D02*
X2105773Y2076250D01*
X2104864*
X2104409Y2075938*
X2104409D02*
X2103955Y2075313D01*
X2103955D02*
X2103727Y2074688D01*
X2103727D02*
X2103500Y2073750D01*
Y2072188*
X2103500D02*
X2103727Y2071250D01*
X2103955Y2070625*
X2104409Y2070000*
X2104864Y2069688*
X2104864D02*
X2105773D01*
X2105773D02*
X2106227Y2070000D01*
X2106682Y2070625*
X2106909Y2071250*
X2110773Y2076250D02*
X2108955Y2069688D01*
X2110773Y2076250D02*
X2112591Y2069688D01*
X2109636Y2071875D02*
X2111909D01*
X2114636Y2076250D02*
Y2069688D01*
Y2076250D02*
X2116682D01*
X2117364Y2075938*
X2117364D02*
X2117591Y2075625D01*
X2117818Y2075000*
Y2074063*
X2117818D02*
X2117591Y2073438D01*
X2117591D02*
X2117364Y2073125D01*
X2116682Y2072813*
X2116682D02*
X2114636D01*
X2119864Y2072500D02*
X2123955D01*
X2129409Y2074688D02*
X2129182Y2075313D01*
X2129182D02*
X2128727Y2075938D01*
X2128727D02*
X2128273Y2076250D01*
X2127364*
X2126909Y2075938*
X2126909D02*
X2126455Y2075313D01*
X2126455D02*
X2126227Y2074688D01*
X2126227D02*
X2126000Y2073750D01*
Y2072188*
X2126000D02*
X2126227Y2071250D01*
X2126455Y2070625*
X2126909Y2070000*
X2127364Y2069688*
X2127364D02*
X2128273D01*
X2128273D02*
X2128727Y2070000D01*
X2129182Y2070625*
X2129409Y2071250*
X2134864Y2074688D02*
X2134636Y2075313D01*
X2134636D02*
X2134182Y2075938D01*
X2134182D02*
X2133727Y2076250D01*
X2132818*
X2132364Y2075938*
X2132364D02*
X2131909Y2075313D01*
X2131909D02*
X2131682Y2074688D01*
X2131682D02*
X2131455Y2073750D01*
Y2072188*
X2131455D02*
X2131682Y2071250D01*
X2131909Y2070625*
X2132364Y2070000*
X2132818Y2069688*
X2132818D02*
X2133727D01*
X2133727D02*
X2134182Y2070000D01*
X2134636Y2070625*
X2134864Y2071250*
X2138273Y2076250D02*
X2137591Y2075938D01*
X2137591D02*
X2137136Y2075000D01*
X2136909Y2073438*
X2136909D02*
Y2072500D01*
X2137136Y2070938*
X2137136D02*
X2137591Y2070000D01*
X2138273Y2069688*
X2138273D02*
X2138727D01*
X2138727D02*
X2139409Y2070000D01*
X2139864Y2070938*
X2139864D02*
X2140091Y2072500D01*
Y2073438*
X2140091D02*
X2139864Y2075000D01*
X2139409Y2075938*
X2139409D02*
X2138727Y2076250D01*
X2138273*
X2144864Y2075313D02*
X2144636Y2075938D01*
X2144636D02*
X2143955Y2076250D01*
X2143500*
X2142818Y2075938*
X2142818D02*
X2142364Y2075000D01*
X2142136Y2073438*
X2142136D02*
Y2071875D01*
X2142364Y2070625*
X2142818Y2070000*
X2143500Y2069688*
X2143500D02*
X2143727D01*
X2143727D02*
X2144409Y2070000D01*
X2144864Y2070625*
X2145091Y2071563*
X2145091D02*
Y2071875D01*
X2144864Y2072813*
X2144864D02*
X2144409Y2073438D01*
X2144409D02*
X2143727Y2073750D01*
X2143500*
X2142818Y2073438*
X2142818D02*
X2142364Y2072813D01*
X2142364D02*
X2142136Y2071875D01*
X2095650Y2053000D02*
X2102212D01*
X2095650D02*
Y2055045D01*
X2095962Y2055727*
X2095962D02*
X2096275Y2055955D01*
X2096900Y2056182*
X2097525*
X2098150Y2055955*
X2098462Y2055727*
X2098462D02*
X2098775Y2055045D01*
Y2053000*
Y2054591D02*
X2102212Y2056182D01*
X2095650Y2058227D02*
X2102212D01*
X2095650D02*
Y2061182D01*
X2098775Y2058227D02*
Y2060045D01*
X2102212Y2058227D02*
Y2061182D01*
X2096587Y2066409D02*
X2095962Y2065955D01*
X2095962D02*
X2095650Y2065273D01*
Y2064364*
X2095962Y2063682*
X2095962D02*
X2096587Y2063227D01*
X2096587D02*
X2097212D01*
X2097212D02*
X2097837Y2063455D01*
X2097837D02*
X2098150Y2063682D01*
X2098462Y2064136*
X2098462D02*
X2099087Y2065500D01*
X2099087D02*
X2099400Y2065955D01*
X2099712Y2066182*
X2099712D02*
X2100337Y2066409D01*
X2100337D02*
X2101275D01*
X2101900Y2065955*
X2102212Y2065273*
X2102212D02*
Y2064364D01*
X2102212D02*
X2101900Y2063682D01*
X2101275Y2063227*
X2099400Y2068455D02*
Y2072545D01*
X2095650Y2074591D02*
X2102212D01*
X2095650D02*
X2102212Y2076409D01*
X2095650Y2078227D02*
X2102212Y2076409D01*
X2095650Y2078227D02*
X2102212D01*
X2095650Y2080273D02*
X2102212D01*
X2102212D02*
Y2083000D01*
X2095650Y2085045D02*
X2102212D01*
X2102212D02*
Y2087773D01*
X2095650Y2090273D02*
Y2092773D01*
X2098150Y2091409*
Y2092091*
X2098462Y2092545*
X2098462D02*
X2098775Y2092773D01*
X2099712Y2093000*
X2099712D02*
X2100337D01*
X2100337D02*
X2101275Y2092773D01*
X2101900Y2092318*
X2102212Y2091636*
X2102212D02*
Y2090955D01*
X2102212D02*
X2101900Y2090273D01*
X2101587Y2090045*
X2101587D02*
X2100962Y2089818D01*
X2095650Y2097318D02*
X2100025Y2095045D01*
Y2098455*
X2095650Y2097318D02*
X2102212D01*
X2135650Y2053000D02*
X2142212D01*
X2135650D02*
Y2055045D01*
X2135962Y2055727*
X2135962D02*
X2136275Y2055955D01*
X2136900Y2056182*
X2137525*
X2138150Y2055955*
X2138462Y2055727*
X2138462D02*
X2138775Y2055045D01*
Y2053000*
Y2054591D02*
X2142212Y2056182D01*
X2135650Y2058227D02*
X2142212D01*
X2135650D02*
Y2061182D01*
X2138775Y2058227D02*
Y2060045D01*
X2142212Y2058227D02*
Y2061182D01*
X2136587Y2066409D02*
X2135962Y2065955D01*
X2135962D02*
X2135650Y2065273D01*
Y2064364*
X2135962Y2063682*
X2135962D02*
X2136587Y2063227D01*
X2136587D02*
X2137212D01*
X2137212D02*
X2137837Y2063455D01*
X2137837D02*
X2138150Y2063682D01*
X2138462Y2064136*
X2138462D02*
X2139087Y2065500D01*
X2139087D02*
X2139400Y2065955D01*
X2139712Y2066182*
X2139712D02*
X2140337Y2066409D01*
X2140337D02*
X2141275D01*
X2141900Y2065955*
X2142212Y2065273*
X2142212D02*
Y2064364D01*
X2142212D02*
X2141900Y2063682D01*
X2141275Y2063227*
X2139400Y2068455D02*
Y2072545D01*
X2135650Y2074591D02*
X2142212D01*
X2135650D02*
X2142212Y2076409D01*
X2135650Y2078227D02*
X2142212Y2076409D01*
X2135650Y2078227D02*
X2142212D01*
X2135650Y2080273D02*
X2142212D01*
X2142212D02*
Y2083000D01*
X2135650Y2085045D02*
X2142212D01*
X2142212D02*
Y2087773D01*
X2135650Y2090273D02*
Y2092773D01*
X2138150Y2091409*
Y2092091*
X2138462Y2092545*
X2138462D02*
X2138775Y2092773D01*
X2139712Y2093000*
X2139712D02*
X2140337D01*
X2140337D02*
X2141275Y2092773D01*
X2141900Y2092318*
X2142212Y2091636*
X2142212D02*
Y2090955D01*
X2142212D02*
X2141900Y2090273D01*
X2141587Y2090045*
X2141587D02*
X2140962Y2089818D01*
X2135650Y2097318D02*
X2140025Y2095045D01*
Y2098455*
X2135650Y2097318D02*
X2142212D01*
X2165650Y2053000D02*
X2172212D01*
X2165650D02*
Y2055045D01*
X2165962Y2055727*
X2165962D02*
X2166275Y2055955D01*
X2166900Y2056182*
X2167525*
X2168150Y2055955*
X2168462Y2055727*
X2168462D02*
X2168775Y2055045D01*
Y2053000*
Y2054591D02*
X2172212Y2056182D01*
X2165650Y2058227D02*
X2172212D01*
X2165650D02*
Y2061182D01*
X2168775Y2058227D02*
Y2060045D01*
X2172212Y2058227D02*
Y2061182D01*
X2166587Y2066409D02*
X2165962Y2065955D01*
X2165962D02*
X2165650Y2065273D01*
Y2064364*
X2165962Y2063682*
X2165962D02*
X2166587Y2063227D01*
X2166587D02*
X2167212D01*
X2167212D02*
X2167837Y2063455D01*
X2167837D02*
X2168150Y2063682D01*
X2168462Y2064136*
X2168462D02*
X2169087Y2065500D01*
X2169087D02*
X2169400Y2065955D01*
X2169712Y2066182*
X2169712D02*
X2170337Y2066409D01*
X2170337D02*
X2171275D01*
X2171900Y2065955*
X2172212Y2065273*
X2172212D02*
Y2064364D01*
X2172212D02*
X2171900Y2063682D01*
X2171275Y2063227*
X2169400Y2068455D02*
Y2072545D01*
X2165650Y2074591D02*
X2172212D01*
X2165650D02*
X2172212Y2076409D01*
X2165650Y2078227D02*
X2172212Y2076409D01*
X2165650Y2078227D02*
X2172212D01*
X2165650Y2080273D02*
X2172212D01*
X2172212D02*
Y2083000D01*
X2165650Y2085045D02*
X2172212D01*
X2172212D02*
Y2087773D01*
X2165650Y2090273D02*
Y2092773D01*
X2168150Y2091409*
Y2092091*
X2168462Y2092545*
X2168462D02*
X2168775Y2092773D01*
X2169712Y2093000*
X2169712D02*
X2170337D01*
X2170337D02*
X2171275Y2092773D01*
X2171900Y2092318*
X2172212Y2091636*
X2172212D02*
Y2090955D01*
X2172212D02*
X2171900Y2090273D01*
X2171587Y2090045*
X2171587D02*
X2170962Y2089818D01*
X2165650Y2097318D02*
X2170025Y2095045D01*
Y2098455*
X2165650Y2097318D02*
X2172212D01*
X2205650Y2053000D02*
X2212212D01*
X2205650D02*
Y2055045D01*
X2205962Y2055727*
X2205962D02*
X2206275Y2055955D01*
X2206900Y2056182*
X2207525*
X2208150Y2055955*
X2208462Y2055727*
X2208462D02*
X2208775Y2055045D01*
Y2053000*
Y2054591D02*
X2212212Y2056182D01*
X2205650Y2058227D02*
X2212212D01*
X2205650D02*
Y2061182D01*
X2208775Y2058227D02*
Y2060045D01*
X2212212Y2058227D02*
Y2061182D01*
X2206587Y2066409D02*
X2205962Y2065955D01*
X2205962D02*
X2205650Y2065273D01*
Y2064364*
X2205962Y2063682*
X2205962D02*
X2206587Y2063227D01*
X2206587D02*
X2207212D01*
X2207212D02*
X2207837Y2063455D01*
X2207837D02*
X2208150Y2063682D01*
X2208462Y2064136*
X2208462D02*
X2209087Y2065500D01*
X2209087D02*
X2209400Y2065955D01*
X2209712Y2066182*
X2209712D02*
X2210337Y2066409D01*
X2210337D02*
X2211275D01*
X2211900Y2065955*
X2212212Y2065273*
X2212212D02*
Y2064364D01*
X2212212D02*
X2211900Y2063682D01*
X2211275Y2063227*
X2209400Y2068455D02*
Y2072545D01*
X2205650Y2074591D02*
X2212212D01*
X2205650D02*
X2212212Y2076409D01*
X2205650Y2078227D02*
X2212212Y2076409D01*
X2205650Y2078227D02*
X2212212D01*
X2205650Y2080273D02*
X2212212D01*
X2212212D02*
Y2083000D01*
X2205650Y2085045D02*
X2212212D01*
X2212212D02*
Y2087773D01*
X2205650Y2090273D02*
Y2092773D01*
X2208150Y2091409*
Y2092091*
X2208462Y2092545*
X2208462D02*
X2208775Y2092773D01*
X2209712Y2093000*
X2209712D02*
X2210337D01*
X2210337D02*
X2211275Y2092773D01*
X2211900Y2092318*
X2212212Y2091636*
X2212212D02*
Y2090955D01*
X2212212D02*
X2211900Y2090273D01*
X2211587Y2090045*
X2211587D02*
X2210962Y2089818D01*
X2205650Y2097318D02*
X2210025Y2095045D01*
Y2098455*
X2205650Y2097318D02*
X2212212D01*
X2026909Y2074688D02*
X2026682Y2075313D01*
X2026682D02*
X2026227Y2075938D01*
X2026227D02*
X2025773Y2076250D01*
X2024864*
X2024409Y2075938*
X2024409D02*
X2023955Y2075313D01*
X2023955D02*
X2023727Y2074688D01*
X2023727D02*
X2023500Y2073750D01*
Y2072188*
X2023500D02*
X2023727Y2071250D01*
X2023955Y2070625*
X2024409Y2070000*
X2024864Y2069688*
X2024864D02*
X2025773D01*
X2025773D02*
X2026227Y2070000D01*
X2026682Y2070625*
X2026909Y2071250*
X2030773Y2076250D02*
X2028955Y2069688D01*
X2030773Y2076250D02*
X2032591Y2069688D01*
X2029636Y2071875D02*
X2031909D01*
X2034636Y2076250D02*
Y2069688D01*
Y2076250D02*
X2036682D01*
X2037364Y2075938*
X2037364D02*
X2037591Y2075625D01*
X2037818Y2075000*
Y2074063*
X2037818D02*
X2037591Y2073438D01*
X2037591D02*
X2037364Y2073125D01*
X2036682Y2072813*
X2036682D02*
X2034636D01*
X2039864Y2072500D02*
X2043955D01*
X2049409Y2074688D02*
X2049182Y2075313D01*
X2049182D02*
X2048727Y2075938D01*
X2048727D02*
X2048273Y2076250D01*
X2047364*
X2046909Y2075938*
X2046909D02*
X2046455Y2075313D01*
X2046455D02*
X2046227Y2074688D01*
X2046227D02*
X2046000Y2073750D01*
Y2072188*
X2046000D02*
X2046227Y2071250D01*
X2046455Y2070625*
X2046909Y2070000*
X2047364Y2069688*
X2047364D02*
X2048273D01*
X2048273D02*
X2048727Y2070000D01*
X2049182Y2070625*
X2049409Y2071250*
X2054864Y2074688D02*
X2054636Y2075313D01*
X2054636D02*
X2054182Y2075938D01*
X2054182D02*
X2053727Y2076250D01*
X2052818*
X2052364Y2075938*
X2052364D02*
X2051909Y2075313D01*
X2051909D02*
X2051682Y2074688D01*
X2051682D02*
X2051455Y2073750D01*
Y2072188*
X2051455D02*
X2051682Y2071250D01*
X2051909Y2070625*
X2052364Y2070000*
X2052818Y2069688*
X2052818D02*
X2053727D01*
X2053727D02*
X2054182Y2070000D01*
X2054636Y2070625*
X2054864Y2071250*
X2058273Y2076250D02*
X2057591Y2075938D01*
X2057591D02*
X2057136Y2075000D01*
X2056909Y2073438*
X2056909D02*
Y2072500D01*
X2057136Y2070938*
X2057136D02*
X2057591Y2070000D01*
X2058273Y2069688*
X2058273D02*
X2058727D01*
X2058727D02*
X2059409Y2070000D01*
X2059864Y2070938*
X2059864D02*
X2060091Y2072500D01*
Y2073438*
X2060091D02*
X2059864Y2075000D01*
X2059409Y2075938*
X2059409D02*
X2058727Y2076250D01*
X2058273*
X2064864Y2075313D02*
X2064636Y2075938D01*
X2064636D02*
X2063955Y2076250D01*
X2063500*
X2062818Y2075938*
X2062818D02*
X2062364Y2075000D01*
X2062136Y2073438*
X2062136D02*
Y2071875D01*
X2062364Y2070625*
X2062818Y2070000*
X2063500Y2069688*
X2063500D02*
X2063727D01*
X2063727D02*
X2064409Y2070000D01*
X2064864Y2070625*
X2065091Y2071563*
X2065091D02*
Y2071875D01*
X2064864Y2072813*
X2064864D02*
X2064409Y2073438D01*
X2064409D02*
X2063727Y2073750D01*
X2063500*
X2062818Y2073438*
X2062818D02*
X2062364Y2072813D01*
X2062364D02*
X2062136Y2071875D01*
X2346909Y2074688D02*
X2346682Y2075313D01*
X2346682D02*
X2346227Y2075938D01*
X2346227D02*
X2345773Y2076250D01*
X2344864*
X2344409Y2075938*
X2344409D02*
X2343955Y2075313D01*
X2343955D02*
X2343727Y2074688D01*
X2343727D02*
X2343500Y2073750D01*
Y2072188*
X2343500D02*
X2343727Y2071250D01*
X2343955Y2070625*
X2344409Y2070000*
X2344864Y2069688*
X2344864D02*
X2345773D01*
X2345773D02*
X2346227Y2070000D01*
X2346682Y2070625*
X2346909Y2071250*
X2350773Y2076250D02*
X2348955Y2069688D01*
X2350773Y2076250D02*
X2352591Y2069688D01*
X2349636Y2071875D02*
X2351909D01*
X2354636Y2076250D02*
Y2069688D01*
Y2076250D02*
X2356682D01*
X2357364Y2075938*
X2357364D02*
X2357591Y2075625D01*
X2357818Y2075000*
Y2074063*
X2357818D02*
X2357591Y2073438D01*
X2357591D02*
X2357364Y2073125D01*
X2356682Y2072813*
X2356682D02*
X2354636D01*
X2359864Y2072500D02*
X2363955D01*
X2369409Y2074688D02*
X2369182Y2075313D01*
X2369182D02*
X2368727Y2075938D01*
X2368727D02*
X2368273Y2076250D01*
X2367364*
X2366909Y2075938*
X2366909D02*
X2366455Y2075313D01*
X2366455D02*
X2366227Y2074688D01*
X2366227D02*
X2366000Y2073750D01*
Y2072188*
X2366000D02*
X2366227Y2071250D01*
X2366455Y2070625*
X2366909Y2070000*
X2367364Y2069688*
X2367364D02*
X2368273D01*
X2368273D02*
X2368727Y2070000D01*
X2369182Y2070625*
X2369409Y2071250*
X2374864Y2074688D02*
X2374636Y2075313D01*
X2374636D02*
X2374182Y2075938D01*
X2374182D02*
X2373727Y2076250D01*
X2372818*
X2372364Y2075938*
X2372364D02*
X2371909Y2075313D01*
X2371909D02*
X2371682Y2074688D01*
X2371682D02*
X2371455Y2073750D01*
Y2072188*
X2371455D02*
X2371682Y2071250D01*
X2371909Y2070625*
X2372364Y2070000*
X2372818Y2069688*
X2372818D02*
X2373727D01*
X2373727D02*
X2374182Y2070000D01*
X2374636Y2070625*
X2374864Y2071250*
X2378273Y2076250D02*
X2377591Y2075938D01*
X2377591D02*
X2377136Y2075000D01*
X2376909Y2073438*
X2376909D02*
Y2072500D01*
X2377136Y2070938*
X2377136D02*
X2377591Y2070000D01*
X2378273Y2069688*
X2378273D02*
X2378727D01*
X2378727D02*
X2379409Y2070000D01*
X2379864Y2070938*
X2379864D02*
X2380091Y2072500D01*
Y2073438*
X2380091D02*
X2379864Y2075000D01*
X2379409Y2075938*
X2379409D02*
X2378727Y2076250D01*
X2378273*
X2384864Y2075313D02*
X2384636Y2075938D01*
X2384636D02*
X2383955Y2076250D01*
X2383500*
X2382818Y2075938*
X2382818D02*
X2382364Y2075000D01*
X2382136Y2073438*
X2382136D02*
Y2071875D01*
X2382364Y2070625*
X2382818Y2070000*
X2383500Y2069688*
X2383500D02*
X2383727D01*
X2383727D02*
X2384409Y2070000D01*
X2384864Y2070625*
X2385091Y2071563*
X2385091D02*
Y2071875D01*
X2384864Y2072813*
X2384864D02*
X2384409Y2073438D01*
X2384409D02*
X2383727Y2073750D01*
X2383500*
X2382818Y2073438*
X2382818D02*
X2382364Y2072813D01*
X2382364D02*
X2382136Y2071875D01*
X2210000Y1938750D02*
X2213182Y1932188D01*
Y1938750D02*
X2210000Y1932188D01*
X2216818Y1938750D02*
Y1932188D01*
X2215227Y1938750D02*
X2218409D01*
X2222273D02*
X2220455Y1932188D01*
X2222273Y1938750D02*
X2224091Y1932188D01*
X2221136Y1934375D02*
X2223409D01*
X2226136Y1938750D02*
Y1932188D01*
X2226136D02*
X2228864D01*
X2230909Y1937500D02*
X2231364Y1937813D01*
X2231364D02*
X2232045Y1938750D01*
Y1932188*
X2336809Y2036488D02*
X2336582Y2037113D01*
X2336582D02*
X2336127Y2037738D01*
X2336127D02*
X2335673Y2038050D01*
X2334764*
X2334309Y2037738*
X2334309D02*
X2333855Y2037113D01*
X2333855D02*
X2333627Y2036488D01*
X2333627D02*
X2333400Y2035550D01*
Y2033988*
X2333400D02*
X2333627Y2033050D01*
X2333855Y2032425*
X2334309Y2031800*
X2334764Y2031488*
X2334764D02*
X2335673D01*
X2335673D02*
X2336127Y2031800D01*
X2336582Y2032425*
X2336809Y2033050*
X2340673Y2038050D02*
X2338855Y2031488D01*
X2340673Y2038050D02*
X2342491Y2031488D01*
X2339536Y2033675D02*
X2341809D01*
X2344536Y2038050D02*
Y2031488D01*
Y2038050D02*
X2346582D01*
X2347264Y2037738*
X2347264D02*
X2347491Y2037425D01*
X2347718Y2036800*
Y2035863*
X2347718D02*
X2347491Y2035238D01*
X2347491D02*
X2347264Y2034925D01*
X2346582Y2034613*
X2346582D02*
X2344536D01*
X2349764Y2034300D02*
X2353855D01*
X2357718Y2038050D02*
X2355900Y2031488D01*
X2357718Y2038050D02*
X2359536Y2031488D01*
X2356582Y2033675D02*
X2358855D01*
X2361582Y2038050D02*
Y2031488D01*
Y2038050D02*
X2364536D01*
X2361582Y2034925D02*
X2363400D01*
X2361582Y2031488D02*
X2364536D01*
X2369536Y2038050D02*
X2367264D01*
X2367036Y2035238*
X2367036D02*
X2367264Y2035550D01*
X2367945Y2035863*
X2367945D02*
X2368627D01*
X2368627D02*
X2369309Y2035550D01*
X2369764Y2034925*
X2369991Y2033988*
X2369991D02*
X2369764Y2033363D01*
X2369764D02*
X2369536Y2032425D01*
X2369082Y2031800*
X2368400Y2031488*
X2368400D02*
X2367718D01*
X2367718D02*
X2367036Y2031800D01*
X2366809Y2032113*
X2366809D02*
X2366582Y2032738D01*
X2296809Y2036488D02*
X2296582Y2037113D01*
X2296582D02*
X2296127Y2037738D01*
X2296127D02*
X2295673Y2038050D01*
X2294764*
X2294309Y2037738*
X2294309D02*
X2293855Y2037113D01*
X2293855D02*
X2293627Y2036488D01*
X2293627D02*
X2293400Y2035550D01*
Y2033988*
X2293400D02*
X2293627Y2033050D01*
X2293855Y2032425*
X2294309Y2031800*
X2294764Y2031488*
X2294764D02*
X2295673D01*
X2295673D02*
X2296127Y2031800D01*
X2296582Y2032425*
X2296809Y2033050*
X2300673Y2038050D02*
X2298855Y2031488D01*
X2300673Y2038050D02*
X2302491Y2031488D01*
X2299536Y2033675D02*
X2301809D01*
X2304536Y2038050D02*
Y2031488D01*
Y2038050D02*
X2306582D01*
X2307264Y2037738*
X2307264D02*
X2307491Y2037425D01*
X2307718Y2036800*
Y2035863*
X2307718D02*
X2307491Y2035238D01*
X2307491D02*
X2307264Y2034925D01*
X2306582Y2034613*
X2306582D02*
X2304536D01*
X2309764Y2034300D02*
X2313855D01*
X2317718Y2038050D02*
X2315900Y2031488D01*
X2317718Y2038050D02*
X2319536Y2031488D01*
X2316582Y2033675D02*
X2318855D01*
X2321582Y2038050D02*
Y2031488D01*
Y2038050D02*
X2324536D01*
X2321582Y2034925D02*
X2323400D01*
X2321582Y2031488D02*
X2324536D01*
X2329536Y2038050D02*
X2327264D01*
X2327036Y2035238*
X2327036D02*
X2327264Y2035550D01*
X2327945Y2035863*
X2327945D02*
X2328627D01*
X2328627D02*
X2329309Y2035550D01*
X2329764Y2034925*
X2329991Y2033988*
X2329991D02*
X2329764Y2033363D01*
X2329764D02*
X2329536Y2032425D01*
X2329082Y2031800*
X2328400Y2031488*
X2328400D02*
X2327718D01*
X2327718D02*
X2327036Y2031800D01*
X2326809Y2032113*
X2326809D02*
X2326582Y2032738D01*
X2284318Y1901250D02*
X2282500Y1894688D01*
X2284318Y1901250D02*
X2286136Y1894688D01*
X2283182Y1896875D02*
X2285455D01*
X2288182Y1901250D02*
Y1894688D01*
Y1901250D02*
X2290000Y1894688D01*
X2291818Y1901250D02*
X2290000Y1894688D01*
X2291818Y1901250D02*
Y1894688D01*
X2293864Y1901250D02*
Y1894688D01*
Y1901250D02*
X2295909D01*
X2296591Y1900938*
X2296591D02*
X2296818Y1900625D01*
X2297045Y1900000*
Y1899063*
X2297045D02*
X2296818Y1898438D01*
X2296818D02*
X2296591Y1898125D01*
X2295909Y1897813*
X2295909D02*
X2293864D01*
X2299091Y1900000D02*
X2299545Y1900313D01*
X2299545D02*
X2300227Y1901250D01*
Y1894688*
X2302273Y1897500D02*
X2306364D01*
X2308409Y1900000D02*
X2308864Y1900313D01*
X2308864D02*
X2309545Y1901250D01*
Y1894688*
X2312955Y1901250D02*
X2312273Y1900938D01*
X2312273D02*
X2311818Y1900000D01*
X2311591Y1898438*
X2311591D02*
Y1897500D01*
X2311818Y1895938*
X2311818D02*
X2312273Y1895000D01*
X2312955Y1894688*
X2312955D02*
X2313409D01*
X2313409D02*
X2314091Y1895000D01*
X2314545Y1895938*
X2314545D02*
X2314773Y1897500D01*
Y1898438*
X2314773D02*
X2314545Y1900000D01*
X2314091Y1900938*
X2314091D02*
X2313409Y1901250D01*
X2312955*
X2235650Y2053000D02*
X2242212D01*
X2235650D02*
Y2055045D01*
X2235962Y2055727*
X2235962D02*
X2236275Y2055955D01*
X2236900Y2056182*
X2237525*
X2238150Y2055955*
X2238462Y2055727*
X2238462D02*
X2238775Y2055045D01*
Y2053000*
Y2054591D02*
X2242212Y2056182D01*
X2235650Y2058227D02*
X2242212D01*
X2235650D02*
Y2061182D01*
X2238775Y2058227D02*
Y2060045D01*
X2242212Y2058227D02*
Y2061182D01*
X2236587Y2066409D02*
X2235962Y2065955D01*
X2235962D02*
X2235650Y2065273D01*
Y2064364*
X2235962Y2063682*
X2235962D02*
X2236587Y2063227D01*
X2236587D02*
X2237212D01*
X2237212D02*
X2237837Y2063455D01*
X2237837D02*
X2238150Y2063682D01*
X2238462Y2064136*
X2238462D02*
X2239087Y2065500D01*
X2239087D02*
X2239400Y2065955D01*
X2239712Y2066182*
X2239712D02*
X2240337Y2066409D01*
X2240337D02*
X2241275D01*
X2241900Y2065955*
X2242212Y2065273*
X2242212D02*
Y2064364D01*
X2242212D02*
X2241900Y2063682D01*
X2241275Y2063227*
X2239400Y2068455D02*
Y2072545D01*
X2235650Y2074591D02*
X2242212D01*
X2235650D02*
X2242212Y2076409D01*
X2235650Y2078227D02*
X2242212Y2076409D01*
X2235650Y2078227D02*
X2242212D01*
X2235650Y2080273D02*
X2242212D01*
X2242212D02*
Y2083000D01*
X2235650Y2085045D02*
X2242212D01*
X2242212D02*
Y2087773D01*
X2235650Y2090273D02*
Y2092773D01*
X2238150Y2091409*
Y2092091*
X2238462Y2092545*
X2238462D02*
X2238775Y2092773D01*
X2239712Y2093000*
X2239712D02*
X2240337D01*
X2240337D02*
X2241275Y2092773D01*
X2241900Y2092318*
X2242212Y2091636*
X2242212D02*
Y2090955D01*
X2242212D02*
X2241900Y2090273D01*
X2241587Y2090045*
X2241587D02*
X2240962Y2089818D01*
X2235650Y2097318D02*
X2240025Y2095045D01*
Y2098455*
X2235650Y2097318D02*
X2242212D01*
X2066909Y2074688D02*
X2066682Y2075313D01*
X2066682D02*
X2066227Y2075938D01*
X2066227D02*
X2065773Y2076250D01*
X2064864*
X2064409Y2075938*
X2064409D02*
X2063955Y2075313D01*
X2063955D02*
X2063727Y2074688D01*
X2063727D02*
X2063500Y2073750D01*
Y2072188*
X2063500D02*
X2063727Y2071250D01*
X2063955Y2070625*
X2064409Y2070000*
X2064864Y2069688*
X2064864D02*
X2065773D01*
X2065773D02*
X2066227Y2070000D01*
X2066682Y2070625*
X2066909Y2071250*
X2070773Y2076250D02*
X2068955Y2069688D01*
X2070773Y2076250D02*
X2072591Y2069688D01*
X2069636Y2071875D02*
X2071909D01*
X2074636Y2076250D02*
Y2069688D01*
Y2076250D02*
X2076682D01*
X2077364Y2075938*
X2077364D02*
X2077591Y2075625D01*
X2077818Y2075000*
Y2074063*
X2077818D02*
X2077591Y2073438D01*
X2077591D02*
X2077364Y2073125D01*
X2076682Y2072813*
X2076682D02*
X2074636D01*
X2079864Y2072500D02*
X2083955D01*
X2089409Y2074688D02*
X2089182Y2075313D01*
X2089182D02*
X2088727Y2075938D01*
X2088727D02*
X2088273Y2076250D01*
X2087364*
X2086909Y2075938*
X2086909D02*
X2086455Y2075313D01*
X2086455D02*
X2086227Y2074688D01*
X2086227D02*
X2086000Y2073750D01*
Y2072188*
X2086000D02*
X2086227Y2071250D01*
X2086455Y2070625*
X2086909Y2070000*
X2087364Y2069688*
X2087364D02*
X2088273D01*
X2088273D02*
X2088727Y2070000D01*
X2089182Y2070625*
X2089409Y2071250*
X2094864Y2074688D02*
X2094636Y2075313D01*
X2094636D02*
X2094182Y2075938D01*
X2094182D02*
X2093727Y2076250D01*
X2092818*
X2092364Y2075938*
X2092364D02*
X2091909Y2075313D01*
X2091909D02*
X2091682Y2074688D01*
X2091682D02*
X2091455Y2073750D01*
Y2072188*
X2091455D02*
X2091682Y2071250D01*
X2091909Y2070625*
X2092364Y2070000*
X2092818Y2069688*
X2092818D02*
X2093727D01*
X2093727D02*
X2094182Y2070000D01*
X2094636Y2070625*
X2094864Y2071250*
X2098273Y2076250D02*
X2097591Y2075938D01*
X2097591D02*
X2097136Y2075000D01*
X2096909Y2073438*
X2096909D02*
Y2072500D01*
X2097136Y2070938*
X2097136D02*
X2097591Y2070000D01*
X2098273Y2069688*
X2098273D02*
X2098727D01*
X2098727D02*
X2099409Y2070000D01*
X2099864Y2070938*
X2099864D02*
X2100091Y2072500D01*
Y2073438*
X2100091D02*
X2099864Y2075000D01*
X2099409Y2075938*
X2099409D02*
X2098727Y2076250D01*
X2098273*
X2104864Y2075313D02*
X2104636Y2075938D01*
X2104636D02*
X2103955Y2076250D01*
X2103500*
X2102818Y2075938*
X2102818D02*
X2102364Y2075000D01*
X2102136Y2073438*
X2102136D02*
Y2071875D01*
X2102364Y2070625*
X2102818Y2070000*
X2103500Y2069688*
X2103500D02*
X2103727D01*
X2103727D02*
X2104409Y2070000D01*
X2104864Y2070625*
X2105091Y2071563*
X2105091D02*
Y2071875D01*
X2104864Y2072813*
X2104864D02*
X2104409Y2073438D01*
X2104409D02*
X2103727Y2073750D01*
X2103500*
X2102818Y2073438*
X2102818D02*
X2102364Y2072813D01*
X2102364D02*
X2102136Y2071875D01*
X2255000Y2013750D02*
Y2007188D01*
X2255000D02*
X2257727D01*
X2259773Y2013750D02*
Y2007188D01*
Y2013750D02*
X2262727D01*
X2259773Y2010625D02*
X2261591D01*
X2259773Y2007188D02*
X2262727D01*
X2264773Y2013750D02*
Y2007188D01*
Y2013750D02*
X2266364D01*
X2267045Y2013438*
X2267045D02*
X2267500Y2012813D01*
X2267500D02*
X2267727Y2012188D01*
X2267727D02*
X2267955Y2011250D01*
Y2009688*
X2267955D02*
X2267727Y2008750D01*
X2267500Y2008125*
X2267045Y2007500*
X2266364Y2007188*
X2266364D02*
X2264773D01*
X2073000Y2074350D02*
Y2067788D01*
Y2074350D02*
X2075045D01*
X2075727Y2074038*
X2075727D02*
X2075955Y2073725D01*
X2076182Y2073100*
Y2072475*
X2075955Y2071850*
X2075727Y2071538*
X2075727D02*
X2075045Y2071225D01*
X2073000*
X2074591D02*
X2076182Y2067788D01*
X2078227Y2074350D02*
Y2067788D01*
Y2074350D02*
X2081182D01*
X2078227Y2071225D02*
X2080045D01*
X2078227Y2067788D02*
X2081182D01*
X2086409Y2073413D02*
X2085955Y2074038D01*
X2085955D02*
X2085273Y2074350D01*
X2084364*
X2083682Y2074038*
X2083682D02*
X2083227Y2073413D01*
X2083227D02*
Y2072788D01*
X2083227D02*
X2083455Y2072163D01*
X2083455D02*
X2083682Y2071850D01*
X2084136Y2071538*
X2084136D02*
X2085500Y2070913D01*
X2085500D02*
X2085955Y2070600D01*
X2086182Y2070288*
X2086182D02*
X2086409Y2069663D01*
X2086409D02*
Y2068725D01*
X2085955Y2068100*
X2085273Y2067788*
X2085273D02*
X2084364D01*
X2084364D02*
X2083682Y2068100D01*
X2083227Y2068725*
X2088455Y2070600D02*
X2092545D01*
X2094591Y2074350D02*
Y2067788D01*
Y2074350D02*
X2096409Y2067788D01*
X2098227Y2074350D02*
X2096409Y2067788D01*
X2098227Y2074350D02*
Y2067788D01*
X2100273Y2074350D02*
Y2067788D01*
X2100273D02*
X2103000D01*
X2105045Y2074350D02*
Y2067788D01*
X2105045D02*
X2107773D01*
X2110273Y2074350D02*
X2112773D01*
X2111409Y2071850*
X2112091*
X2112545Y2071538*
X2112545D02*
X2112773Y2071225D01*
X2113000Y2070288*
X2113000D02*
Y2069663D01*
X2113000D02*
X2112773Y2068725D01*
X2112318Y2068100*
X2111636Y2067788*
X2111636D02*
X2110955D01*
X2110955D02*
X2110273Y2068100D01*
X2110045Y2068413*
X2110045D02*
X2109818Y2069038D01*
X2117318Y2074350D02*
X2115045Y2069975D01*
X2118455*
X2117318Y2074350D02*
Y2067788D01*
X2125000Y2028750D02*
Y2022188D01*
Y2028750D02*
X2127955D01*
X2125000Y2025625D02*
X2126818D01*
X2130000Y2028750D02*
Y2024063D01*
X2130000D02*
X2130227Y2023125D01*
X2130682Y2022500*
X2131364Y2022188*
X2131364D02*
X2131818D01*
X2131818D02*
X2132500Y2022500D01*
X2132955Y2023125*
X2133182Y2024063*
X2133182D02*
Y2028750D01*
X2138409Y2027813D02*
X2137955Y2028438D01*
X2137955D02*
X2137273Y2028750D01*
X2136364*
X2135682Y2028438*
X2135682D02*
X2135227Y2027813D01*
X2135227D02*
Y2027188D01*
X2135227D02*
X2135455Y2026563D01*
X2135455D02*
X2135682Y2026250D01*
X2136136Y2025938*
X2136136D02*
X2137500Y2025313D01*
X2137500D02*
X2137955Y2025000D01*
X2138182Y2024688*
X2138182D02*
X2138409Y2024063D01*
X2138409D02*
Y2023125D01*
X2137955Y2022500*
X2137273Y2022188*
X2137273D02*
X2136364D01*
X2136364D02*
X2135682Y2022500D01*
X2135227Y2023125*
X2140455Y2028750D02*
Y2022188D01*
Y2028750D02*
X2143409D01*
X2140455Y2025625D02*
X2142273D01*
X2140455Y2022188D02*
X2143409D01*
X1937109Y2080188D02*
X1936882Y2080813D01*
X1936882D02*
X1936427Y2081438D01*
X1936427D02*
X1935973Y2081750D01*
X1935064*
X1934609Y2081438*
X1934609D02*
X1934155Y2080813D01*
X1934155D02*
X1933927Y2080188D01*
X1933927D02*
X1933700Y2079250D01*
Y2077688*
X1933700D02*
X1933927Y2076750D01*
X1934155Y2076125*
X1934609Y2075500*
X1935064Y2075188*
X1935064D02*
X1935973D01*
X1935973D02*
X1936427Y2075500D01*
X1936882Y2076125*
X1937109Y2076750*
X1940973Y2081750D02*
X1939155Y2075188D01*
X1940973Y2081750D02*
X1942791Y2075188D01*
X1939836Y2077375D02*
X1942109D01*
X1944836Y2081750D02*
Y2075188D01*
Y2081750D02*
X1946882D01*
X1947564Y2081438*
X1947564D02*
X1947791Y2081125D01*
X1948018Y2080500*
Y2079563*
X1948018D02*
X1947791Y2078938D01*
X1947791D02*
X1947564Y2078625D01*
X1946882Y2078313*
X1946882D02*
X1944836D01*
X1950064Y2078000D02*
X1954155D01*
X1956200Y2081750D02*
Y2075188D01*
Y2081750D02*
X1958245D01*
X1958927Y2081438*
X1958927D02*
X1959155Y2081125D01*
X1959382Y2080500*
Y2079875*
X1959155Y2079250*
X1958927Y2078938*
X1958927D02*
X1958245Y2078625D01*
X1956200D02*
X1958245D01*
X1958927Y2078313*
X1958927D02*
X1959155Y2078000D01*
X1959382Y2077375*
Y2076438*
X1959382D02*
X1959155Y2075813D01*
X1959155D02*
X1958927Y2075500D01*
X1958245Y2075188*
X1958245D02*
X1956200D01*
X1964155Y2080813D02*
X1963927Y2081438D01*
X1963927D02*
X1963245Y2081750D01*
X1962791*
X1962109Y2081438*
X1962109D02*
X1961655Y2080500D01*
X1961427Y2078938*
X1961427D02*
Y2077375D01*
X1961655Y2076125*
X1962109Y2075500*
X1962791Y2075188*
X1962791D02*
X1963018D01*
X1963018D02*
X1963700Y2075500D01*
X1964155Y2076125*
X1964382Y2077063*
X1964382D02*
Y2077375D01*
X1964155Y2078313*
X1964155D02*
X1963700Y2078938D01*
X1963700D02*
X1963018Y2079250D01*
X1962791*
X1962109Y2078938*
X1962109D02*
X1961655Y2078313D01*
X1961655D02*
X1961427Y2077375D01*
X1922891Y2039812D02*
X1923118Y2039187D01*
X1923118D02*
X1923573Y2038562D01*
X1923573D02*
X1924027Y2038250D01*
X1924936*
X1925391Y2038562*
X1925391D02*
X1925845Y2039187D01*
X1925845D02*
X1926073Y2039812D01*
X1926073D02*
X1926300Y2040750D01*
Y2042312*
X1926300D02*
X1926073Y2043250D01*
X1925845Y2043875*
X1925391Y2044500*
X1924936Y2044812*
X1924936D02*
X1924027D01*
X1924027D02*
X1923573Y2044500D01*
X1923118Y2043875*
X1922891Y2043250*
X1919027Y2038250D02*
X1920845Y2044812D01*
X1919027Y2038250D02*
X1917209Y2044812D01*
X1920164Y2042625D02*
X1917891D01*
X1915164Y2038250D02*
Y2044812D01*
Y2038250D02*
X1913118D01*
X1912436Y2038562*
X1912436D02*
X1912209Y2038875D01*
X1911982Y2039500*
Y2040437*
X1911982D02*
X1912209Y2041062D01*
X1912209D02*
X1912436Y2041375D01*
X1913118Y2041687*
X1913118D02*
X1915164D01*
X1909936Y2042000D02*
X1905845D01*
X1903800Y2038250D02*
Y2044812D01*
Y2038250D02*
X1901755D01*
X1901073Y2038562*
X1901073D02*
X1900845Y2038875D01*
X1900618Y2039500*
Y2040125*
X1900845Y2040750*
X1901073Y2041062*
X1901073D02*
X1901755Y2041375D01*
X1903800D02*
X1901755D01*
X1901073Y2041687*
X1901073D02*
X1900845Y2042000D01*
X1900618Y2042625*
Y2043562*
X1900618D02*
X1900845Y2044187D01*
X1900845D02*
X1901073Y2044500D01*
X1901755Y2044812*
X1901755D02*
X1903800D01*
X1895845Y2039187D02*
X1896073Y2038562D01*
X1896073D02*
X1896755Y2038250D01*
X1897209*
X1897891Y2038562*
X1897891D02*
X1898345Y2039500D01*
X1898573Y2041062*
X1898573D02*
Y2042625D01*
X1898345Y2043875*
X1897891Y2044500*
X1897209Y2044812*
X1897209D02*
X1896982D01*
X1896982D02*
X1896300Y2044500D01*
X1895845Y2043875*
X1895618Y2042937*
X1895618D02*
Y2042625D01*
X1895845Y2041687*
X1895845D02*
X1896300Y2041062D01*
X1896300D02*
X1896982Y2040750D01*
X1897209*
X1897891Y2041062*
X1897891D02*
X1898345Y2041687D01*
X1898345D02*
X1898573Y2042625D01*
X2314318Y1901250D02*
X2312500Y1894688D01*
X2314318Y1901250D02*
X2316136Y1894688D01*
X2313182Y1896875D02*
X2315455D01*
X2318182Y1901250D02*
Y1894688D01*
Y1901250D02*
X2320000Y1894688D01*
X2321818Y1901250D02*
X2320000Y1894688D01*
X2321818Y1901250D02*
Y1894688D01*
X2323864Y1901250D02*
Y1894688D01*
Y1901250D02*
X2325909D01*
X2326591Y1900938*
X2326591D02*
X2326818Y1900625D01*
X2327045Y1900000*
Y1899063*
X2327045D02*
X2326818Y1898438D01*
X2326818D02*
X2326591Y1898125D01*
X2325909Y1897813*
X2325909D02*
X2323864D01*
X2329091Y1900000D02*
X2329545Y1900313D01*
X2329545D02*
X2330227Y1901250D01*
Y1894688*
X2332273Y1897500D02*
X2336364D01*
X2338409Y1900000D02*
X2338864Y1900313D01*
X2338864D02*
X2339545Y1901250D01*
Y1894688*
X2342955Y1901250D02*
X2342273Y1900938D01*
X2342273D02*
X2341818Y1900000D01*
X2341591Y1898438*
X2341591D02*
Y1897500D01*
X2341818Y1895938*
X2341818D02*
X2342273Y1895000D01*
X2342955Y1894688*
X2342955D02*
X2343409D01*
X2343409D02*
X2344091Y1895000D01*
X2344545Y1895938*
X2344545D02*
X2344773Y1897500D01*
Y1898438*
X2344773D02*
X2344545Y1900000D01*
X2344091Y1900938*
X2344091D02*
X2343409Y1901250D01*
X2342955*
X2254318D02*
X2252500Y1894688D01*
X2254318Y1901250D02*
X2256136Y1894688D01*
X2253182Y1896875D02*
X2255455D01*
X2258182Y1901250D02*
Y1894688D01*
Y1901250D02*
X2260000Y1894688D01*
X2261818Y1901250D02*
X2260000Y1894688D01*
X2261818Y1901250D02*
Y1894688D01*
X2263864Y1901250D02*
Y1894688D01*
Y1901250D02*
X2265909D01*
X2266591Y1900938*
X2266591D02*
X2266818Y1900625D01*
X2267045Y1900000*
Y1899063*
X2267045D02*
X2266818Y1898438D01*
X2266818D02*
X2266591Y1898125D01*
X2265909Y1897813*
X2265909D02*
X2263864D01*
X2269091Y1900000D02*
X2269545Y1900313D01*
X2269545D02*
X2270227Y1901250D01*
Y1894688*
X2272273Y1897500D02*
X2276364D01*
X2278409Y1900000D02*
X2278864Y1900313D01*
X2278864D02*
X2279545Y1901250D01*
Y1894688*
X2282955Y1901250D02*
X2282273Y1900938D01*
X2282273D02*
X2281818Y1900000D01*
X2281591Y1898438*
X2281591D02*
Y1897500D01*
X2281818Y1895938*
X2281818D02*
X2282273Y1895000D01*
X2282955Y1894688*
X2282955D02*
X2283409D01*
X2283409D02*
X2284091Y1895000D01*
X2284545Y1895938*
X2284545D02*
X2284773Y1897500D01*
Y1898438*
X2284773D02*
X2284545Y1900000D01*
X2284091Y1900938*
X2284091D02*
X2283409Y1901250D01*
X2282955*
G54D49*
X2287500Y1920000D02*
Y1940000D01*
X2292500*
Y1920000*
X2287500*
X2317500D02*
Y1940000D01*
X2322500*
Y1920000*
X2317500*
X2257500D02*
Y1940000D01*
X2262500*
Y1920000*
X2257500*
G54D50*
X2154000Y1996167D02*
Y1992476D01*
X2154179Y1991738*
X2154537Y1991246*
X2155074Y1991000*
X2155432*
X2155969Y1991246*
X2156326Y1991738*
X2156505Y1992476*
Y1996167*
X2158116Y1995183D02*
X2158474Y1995429D01*
X2159011Y1996167*
Y1991000*
X2267000Y2034167D02*
Y2030476D01*
X2267179Y2029738*
X2267537Y2029246*
X2268074Y2029000*
X2268432*
X2268969Y2029246*
X2269326Y2029738*
X2269505Y2030476*
Y2034167*
X2271295Y2032937D02*
Y2033183D01*
X2271474Y2033675*
X2271653Y2033921*
X2272011Y2034167*
X2272727*
X2273084Y2033921*
X2273263Y2033675*
X2273442Y2033183*
Y2032691*
X2273263Y2032199*
X2272906Y2031461*
X2271116Y2029000*
X2273621*
X2073000Y1913167D02*
Y1908000D01*
X2075147*
X2079442Y1911937D02*
X2079263Y1912429D01*
X2078906Y1912921*
X2078548Y1913167*
X2077832*
X2077474Y1912921*
X2077116Y1912429*
X2076937Y1911937*
X2076758Y1911199*
Y1909969*
X2076937Y1909230*
X2077116Y1908738*
X2077474Y1908246*
X2077832Y1908000*
X2078548*
X2078906Y1908246*
X2079263Y1908738*
X2079442Y1909230*
X2081053Y1913167D02*
Y1908000D01*
Y1913167D02*
X2082306D01*
X2082843Y1912921*
X2083200Y1912429*
X2083379Y1911937*
X2083558Y1911199*
Y1909969*
X2083379Y1909230*
X2083200Y1908738*
X2082843Y1908246*
X2082306Y1908000*
X2081053*
X2062505Y1864429D02*
X2062147Y1864921D01*
X2061611Y1865167*
X2060895*
X2060358Y1864921*
X2060000Y1864429*
Y1863937*
X2060179Y1863445*
X2060358Y1863199*
X2060716Y1862953*
X2061790Y1862461*
X2062147Y1862215*
X2062326Y1861969*
X2062505Y1861476*
Y1860738*
X2062147Y1860246*
X2061611Y1860000*
X2060895*
X2060358Y1860246*
X2060000Y1860738*
X2064116Y1865167D02*
X2064295Y1864921D01*
X2064474Y1865167*
X2064295Y1865413*
X2064116Y1865167*
X2064295Y1863445D02*
Y1860000D01*
X2068053Y1862707D02*
X2067874Y1863199D01*
X2067337Y1863445*
X2066800*
X2066263Y1863199*
X2066084Y1862707*
X2066263Y1862215*
X2066621Y1861969*
X2067516Y1861722*
X2067874Y1861476*
X2068053Y1860984*
Y1860738*
X2067874Y1860246*
X2067337Y1860000*
X2066800*
X2066263Y1860246*
X2066084Y1860738*
X2070200Y1865167D02*
Y1860984D01*
X2070379Y1860246*
X2070737Y1860000*
X2071095*
X2069664Y1863445D02*
X2070916D01*
X2072706Y1861969D02*
X2074853D01*
Y1862461*
X2074674Y1862953*
X2074495Y1863199*
X2074137Y1863445*
X2073601*
X2073243Y1863199*
X2072885Y1862707*
X2072706Y1861969*
Y1861476*
X2072885Y1860738*
X2073243Y1860246*
X2073601Y1860000*
X2074137*
X2074495Y1860246*
X2074853Y1860738*
X2076464Y1863445D02*
Y1860000D01*
Y1862461D02*
X2077001Y1863199D01*
X2077359Y1863445*
X2077895*
X2078253Y1863199*
X2078432Y1862461*
Y1860000*
Y1862461D02*
X2078969Y1863199D01*
X2079327Y1863445*
X2079864*
X2080222Y1863199*
X2080401Y1862461*
Y1860000*
X2088275Y1862707D02*
X2087917Y1863199D01*
X2087559Y1863445*
X2087022*
X2086664Y1863199*
X2086306Y1862707*
X2086127Y1861969*
Y1861476*
X2086306Y1860738*
X2086664Y1860246*
X2087022Y1860000*
X2087559*
X2087917Y1860246*
X2088275Y1860738*
X2089885Y1863445D02*
Y1860984D01*
X2090064Y1860246*
X2090422Y1860000*
X2090959*
X2091317Y1860246*
X2091854Y1860984*
Y1863445D02*
Y1860000D01*
X2097581Y1865167D02*
Y1860000D01*
Y1865167D02*
X2099012Y1860000D01*
X2100444Y1865167D02*
X2099012Y1860000D01*
X2100444Y1865167D02*
Y1860000D01*
X2104560Y1864429D02*
X2104202Y1864921D01*
X2103665Y1865167*
X2102949*
X2102412Y1864921*
X2102054Y1864429*
Y1863937*
X2102233Y1863445*
X2102412Y1863199*
X2102770Y1862953*
X2103844Y1862461*
X2104202Y1862215*
X2104381Y1861969*
X2104560Y1861476*
Y1860738*
X2104202Y1860246*
X2103665Y1860000*
X2102949*
X2102412Y1860246*
X2102054Y1860738*
X2106170Y1865167D02*
Y1860000D01*
Y1865167D02*
X2107781D01*
X2108318Y1864921*
X2108497Y1864675*
X2108676Y1864183*
Y1863445*
X2108497Y1862953*
X2108318Y1862707*
X2107781Y1862461*
X2106170*
X2112076Y1865167D02*
X2110286Y1861722D01*
X2112971*
X2112076Y1865167D02*
Y1860000D01*
X2114939Y1865167D02*
X2116908D01*
X2115834Y1863199*
X2116371*
X2116729Y1862953*
X2116908Y1862707*
X2117087Y1861969*
Y1861476*
X2116908Y1860738*
X2116550Y1860246*
X2116013Y1860000*
X2115476*
X2114939Y1860246*
X2114760Y1860492*
X2114581Y1860984*
X2119771Y1865167D02*
X2119234Y1864921D01*
X2118876Y1864183*
X2118697Y1862953*
Y1862215*
X2118876Y1860984*
X2119234Y1860246*
X2119771Y1860000*
X2120129*
X2120666Y1860246*
X2121024Y1860984*
X2121203Y1862215*
Y1862953*
X2121024Y1864183*
X2120666Y1864921*
X2120129Y1865167*
X2119771*
X2126929Y1863445D02*
Y1858278D01*
Y1862707D02*
X2127287Y1863199D01*
X2127645Y1863445*
X2128182*
X2128540Y1863199*
X2128898Y1862707*
X2129077Y1861969*
Y1861476*
X2128898Y1860738*
X2128540Y1860246*
X2128182Y1860000*
X2127645*
X2127287Y1860246*
X2126929Y1860738*
X2130687Y1861969D02*
X2132835D01*
Y1862461*
X2132656Y1862953*
X2132477Y1863199*
X2132119Y1863445*
X2131582*
X2131224Y1863199*
X2130866Y1862707*
X2130687Y1861969*
Y1861476*
X2130866Y1860738*
X2131224Y1860246*
X2131582Y1860000*
X2132119*
X2132477Y1860246*
X2132835Y1860738*
X2134445Y1863445D02*
Y1860000D01*
Y1862461D02*
X2134982Y1863199D01*
X2135340Y1863445*
X2135877*
X2136235Y1863199*
X2136414Y1862461*
Y1860000*
X2138561Y1865167D02*
Y1860984D01*
X2138740Y1860246*
X2139098Y1860000*
X2139456*
X2138024Y1863445D02*
X2139277D01*
X2141067D02*
Y1860000D01*
Y1861969D02*
X2141246Y1862707D01*
X2141603Y1863199*
X2141961Y1863445*
X2142498*
X2144109D02*
Y1860984D01*
X2144288Y1860246*
X2144646Y1860000*
X2145183*
X2145540Y1860246*
X2146077Y1860984*
Y1863445D02*
Y1860000D01*
X2151804Y1863445D02*
Y1860000D01*
Y1862461D02*
X2152341Y1863199D01*
X2152699Y1863445*
X2153236*
X2153593Y1863199*
X2153772Y1862461*
Y1860000*
Y1862461D02*
X2154309Y1863199D01*
X2154667Y1863445*
X2155204*
X2155562Y1863199*
X2155741Y1862461*
Y1860000*
X2159499Y1863445D02*
Y1860000D01*
Y1862707D02*
X2159141Y1863199D01*
X2158783Y1863445*
X2158246*
X2157888Y1863199*
X2157530Y1862707*
X2157351Y1861969*
Y1861476*
X2157530Y1860738*
X2157888Y1860246*
X2158246Y1860000*
X2158783*
X2159141Y1860246*
X2159499Y1860738*
X2163078Y1862707D02*
X2162899Y1863199D01*
X2162362Y1863445*
X2161825*
X2161288Y1863199*
X2161110Y1862707*
X2161288Y1862215*
X2161646Y1861969*
X2162541Y1861722*
X2162899Y1861476*
X2163078Y1860984*
Y1860738*
X2162899Y1860246*
X2162362Y1860000*
X2161825*
X2161288Y1860246*
X2161110Y1860738*
X2164689Y1863445D02*
Y1860984D01*
X2164868Y1860246*
X2165225Y1860000*
X2165762*
X2166120Y1860246*
X2166657Y1860984*
Y1863445D02*
Y1860000D01*
X2168268Y1863445D02*
Y1860000D01*
Y1861969D02*
X2168447Y1862707D01*
X2168805Y1863199*
X2169162Y1863445*
X2169699*
X2173457D02*
Y1860000D01*
Y1862707D02*
X2173099Y1863199D01*
X2173099D02*
X2172742Y1863445D01*
X2172205*
X2171847Y1863199*
X2171489Y1862707*
X2171310Y1861969*
Y1861476*
X2171489Y1860738*
X2171847Y1860246*
X2172205Y1860000*
X2172742*
X2173099Y1860246*
X2173099D02*
X2173457Y1860738D01*
X2175068Y1863445D02*
Y1860000D01*
Y1861969D02*
X2175247Y1862707D01*
X2175605Y1863199*
X2175963Y1863445*
X2176500*
X2178110Y1861969D02*
X2180258D01*
Y1862461*
X2180079Y1862953*
X2179900Y1863199*
X2179542Y1863445*
X2179005*
X2178647Y1863199*
X2178289Y1862707*
X2178110Y1861969*
Y1861476*
X2178289Y1860738*
X2178647Y1860246*
X2179005Y1860000*
X2179542*
X2179900Y1860246*
X2180258Y1860738*
X2184016Y1863445D02*
Y1860000D01*
Y1862707D02*
X2183658Y1863199D01*
X2183300Y1863445*
X2182763*
X2182405Y1863199*
X2182047Y1862707*
X2181868Y1861969*
Y1861476*
X2182047Y1860738*
X2182405Y1860246*
X2182763Y1860000*
X2183300*
X2183658Y1860246*
X2184016Y1860738*
X2191890Y1862707D02*
X2191532Y1863199D01*
X2191174Y1863445*
X2190637*
X2190279Y1863199*
X2189921Y1862707*
X2189742Y1861969*
Y1861476*
X2189921Y1860738*
X2190279Y1860246*
X2190637Y1860000*
X2191174*
X2191532Y1860246*
X2191890Y1860738*
X2193500Y1863445D02*
Y1860984D01*
X2193679Y1860246*
X2194037Y1860000*
X2194574*
X2194932Y1860246*
X2195469Y1860984*
Y1863445D02*
Y1860000D01*
X2201195Y1863445D02*
Y1860984D01*
X2201374Y1860246*
X2201732Y1860000*
X2202269*
X2202627Y1860246*
X2203164Y1860984*
Y1863445D02*
Y1860000D01*
X2204775Y1865167D02*
Y1860000D01*
X2206922Y1865167D02*
Y1860984D01*
X2207101Y1860246*
X2207459Y1860000*
X2207817*
X2206385Y1863445D02*
X2207638D01*
X2209427D02*
Y1860000D01*
Y1861969D02*
X2209606Y1862707D01*
X2209964Y1863199*
X2210322Y1863445*
X2210859*
X2214617D02*
Y1860000D01*
Y1862707D02*
X2214259Y1863199D01*
X2213901Y1863445*
X2213364*
X2213006Y1863199*
X2212649Y1862707*
X2212470Y1861969*
Y1861476*
X2212649Y1860738*
X2213006Y1860246*
X2213364Y1860000*
X2213901*
X2214259Y1860246*
X2214617Y1860738*
X2218196Y1862707D02*
X2218017Y1863199D01*
X2217480Y1863445*
X2216943*
X2216407Y1863199*
X2216228Y1862707*
X2216407Y1862215*
X2216764Y1861969*
X2217659Y1861722*
X2218017Y1861476*
X2218196Y1860984*
Y1860738*
X2218017Y1860246*
X2217480Y1860000*
X2216943*
X2216407Y1860246*
X2216228Y1860738*
X2219807Y1863445D02*
Y1860984D01*
X2219986Y1860246*
X2220344Y1860000*
X2220880*
X2221238Y1860246*
X2221775Y1860984*
Y1863445D02*
Y1860000D01*
X2223386Y1863445D02*
Y1860000D01*
Y1862461D02*
X2223923Y1863199D01*
X2224281Y1863445*
X2224817*
X2225175Y1863199*
X2225354Y1862461*
Y1860000*
X2226965Y1861969D02*
X2229112D01*
Y1862461*
X2228933Y1862953*
X2228754Y1863199*
X2228397Y1863445*
X2227860*
X2227502Y1863199*
X2227144Y1862707*
X2226965Y1861969*
Y1861476*
X2227144Y1860738*
X2227502Y1860246*
X2227860Y1860000*
X2228397*
X2228754Y1860246*
X2229112Y1860738*
X2231260Y1865167D02*
Y1860984D01*
X2231439Y1860246*
X2231797Y1860000*
X2232155*
X2230723Y1863445D02*
X2231976D01*
X2233765Y1861969D02*
X2235913D01*
Y1862461*
X2235734Y1862953*
X2235555Y1863199*
X2235197Y1863445*
X2234660*
X2234302Y1863199*
X2233944Y1862707*
X2233765Y1861969*
Y1861476*
X2233944Y1860738*
X2234302Y1860246*
X2234660Y1860000*
X2235197*
X2235555Y1860246*
X2235913Y1860738*
X2243787Y1863445D02*
Y1860000D01*
Y1862707D02*
X2243429Y1863199D01*
X2243071Y1863445*
X2242534*
X2242176Y1863199*
X2241818Y1862707*
X2241639Y1861969*
Y1861476*
X2241818Y1860738*
X2242176Y1860246*
X2242534Y1860000*
X2243071*
X2243429Y1860246*
X2243787Y1860738*
X2251661Y1865167D02*
Y1860000D01*
Y1862707D02*
X2251303Y1863199D01*
X2250945Y1863445*
X2250408*
X2250050Y1863199*
X2249692Y1862707*
X2249513Y1861969*
Y1861476*
X2249692Y1860738*
X2250050Y1860246*
X2250408Y1860000*
X2250945*
X2251303Y1860246*
X2251661Y1860738*
X2253271Y1865167D02*
X2253450Y1864921D01*
X2253629Y1865167*
X2253450Y1865413*
X2253271Y1865167*
X2253450Y1863445D02*
Y1860000D01*
X2257208Y1862707D02*
X2257029Y1863199D01*
X2256492Y1863445*
X2255956*
X2255419Y1863199*
X2255240Y1862707*
X2255419Y1862215*
X2255777Y1861969*
X2256671Y1861722*
X2257029Y1861476*
X2257208Y1860984*
Y1860738*
X2257029Y1860246*
X2256492Y1860000*
X2255956*
X2255419Y1860246*
X2255240Y1860738*
X2259356Y1865167D02*
Y1860984D01*
X2259535Y1860246*
X2259893Y1860000*
X2260251*
X2258819Y1863445D02*
X2260072D01*
X2264009D02*
Y1860000D01*
Y1862707D02*
X2263651Y1863199D01*
X2263293Y1863445*
X2262756*
X2262398Y1863199*
X2262040Y1862707*
X2261861Y1861969*
Y1861476*
X2262040Y1860738*
X2262398Y1860246*
X2262756Y1860000*
X2263293*
X2263651Y1860246*
X2264009Y1860738*
X2265619Y1863445D02*
Y1860000D01*
Y1862461D02*
X2266156Y1863199D01*
X2266514Y1863445*
X2267051*
X2267409Y1863199*
X2267588Y1862461*
Y1860000*
X2269735Y1865167D02*
Y1860984D01*
X2269914Y1860246*
X2270272Y1860000*
X2270630*
X2269198Y1863445D02*
X2270451D01*
X2272241Y1861969D02*
X2274388D01*
Y1862461*
X2274209Y1862953*
X2274030Y1863199*
X2273672Y1863445*
X2273135*
X2272777Y1863199*
X2272419Y1862707*
X2272241Y1861969*
Y1861476*
X2272419Y1860738*
X2272777Y1860246*
X2273135Y1860000*
X2273672*
X2274030Y1860246*
X2274388Y1860738*
X2275999Y1865167D02*
X2276178Y1864921D01*
X2276356Y1865167*
X2276178Y1865413*
X2275999Y1865167*
X2276178Y1863445D02*
Y1860000D01*
X2142684Y1853937D02*
X2142505Y1854429D01*
X2142147Y1854921*
X2141790Y1855167*
X2141074*
X2140716Y1854921*
X2140358Y1854429*
X2140179Y1853937*
X2140000Y1853199*
Y1851969*
X2140179Y1851230*
X2140358Y1850738*
X2140716Y1850246*
X2141074Y1850000*
X2141790*
X2142147Y1850246*
X2142505Y1850738*
X2142684Y1851230*
Y1851969*
X2141790D02*
X2142684D01*
X2144295Y1855167D02*
Y1850000D01*
Y1852461D02*
X2144832Y1853199D01*
X2145190Y1853445*
X2145727*
X2146084Y1853199*
X2146263Y1852461*
Y1850000*
X2147874Y1855167D02*
X2148053Y1854921D01*
X2148232Y1855167*
X2148053Y1855413*
X2147874Y1855167*
X2148053Y1853445D02*
Y1850000D01*
X2149843Y1855167D02*
Y1850000D01*
Y1852707D02*
X2150200Y1853199D01*
X2150558Y1853445*
X2151095*
X2151453Y1853199*
X2151811Y1852707*
X2151990Y1851969*
Y1851476*
X2151811Y1850738*
X2151453Y1850246*
X2151095Y1850000*
X2150558*
X2150200Y1850246*
X2149843Y1850738*
X2153601Y1853445D02*
Y1850984D01*
X2153780Y1850246*
X2154137Y1850000*
X2154674*
X2155032Y1850246*
X2155569Y1850984*
Y1853445D02*
Y1850000D01*
X2161296Y1855167D02*
Y1850000D01*
Y1855167D02*
X2162906D01*
X2163443Y1854921*
X2163622Y1854675*
X2163801Y1854183*
Y1853691*
X2163622Y1853199*
X2163443Y1852953*
X2162906Y1852707*
X2161296D02*
X2162906D01*
X2163443Y1852461*
X2163622Y1852215*
X2163801Y1851722*
Y1850984*
X2163622Y1850492*
X2163443Y1850246*
X2162906Y1850000*
X2161296*
X2166306Y1853445D02*
X2165948Y1853199D01*
X2165591Y1852707*
X2165412Y1851969*
Y1851476*
X2165591Y1850738*
X2165948Y1850246*
X2166306Y1850000*
X2166843*
X2167201Y1850246*
X2167559Y1850738*
X2167738Y1851476*
Y1851969*
X2167559Y1852707*
X2167201Y1853199*
X2166843Y1853445*
X2166306*
X2171496D02*
Y1849508D01*
X2171317Y1848770*
X2171138Y1848524*
X2170780Y1848278*
X2170243*
X2169885Y1848524*
X2171496Y1852707D02*
X2171138Y1853199D01*
X2170780Y1853445*
X2170243*
X2169885Y1853199*
X2169528Y1852707*
X2169349Y1851969*
Y1851476*
X2169528Y1850738*
X2169885Y1850246*
X2170243Y1850000*
X2170780*
X2171138Y1850246*
X2171496Y1850738*
X2175254Y1855167D02*
Y1850000D01*
Y1852707D02*
X2174896Y1853199D01*
X2174538Y1853445*
X2174001*
X2173644Y1853199*
X2173286Y1852707*
X2173107Y1851969*
Y1851476*
X2173286Y1850738*
X2173644Y1850246*
X2174001Y1850000*
X2174538*
X2174896Y1850246*
X2175254Y1850738*
X2179012Y1853445D02*
Y1850000D01*
Y1852707D02*
X2178654Y1853199D01*
X2178296Y1853445*
X2177759*
X2177402Y1853199*
X2177044Y1852707*
X2176865Y1851969*
Y1851476*
X2177044Y1850738*
X2177402Y1850246*
X2177759Y1850000*
X2178296*
X2178654Y1850246*
X2179012Y1850738*
X2180623Y1853445D02*
Y1850000D01*
Y1852461D02*
X2181160Y1853199D01*
X2181518Y1853445*
X2182054*
X2182412Y1853199*
X2182591Y1852461*
Y1850000*
X2140000Y1845167D02*
Y1841476D01*
X2140179Y1840738*
X2140537Y1840246*
X2141074Y1840000*
X2141432*
X2141969Y1840246*
X2142326Y1840738*
X2142505Y1841476*
Y1845167*
X2144116D02*
Y1840000D01*
Y1845167D02*
X2145727D01*
X2146263Y1844921*
X2146442Y1844675*
X2146621Y1844183*
Y1843445*
X2146442Y1842953*
X2146263Y1842707*
X2145727Y1842461*
X2144116*
X2149485Y1845167D02*
Y1840000D01*
X2148232Y1845167D02*
X2150737D01*
X2156464D02*
Y1840000D01*
Y1845167D02*
X2158790D01*
X2156464Y1842707D02*
X2157895D01*
X2156464Y1840000D02*
X2158790D01*
X2161654Y1845167D02*
Y1840000D01*
X2160401Y1845167D02*
X2162906D01*
X2166664Y1842707D02*
X2166306Y1843199D01*
X2165948Y1843445*
X2165412*
X2165054Y1843199*
X2164696Y1842707*
X2164517Y1841969*
Y1841476*
X2164696Y1840738*
X2165054Y1840246*
X2165412Y1840000*
X2165948*
X2166306Y1840246*
X2166664Y1840738*
X2169528Y1845167D02*
Y1840000D01*
X2168275Y1845167D02*
X2170780D01*
X2172391D02*
Y1840000D01*
X2178296Y1843937D02*
Y1844183D01*
X2178475Y1844675*
X2178654Y1844921*
X2179012Y1845167*
X2179728*
X2180086Y1844921*
X2180265Y1844675*
X2180444Y1844183*
Y1843691*
X2180265Y1843199*
X2179907Y1842461*
X2178117Y1840000*
X2180623*
X2183307Y1845167D02*
X2182770Y1844921D01*
X2182412Y1844183*
X2182233Y1842953*
Y1842215*
X2182412Y1840984*
X2182770Y1840246*
X2183307Y1840000*
X2183665*
X2184202Y1840246*
X2184560Y1840984*
X2184739Y1842215*
Y1842953*
X2184560Y1844183*
X2184202Y1844921*
X2183665Y1845167*
X2183307*
X2186528Y1843937D02*
Y1844183D01*
X2186707Y1844675*
X2186886Y1844921*
X2187244Y1845167*
X2187960*
X2188318Y1844921*
X2188497Y1844675*
X2188676Y1844183*
Y1843691*
X2188497Y1843199*
X2188139Y1842461*
X2186349Y1840000*
X2188855*
X2190465Y1844183D02*
X2190823Y1844429D01*
X2191360Y1845167*
Y1840000*
G74*
X0Y0D02*
M02*
