*
*
G04 PADS 9.5 Build Number: 522968 generated Gerber (RS-274-X) file*
G04 PC Version=2.1*
*
%IN "PCBv2.pcb"*%
*
%MOIN*%
*
%FSLAX35Y35*%
*
*
*
*
G04 PC Standard Apertures*
*
*
G04 Thermal Relief Aperture macro.*
%AMTER*
1,1,$1,0,0*
1,0,$1-$2,0,0*
21,0,$3,$4,0,0,45*
21,0,$3,$4,0,0,135*
%
*
*
G04 Annular Aperture macro.*
%AMANN*
1,1,$1,0,0*
1,0,$2,0,0*
%
*
*
G04 Odd Aperture macro.*
%AMODD*
1,1,$1,0,0*
1,0,$1-0.005,0,0*
%
*
*
G04 PC Custom Aperture Macros*
*
*
*
*
*
*
G04 PC Aperture Table*
*
%ADD010C,0.001*%
%ADD018C,0.07*%
%ADD032R,0.07X0.07*%
%ADD033C,0.01394*%
%ADD034R,0.05331X0.03362*%
%ADD035R,0.074X0.064*%
%ADD036R,0.064X0.074*%
%ADD037O,0.115X0.04*%
%ADD038C,0.08*%
%ADD039C,0.2*%
%ADD040R,0.046X0.046*%
%ADD041R,0.046X0.06*%
%ADD042C,0.14*%
%ADD043R,0.041X0.049*%
%ADD044O,0.20685X0.04937*%
%ADD045O,0.04937X0.20685*%
%ADD046O,0.08X0.035*%
%ADD047C,0.095*%
%ADD048R,0.105X0.045*%
*
*
*
*
G04 PC Circuitry*
G04 Layer Name PCBv2.pcb - circuitry*
%LPD*%
*
*
G04 PC Custom Flashes*
G04 Layer Name PCBv2.pcb - flashes*
%LPD*%
*
*
G04 PC Circuitry*
G04 Layer Name PCBv2.pcb - circuitry*
%LPD*%
*
G54D10*
G54D18*
G01X2230000Y1585650D03*
Y1535650D03*
X1770000Y1615650D03*
X1780000D03*
X1790000D03*
X1800000D03*
X1810000D03*
X1820000D03*
X1830000D03*
Y1645650D03*
X1820000D03*
X1810000D03*
X1800000D03*
X1790000D03*
X1780000D03*
X1770000D03*
X1760000D03*
X1990000Y1695650D03*
X2010000D03*
X2110000D03*
X2130000D03*
X2150000D03*
X2170000D03*
X1820000Y1572550D03*
X1866900D03*
Y1525650D03*
X2070000Y1695650D03*
X2090000D03*
X1860000Y1615650D03*
X1870000D03*
X1880000D03*
X1890000D03*
X1900000D03*
X1910000D03*
Y1645650D03*
X1900000D03*
X1890000D03*
X1880000D03*
X1870000D03*
X1860000D03*
X1850000D03*
X2030000Y1695650D03*
X2050000D03*
X1950000D03*
X1970000D03*
X1870000D03*
X1890000D03*
X2190000D03*
X2210000D03*
X2060000Y1515650D03*
X2080000D03*
X1910000Y1695650D03*
X1930000D03*
X2090000Y1615650D03*
Y1625650D03*
G54D32*
X2230000Y1575650D03*
Y1525650D03*
X1760000Y1615650D03*
X1820000Y1525650D03*
X1850000Y1615650D03*
G54D33*
X1987146Y1575355D02*
Y1575945D01*
X1992854*
Y1575355*
X1987146*
X1987591D02*
Y1575945D01*
X1988984Y1575355D02*
Y1575945D01*
X1990378Y1575355D02*
Y1575945D01*
X1991772Y1575355D02*
Y1575945D01*
X1987146Y1573386D02*
Y1573977D01*
X1992854*
Y1573386*
X1987146*
X1987591D02*
Y1573977D01*
X1988984Y1573386D02*
Y1573977D01*
X1990378Y1573386D02*
Y1573977D01*
X1991772Y1573386D02*
Y1573977D01*
X1987146Y1571418D02*
Y1572008D01*
X1992854*
Y1571418*
X1987146*
Y1571815D02*
X1992854D01*
X1987591Y1571418D02*
Y1572008D01*
X1988984Y1571418D02*
Y1572008D01*
X1990378Y1571418D02*
Y1572008D01*
X1991772Y1571418D02*
Y1572008D01*
X1987146Y1569449D02*
Y1570040D01*
X1992854*
Y1569449*
X1987146*
X1987591D02*
Y1570040D01*
X1988984Y1569449D02*
Y1570040D01*
X1990378Y1569449D02*
Y1570040D01*
X1991772Y1569449D02*
Y1570040D01*
X1987146Y1567481D02*
Y1568071D01*
X1992854*
Y1567481*
X1987146*
Y1567634D02*
X1992854D01*
X1987591Y1567481D02*
Y1568071D01*
X1988984Y1567481D02*
Y1568071D01*
X1990378Y1567481D02*
Y1568071D01*
X1991772Y1567481D02*
Y1568071D01*
X1987146Y1565512D02*
Y1566103D01*
X1992854*
Y1565512*
X1987146*
X1987591D02*
Y1566103D01*
X1988984Y1565512D02*
Y1566103D01*
X1990378Y1565512D02*
Y1566103D01*
X1991772Y1565512D02*
Y1566103D01*
X1987146Y1563544D02*
Y1564134D01*
X1992854*
Y1563544*
X1987146*
X1987591D02*
Y1564134D01*
X1988984Y1563544D02*
Y1564134D01*
X1990378Y1563544D02*
Y1564134D01*
X1991772Y1563544D02*
Y1564134D01*
X1987146Y1561575D02*
Y1562166D01*
X1992854*
Y1561575*
X1987146*
Y1562059D02*
X1992854D01*
X1987591Y1561575D02*
Y1562166D01*
X1988984Y1561575D02*
Y1562166D01*
X1990378Y1561575D02*
Y1562166D01*
X1991772Y1561575D02*
Y1562166D01*
X1987146Y1559607D02*
Y1560197D01*
X1992854*
Y1559607*
X1987146*
X1987591D02*
Y1560197D01*
X1988984Y1559607D02*
Y1560197D01*
X1990378Y1559607D02*
Y1560197D01*
X1991772Y1559607D02*
Y1560197D01*
X1987146Y1557638D02*
Y1558229D01*
X1992854*
Y1557638*
X1987146*
Y1557878D02*
X1992854D01*
X1987591Y1557638D02*
Y1558229D01*
X1988984Y1557638D02*
Y1558229D01*
X1990378Y1557638D02*
Y1558229D01*
X1991772Y1557638D02*
Y1558229D01*
X1987146Y1555670D02*
Y1556260D01*
X1992854*
Y1555670*
X1987146*
X1987591D02*
Y1556260D01*
X1988984Y1555670D02*
Y1556260D01*
X1990378Y1555670D02*
Y1556260D01*
X1991772Y1555670D02*
Y1556260D01*
X1987146Y1553701D02*
Y1554292D01*
X1992854*
Y1553701*
X1987146*
X1987591D02*
Y1554292D01*
X1988984Y1553701D02*
Y1554292D01*
X1990378Y1553701D02*
Y1554292D01*
X1991772Y1553701D02*
Y1554292D01*
X1987146Y1551733D02*
Y1552323D01*
X1992854*
Y1551733*
X1987146*
Y1552304D02*
X1992854D01*
X1987591Y1551733D02*
Y1552323D01*
X1988984Y1551733D02*
Y1552323D01*
X1990378Y1551733D02*
Y1552323D01*
X1991772Y1551733D02*
Y1552323D01*
X1987146Y1549764D02*
Y1550355D01*
X1992854*
Y1549764*
X1987146*
X1987591D02*
Y1550355D01*
X1988984Y1549764D02*
Y1550355D01*
X1990378Y1549764D02*
Y1550355D01*
X1991772Y1549764D02*
Y1550355D01*
X1987146Y1547796D02*
Y1548386D01*
X1992854*
Y1547796*
X1987146*
Y1548122D02*
X1992854D01*
X1987591Y1547796D02*
Y1548386D01*
X1988984Y1547796D02*
Y1548386D01*
X1990378Y1547796D02*
Y1548386D01*
X1991772Y1547796D02*
Y1548386D01*
X1987146Y1545827D02*
Y1546418D01*
X1992854*
Y1545827*
X1987146*
X1987591D02*
Y1546418D01*
X1988984Y1545827D02*
Y1546418D01*
X1990378Y1545827D02*
Y1546418D01*
X1991772Y1545827D02*
Y1546418D01*
X1997295Y1537796D02*
X1996705D01*
Y1543504*
X1997295*
Y1537796*
X1996705Y1538367D02*
X1997295D01*
X1996705Y1539760D02*
X1997295D01*
X1996705Y1541154D02*
X1997295D01*
X1996705Y1542548D02*
X1997295D01*
X1999264Y1537796D02*
X1998673D01*
Y1543504*
X1999264*
Y1537796*
X1998673Y1538367D02*
X1999264D01*
X1998673Y1539760D02*
X1999264D01*
X1998673Y1541154D02*
X1999264D01*
X1998673Y1542548D02*
X1999264D01*
X1998740Y1537796D02*
Y1543504D01*
X2001232Y1537796D02*
X2000642D01*
Y1543504*
X2001232*
Y1537796*
X2000642Y1538367D02*
X2001232D01*
X2000642Y1539760D02*
X2001232D01*
X2000642Y1541154D02*
X2001232D01*
X2000642Y1542548D02*
X2001232D01*
X2003201Y1537796D02*
X2002610D01*
Y1543504*
X2003201*
Y1537796*
X2002610Y1538367D02*
X2003201D01*
X2002610Y1539760D02*
X2003201D01*
X2002610Y1541154D02*
X2003201D01*
X2002610Y1542548D02*
X2003201D01*
X2002921Y1537796D02*
Y1543504D01*
X2005169Y1537796D02*
X2004579D01*
Y1543504*
X2005169*
Y1537796*
X2004579Y1538367D02*
X2005169D01*
X2004579Y1539760D02*
X2005169D01*
X2004579Y1541154D02*
X2005169D01*
X2004579Y1542548D02*
X2005169D01*
X2007138Y1537796D02*
X2006547D01*
Y1543504*
X2007138*
Y1537796*
X2006547Y1538367D02*
X2007138D01*
X2006547Y1539760D02*
X2007138D01*
X2006547Y1541154D02*
X2007138D01*
X2006547Y1542548D02*
X2007138D01*
X2007102Y1537796D02*
Y1543504D01*
X2009106Y1537796D02*
X2008516D01*
Y1543504*
X2009106*
Y1537796*
X2008516Y1538367D02*
X2009106D01*
X2008516Y1539760D02*
X2009106D01*
X2008516Y1541154D02*
X2009106D01*
X2008516Y1542548D02*
X2009106D01*
X2011075Y1537796D02*
X2010484D01*
Y1543504*
X2011075*
Y1537796*
X2010484Y1538367D02*
X2011075D01*
X2010484Y1539760D02*
X2011075D01*
X2010484Y1541154D02*
X2011075D01*
X2010484Y1542548D02*
X2011075D01*
X2013043Y1537796D02*
X2012453D01*
Y1543504*
X2013043*
Y1537796*
X2012453Y1538367D02*
X2013043D01*
X2012453Y1539760D02*
X2013043D01*
X2012453Y1541154D02*
X2013043D01*
X2012453Y1542548D02*
X2013043D01*
X2012677Y1537796D02*
Y1543504D01*
X2015012Y1537796D02*
X2014421D01*
Y1543504*
X2015012*
Y1537796*
X2014421Y1538367D02*
X2015012D01*
X2014421Y1539760D02*
X2015012D01*
X2014421Y1541154D02*
X2015012D01*
X2014421Y1542548D02*
X2015012D01*
X2016980Y1537796D02*
X2016390D01*
Y1543504*
X2016980*
Y1537796*
X2016390Y1538367D02*
X2016980D01*
X2016390Y1539760D02*
X2016980D01*
X2016390Y1541154D02*
X2016980D01*
X2016390Y1542548D02*
X2016980D01*
X2016858Y1537796D02*
Y1543504D01*
X2018949Y1537796D02*
X2018358D01*
Y1543504*
X2018949*
Y1537796*
X2018358Y1538367D02*
X2018949D01*
X2018358Y1539760D02*
X2018949D01*
X2018358Y1541154D02*
X2018949D01*
X2018358Y1542548D02*
X2018949D01*
X2020917Y1537796D02*
X2020327D01*
Y1543504*
X2020917*
Y1537796*
X2020327Y1538367D02*
X2020917D01*
X2020327Y1539760D02*
X2020917D01*
X2020327Y1541154D02*
X2020917D01*
X2020327Y1542548D02*
X2020917D01*
X2022886Y1537796D02*
X2022295D01*
Y1543504*
X2022886*
Y1537796*
X2022295Y1538367D02*
X2022886D01*
X2022295Y1539760D02*
X2022886D01*
X2022295Y1541154D02*
X2022886D01*
X2022295Y1542548D02*
X2022886D01*
X2022433Y1537796D02*
Y1543504D01*
X2024854Y1537796D02*
X2024264D01*
Y1543504*
X2024854*
Y1537796*
X2024264Y1538367D02*
X2024854D01*
X2024264Y1539760D02*
X2024854D01*
X2024264Y1541154D02*
X2024854D01*
X2024264Y1542548D02*
X2024854D01*
X2026823Y1537796D02*
X2026232D01*
Y1543504*
X2026823*
Y1537796*
X2026232Y1538367D02*
X2026823D01*
X2026232Y1539760D02*
X2026823D01*
X2026232Y1541154D02*
X2026823D01*
X2026232Y1542548D02*
X2026823D01*
X2026614Y1537796D02*
Y1543504D01*
X2031240Y1545827D02*
Y1546418D01*
X2036949*
Y1545827*
X2031240*
X2032189D02*
Y1546418D01*
X2033583Y1545827D02*
Y1546418D01*
X2034976Y1545827D02*
Y1546418D01*
X2036370Y1545827D02*
Y1546418D01*
X2031240Y1547796D02*
Y1548386D01*
X2036949*
Y1547796*
X2031240*
Y1548122D02*
X2036949D01*
X2032189Y1547796D02*
Y1548386D01*
X2033583Y1547796D02*
Y1548386D01*
X2034976Y1547796D02*
Y1548386D01*
X2036370Y1547796D02*
Y1548386D01*
X2031240Y1549764D02*
Y1550355D01*
X2036949*
Y1549764*
X2031240*
X2032189D02*
Y1550355D01*
X2033583Y1549764D02*
Y1550355D01*
X2034976Y1549764D02*
Y1550355D01*
X2036370Y1549764D02*
Y1550355D01*
X2031240Y1551733D02*
Y1552323D01*
X2036949*
Y1551733*
X2031240*
Y1552304D02*
X2036949D01*
X2032189Y1551733D02*
Y1552323D01*
X2033583Y1551733D02*
Y1552323D01*
X2034976Y1551733D02*
Y1552323D01*
X2036370Y1551733D02*
Y1552323D01*
X2031240Y1553701D02*
Y1554292D01*
X2036949*
Y1553701*
X2031240*
X2032189D02*
Y1554292D01*
X2033583Y1553701D02*
Y1554292D01*
X2034976Y1553701D02*
Y1554292D01*
X2036370Y1553701D02*
Y1554292D01*
X2031240Y1555670D02*
Y1556260D01*
X2036949*
Y1555670*
X2031240*
X2032189D02*
Y1556260D01*
X2033583Y1555670D02*
Y1556260D01*
X2034976Y1555670D02*
Y1556260D01*
X2036370Y1555670D02*
Y1556260D01*
X2031240Y1557638D02*
Y1558229D01*
X2036949*
Y1557638*
X2031240*
Y1557878D02*
X2036949D01*
X2032189Y1557638D02*
Y1558229D01*
X2033583Y1557638D02*
Y1558229D01*
X2034976Y1557638D02*
Y1558229D01*
X2036370Y1557638D02*
Y1558229D01*
X2031240Y1559607D02*
Y1560197D01*
X2036949*
Y1559607*
X2031240*
X2032189D02*
Y1560197D01*
X2033583Y1559607D02*
Y1560197D01*
X2034976Y1559607D02*
Y1560197D01*
X2036370Y1559607D02*
Y1560197D01*
X2031240Y1561575D02*
Y1562166D01*
X2036949*
Y1561575*
X2031240*
Y1562059D02*
X2036949D01*
X2032189Y1561575D02*
Y1562166D01*
X2033583Y1561575D02*
Y1562166D01*
X2034976Y1561575D02*
Y1562166D01*
X2036370Y1561575D02*
Y1562166D01*
X2031240Y1563544D02*
Y1564134D01*
X2036949*
Y1563544*
X2031240*
X2032189D02*
Y1564134D01*
X2033583Y1563544D02*
Y1564134D01*
X2034976Y1563544D02*
Y1564134D01*
X2036370Y1563544D02*
Y1564134D01*
X2031240Y1565512D02*
Y1566103D01*
X2036949*
Y1565512*
X2031240*
X2032189D02*
Y1566103D01*
X2033583Y1565512D02*
Y1566103D01*
X2034976Y1565512D02*
Y1566103D01*
X2036370Y1565512D02*
Y1566103D01*
X2031240Y1567481D02*
Y1568071D01*
X2036949*
Y1567481*
X2031240*
Y1567634D02*
X2036949D01*
X2032189Y1567481D02*
Y1568071D01*
X2033583Y1567481D02*
Y1568071D01*
X2034976Y1567481D02*
Y1568071D01*
X2036370Y1567481D02*
Y1568071D01*
X2031240Y1569449D02*
Y1570040D01*
X2036949*
Y1569449*
X2031240*
X2032189D02*
Y1570040D01*
X2033583Y1569449D02*
Y1570040D01*
X2034976Y1569449D02*
Y1570040D01*
X2036370Y1569449D02*
Y1570040D01*
X2031240Y1571418D02*
Y1572008D01*
X2036949*
Y1571418*
X2031240*
Y1571815D02*
X2036949D01*
X2032189Y1571418D02*
Y1572008D01*
X2033583Y1571418D02*
Y1572008D01*
X2034976Y1571418D02*
Y1572008D01*
X2036370Y1571418D02*
Y1572008D01*
X2031240Y1573386D02*
Y1573977D01*
X2036949*
Y1573386*
X2031240*
X2032189D02*
Y1573977D01*
X2033583Y1573386D02*
Y1573977D01*
X2034976Y1573386D02*
Y1573977D01*
X2036370Y1573386D02*
Y1573977D01*
X2031240Y1575355D02*
Y1575945D01*
X2036949*
Y1575355*
X2031240*
X2032189D02*
Y1575945D01*
X2033583Y1575355D02*
Y1575945D01*
X2034976Y1575355D02*
Y1575945D01*
X2036370Y1575355D02*
Y1575945D01*
X2026823Y1581890D02*
X2026232D01*
Y1587599*
X2026823*
Y1581890*
X2026232Y1582965D02*
X2026823D01*
X2026232Y1584359D02*
X2026823D01*
X2026232Y1585752D02*
X2026823D01*
X2026232Y1587146D02*
X2026823D01*
X2026614Y1581890D02*
Y1587599D01*
X2024854Y1581890D02*
X2024264D01*
Y1587599*
X2024854*
Y1581890*
X2024264Y1582965D02*
X2024854D01*
X2024264Y1584359D02*
X2024854D01*
X2024264Y1585752D02*
X2024854D01*
X2024264Y1587146D02*
X2024854D01*
X2022886Y1581890D02*
X2022295D01*
Y1587599*
X2022886*
Y1581890*
X2022295Y1582965D02*
X2022886D01*
X2022295Y1584359D02*
X2022886D01*
X2022295Y1585752D02*
X2022886D01*
X2022295Y1587146D02*
X2022886D01*
X2022433Y1581890D02*
Y1587599D01*
X2020917Y1581890D02*
X2020327D01*
Y1587599*
X2020917*
Y1581890*
X2020327Y1582965D02*
X2020917D01*
X2020327Y1584359D02*
X2020917D01*
X2020327Y1585752D02*
X2020917D01*
X2020327Y1587146D02*
X2020917D01*
X2018949Y1581890D02*
X2018358D01*
Y1587599*
X2018949*
Y1581890*
X2018358Y1582965D02*
X2018949D01*
X2018358Y1584359D02*
X2018949D01*
X2018358Y1585752D02*
X2018949D01*
X2018358Y1587146D02*
X2018949D01*
X2016980Y1581890D02*
X2016390D01*
Y1587599*
X2016980*
Y1581890*
X2016390Y1582965D02*
X2016980D01*
X2016390Y1584359D02*
X2016980D01*
X2016390Y1585752D02*
X2016980D01*
X2016390Y1587146D02*
X2016980D01*
X2016858Y1581890D02*
Y1587599D01*
X2015012Y1581890D02*
X2014421D01*
Y1587599*
X2015012*
Y1581890*
X2014421Y1582965D02*
X2015012D01*
X2014421Y1584359D02*
X2015012D01*
X2014421Y1585752D02*
X2015012D01*
X2014421Y1587146D02*
X2015012D01*
X2013043Y1581890D02*
X2012453D01*
Y1587599*
X2013043*
Y1581890*
X2012453Y1582965D02*
X2013043D01*
X2012453Y1584359D02*
X2013043D01*
X2012453Y1585752D02*
X2013043D01*
X2012453Y1587146D02*
X2013043D01*
X2012677Y1581890D02*
Y1587599D01*
X2011075Y1581890D02*
X2010484D01*
Y1587599*
X2011075*
Y1581890*
X2010484Y1582965D02*
X2011075D01*
X2010484Y1584359D02*
X2011075D01*
X2010484Y1585752D02*
X2011075D01*
X2010484Y1587146D02*
X2011075D01*
X2009106Y1581890D02*
X2008516D01*
Y1587599*
X2009106*
Y1581890*
X2008516Y1582965D02*
X2009106D01*
X2008516Y1584359D02*
X2009106D01*
X2008516Y1585752D02*
X2009106D01*
X2008516Y1587146D02*
X2009106D01*
X2007138Y1581890D02*
X2006547D01*
Y1587599*
X2007138*
Y1581890*
X2006547Y1582965D02*
X2007138D01*
X2006547Y1584359D02*
X2007138D01*
X2006547Y1585752D02*
X2007138D01*
X2006547Y1587146D02*
X2007138D01*
X2007102Y1581890D02*
Y1587599D01*
X2005169Y1581890D02*
X2004579D01*
Y1587599*
X2005169*
Y1581890*
X2004579Y1582965D02*
X2005169D01*
X2004579Y1584359D02*
X2005169D01*
X2004579Y1585752D02*
X2005169D01*
X2004579Y1587146D02*
X2005169D01*
X2003201Y1581890D02*
X2002610D01*
Y1587599*
X2003201*
Y1581890*
X2002610Y1582965D02*
X2003201D01*
X2002610Y1584359D02*
X2003201D01*
X2002610Y1585752D02*
X2003201D01*
X2002610Y1587146D02*
X2003201D01*
X2002921Y1581890D02*
Y1587599D01*
X2001232Y1581890D02*
X2000642D01*
Y1587599*
X2001232*
Y1581890*
X2000642Y1582965D02*
X2001232D01*
X2000642Y1584359D02*
X2001232D01*
X2000642Y1585752D02*
X2001232D01*
X2000642Y1587146D02*
X2001232D01*
X1999264Y1581890D02*
X1998673D01*
Y1587599*
X1999264*
Y1581890*
X1998673Y1582965D02*
X1999264D01*
X1998673Y1584359D02*
X1999264D01*
X1998673Y1585752D02*
X1999264D01*
X1998673Y1587146D02*
X1999264D01*
X1998740Y1581890D02*
Y1587599D01*
X1997295Y1581890D02*
X1996705D01*
Y1587599*
X1997295*
Y1581890*
X1996705Y1582965D02*
X1997295D01*
X1996705Y1584359D02*
X1997295D01*
X1996705Y1585752D02*
X1997295D01*
X1996705Y1587146D02*
X1997295D01*
G54D34*
X2120000Y1625650D03*
Y1621910D03*
Y1618170D03*
X2130236D03*
Y1625650D03*
G54D35*
X2140000Y1672950D03*
Y1658350D03*
X2210000Y1672950D03*
Y1658350D03*
X2170000Y1672950D03*
Y1658350D03*
X1960000Y1672950D03*
Y1658350D03*
X2000000Y1672950D03*
Y1658350D03*
X2030000Y1672950D03*
Y1658350D03*
X2070000Y1672950D03*
Y1658350D03*
X2100000Y1672950D03*
Y1658350D03*
G54D36*
X1817300Y1695650D03*
X1802700D03*
X1762700D03*
X1777300D03*
X1847300D03*
X1832700D03*
X1937300Y1665650D03*
X1922700D03*
G54D37*
X2222250Y1625650D03*
X2237750D03*
X2182250D03*
X2197750D03*
X2142250D03*
X2157750D03*
G54D38*
X1790000Y1575650D03*
X1780000Y1585650D03*
X1770000Y1575650D03*
X2140000Y1519650D03*
Y1551650D03*
X2170000Y1519650D03*
Y1551650D03*
X2110000Y1519650D03*
Y1551650D03*
G54D39*
X1780000Y1510650D03*
G54D40*
X1896250Y1661750D03*
X1903750D03*
G54D41*
X1900000Y1669750D03*
G54D42*
X1820000Y1665650D03*
X1850000D03*
X1950000Y1615650D03*
X2010000D03*
Y1635650D03*
X1950000D03*
G54D43*
X1883700Y1660950D03*
X1876300D03*
X1880000Y1670350D03*
G54D44*
X1910000Y1555650D03*
Y1537422D03*
Y1573878D03*
X1941000Y1555650D03*
Y1537422D03*
Y1573878D03*
G54D45*
X1901000Y1564650D03*
X1919000D03*
X1900000Y1545650D03*
X1920000D03*
X1932000Y1564650D03*
X1950000D03*
X1931000Y1545650D03*
X1951000D03*
G54D46*
X2132750D03*
X2147250D03*
X2132750Y1540650D03*
X2147250D03*
X2132750Y1535650D03*
X2147250D03*
X2132750Y1530650D03*
X2147250D03*
X2132750Y1525650D03*
X2147250D03*
X2162750Y1545650D03*
X2177250D03*
X2162750Y1540650D03*
X2177250D03*
X2162750Y1535650D03*
X2177250D03*
X2162750Y1530650D03*
X2177250D03*
X2162750Y1525650D03*
X2177250D03*
X2102750Y1545650D03*
X2117250D03*
X2102750Y1540650D03*
X2117250D03*
X2102750Y1535650D03*
X2117250D03*
X2102750Y1530650D03*
X2117250D03*
X2102750Y1525650D03*
X2117250D03*
G54D47*
X2140000Y1561950D03*
X2170000D03*
X2110000D03*
G54D48*
X1790000Y1672400D03*
Y1658900D03*
X1770000D03*
Y1672400D03*
X0Y0D02*
M02*
